{
.appVersion = "1342";
DisplayStrings = (
"nn/Placeholder no/Placeholder oo/space naranjo\012abcdefghinojk/space carajo/space hijo\012olmnopqrstouovowoxoyozo",
"/space noHOdx/ellipsis/nbspace",
av,
r,
"nn¹n²n³n/foursuperior nn1234",
"¹²³/foursuperior",
"uunnuµnntnphdlijnnnnn"
);
copyright = "Copyright 2016-2020 The GloryTSI Project Authors (https://github.com/googlefonts/glory)";
customParameters = (
{
name = licenseURL;
value = "https://scripts.sil.org/OFL";
},
{
name = license;
value = "This Font Software is licensed under the SIL Open Font License, Version 1.1. This license is available with a FAQ at: https://scripts.sil.org/OFL";
},
{
name = vendorID;
value = GOOG;
},
{
name = Axes;
value = (
{
Name = Weight;
Tag = wght;
}
);
},
{
name = fsType;
value = (
);
},
{
name = glyphOrder;
value = (
.notdef,
CR,
space,
nbspace,
a,
b,
c,
d,
e,
f,
g,
h,
i,
j,
k,
l,
m,
n,
o,
p,
q,
r,
s,
t,
u,
v,
w,
x,
y,
z,
A,
B,
C,
D,
E,
F,
G,
H,
I,
J,
K,
L,
M,
N,
O,
P,
Q,
R,
S,
T,
U,
V,
W,
X,
Y,
Z,
quotedbl,
numbersign,
dollar,
peseta,
euro,
sterling,
currency,
yen,
percent,
ampersand,
quotesingle,
parenleft,
parenright,
asterisk,
comma,
hyphen,
period,
slash,
colon,
semicolon,
question,
at,
bracketleft,
backslash,
bracketright,
asciicircum,
grave,
braceleft,
bar,
braceright,
asciitilde,
dagger,
degree,
cent,
section,
registered,
copyright,
trademark,
acute,
dieresis,
AE,
ae,
questiondown,
exclamdown,
guillemotleft,
guillemotright,
ellipsis,
OE,
oe,
endash,
emdash,
quotedblleft,
quotedblright,
quoteleft,
quoteright,
fraction,
daggerdbl,
perthousand,
apple,
dotlessi,
circumflex,
tilde,
macron,
breve,
ring,
cedilla,
ogonek,
exclam,
zero,
one,
two,
three,
four,
five,
six,
seven,
eight,
nine,
underscore,
brokenbar,
uni00AD,
zerosuperior,
onesuperior,
twosuperior,
threesuperior,
foursuperior,
fivesuperior,
sixsuperior,
sevensuperior,
eightsuperior,
ninesuperior,
mu,
paragraph,
periodcentered,
ordmasculine,
onequarter,
onehalf,
threequarters,
acutecomb,
dotbelowcomb,
gravecomb,

glyphs = (
{
glyphname = a;
lastChange = "2021-03-18 02:20:24 +0000";
layers = (
{
background = {
hints = (
{
horizontal = 1;
place = "{6, 21}";
target = up;
type = BottomGhost;
},
{
horizontal = 1;
place = "{256, 30}";
type = Stem;
},
{
horizontal = 1;
place = "{448, 33}";
type = Stem;
},
{
place = "{17, 36}";
type = Stem;
},
{
place = "{358, 35}";
type = Stem;
},
{
horizontal = 1;
place = "{-6, 32}";
type = Stem;
}
);
paths = (
{
closed = 1;
nodes = (
"52 68 OFFCURVE",
"95 -6 OFFCURVE",
"220 -6 CURVE SMOOTH",
"272 -6 OFFCURVE",
"340 4 OFFCURVE",
"387 20 CURVE SMOOTH",
"399 24 OFFCURVE",
"401 31 OFFCURVE",
"402 37 CURVE SMOOTH",
"462 257 OFFCURVE",
"491 408 OFFCURVE",
"500 466 CURVE SMOOTH",
"500 468 OFFCURVE",
"498 470 OFFCURVE",
"496 470 CURVE SMOOTH",
"488 470 OFFCURVE",
"479 470 OFFCURVE",
"471 470 CURVE SMOOTH",
"469 470 OFFCURVE",
"467 468 OFFCURVE",
"467 466 CURVE SMOOTH",
"465 456 OFFCURVE",
"464 450 OFFCURVE",
"460 433 CURVE",
"439 450 OFFCURVE",
"381 472 OFFCURVE",
"329 472 CURVE SMOOTH",
"244 472 OFFCURVE",
"129 433 OFFCURVE",
"86 230 CURVE SMOOTH"
);
},
{
closed = 1;
nodes = (
"158 414 OFFCURVE",
"257 440 OFFCURVE",
"322 440 CURVE SMOOTH",
"355 440 OFFCURVE",
"415 425 OFFCURVE",
"440 407 CURVE SMOOTH",
"446 402 OFFCURVE",
"454 401 OFFCURVE",
"452 388 CURVE SMOOTH",
"447 354 OFFCURVE",
"403 153 OFFCURVE",
"377 63 CURVE",
"376 56 OFFCURVE",
"365 47 OFFCURVE",
"355 44 CURVE SMOOTH",
"341 40 OFFCURVE",
"277 23 OFFCURVE",
"235 23 CURVE SMOOTH",
"125 23 OFFCURVE",
"87 77 OFFCURVE",
"119 230 CURVE SMOOTH"
);
}
);
};
layerId = "707362F1-A677-446A-8636-E10BE3A7FAFF";
paths = (
{
closed = 1;
nodes = (
"52 68 OFFCURVE",
"95 -6 OFFCURVE",
"220 -6 CURVE SMOOTH",
"272 -6 OFFCURVE",
"340 4 OFFCURVE",
"387 20 CURVE SMOOTH",
"399 24 OFFCURVE",
"401 31 OFFCURVE",
"402 37 CURVE SMOOTH",
"462 257 OFFCURVE",
"491 408 OFFCURVE",
"500 466 CURVE SMOOTH",
"500 468 OFFCURVE",
"498 470 OFFCURVE",
"496 470 CURVE SMOOTH",
"488 470 OFFCURVE",
"479 470 OFFCURVE",
"471 470 CURVE SMOOTH",
"469 470 OFFCURVE",
"467 468 OFFCURVE",
"467 466 CURVE SMOOTH",
"465 456 OFFCURVE",
"464 450 OFFCURVE",
"460 433 CURVE",
"439 450 OFFCURVE",
"381 472 OFFCURVE",
"329 472 CURVE SMOOTH",
"244 472 OFFCURVE",
"129 433 OFFCURVE",
"86 230 CURVE SMOOTH"
);
},
{
closed = 1;
nodes = (
"158 414 OFFCURVE",
"257 440 OFFCURVE",
"322 440 CURVE SMOOTH",
"355 440 OFFCURVE",
"415 425 OFFCURVE",
"440 407 CURVE SMOOTH",
"446 402 OFFCURVE",
"454 401 OFFCURVE",
"452 388 CURVE SMOOTH",
"447 354 OFFCURVE",
"403 153 OFFCURVE",
"377 63 CURVE",
"376 56 OFFCURVE",
"365 47 OFFCURVE",
"355 44 CURVE SMOOTH",
"341 40 OFFCURVE",
"277 23 OFFCURVE",
"235 23 CURVE SMOOTH",
"125 23 OFFCURVE",
"87 77 OFFCURVE",
"119 230 CURVE SMOOTH"
);
}
);
width = 476;
},
{
background = {
paths = (
{
closed = 1;
nodes = (
"44 67 OFFCURVE",
"107 -6 OFFCURVE",
"241 -6 CURVE SMOOTH",
"309 -6 OFFCURVE",
"374 9 OFFCURVE",
"399 18 CURVE SMOOTH",
"433 28 OFFCURVE",
"438 35 OFFCURVE",
"446 52 CURVE SMOOTH",
"467 90 OFFCURVE",
"493 201 OFFCURVE",
"507 263 CURVE SMOOTH",
"547 433 OFFCURVE",
"547 448 OFFCURVE",
"549 461 CURVE SMOOTH",
"550 471 OFFCURVE",
"543 472 OFFCURVE",
"532 472 CURVE SMOOTH",
"495 472 OFFCURVE",
"459 472 OFFCURVE",
"422 472 CURVE SMOOTH",
"409 472 OFFCURVE",
"403 472 OFFCURVE",
"401 455 CURVE",
"394 464 OFFCURVE",
"371 476 OFFCURVE",
"343 476 CURVE SMOOTH",
"245 476 OFFCURVE",
"127 431 OFFCURVE",
"81 229 CURVE SMOOTH"
);
},
{
closed = 1;
nodes = (
"256 339 OFFCURVE",
"298 354 OFFCURVE",
"326 354 CURVE SMOOTH",
"339 354 OFFCURVE",
"357 348 OFFCURVE",
"370 343 CURVE",
"375 342 OFFCURVE",
"375 340 OFFCURVE",
"374 332 CURVE",
"357 263 OFFCURVE",
"341 195 OFFCURVE",
"323 126 CURVE SMOOTH",
"321 119 OFFCURVE",
"320 117 OFFCURVE",
"317 114 CURVE",
"303 110 OFFCURVE",
"285 106 OFFCURVE",
"268 106 CURVE SMOOTH",
"230 106 OFFCURVE",
"209 135 OFFCURVE",
"231 228 CURVE SMOOTH"
);
}
);
};
layerId = "D1BC8BBB-1669-4C46-BC21-42BF6808B2B9";
paths = (
{
closed = 1;
nodes = (
"44 67 OFFCURVE",
"107 -6 OFFCURVE",
"241 -6 CURVE SMOOTH",
"309 -6 OFFCURVE",
"374 9 OFFCURVE",
"399 18 CURVE SMOOTH",
"433 28 OFFCURVE",
"438 35 OFFCURVE",
"446 52 CURVE SMOOTH",
"467 90 OFFCURVE",
"493 201 OFFCURVE",
"507 263 CURVE SMOOTH",
"547 433 OFFCURVE",
"547 448 OFFCURVE",
"549 461 CURVE SMOOTH",
"550 471 OFFCURVE",
"543 472 OFFCURVE",
"532 472 CURVE SMOOTH",
"495 472 OFFCURVE",
"459 472 OFFCURVE",
"422 472 CURVE SMOOTH",
"409 472 OFFCURVE",
"403 472 OFFCURVE",
"401 455 CURVE",
"394 464 OFFCURVE",
"371 476 OFFCURVE",
"343 476 CURVE SMOOTH",
"245 476 OFFCURVE",
"127 431 OFFCURVE",
"81 229 CURVE SMOOTH"
);
},
{
closed = 1;
nodes = (
"256 339 OFFCURVE",
"298 354 OFFCURVE",
"326 354 CURVE SMOOTH",
"339 354 OFFCURVE",
"357 348 OFFCURVE",
"370 343 CURVE",
"375 342 OFFCURVE",
"375 340 OFFCURVE",
"374 332 CURVE",
"357 263 OFFCURVE",
"341 195 OFFCURVE",
"323 126 CURVE SMOOTH",
"321 119 OFFCURVE",
"320 117 OFFCURVE",
"317 114 CURVE",
"303 110 OFFCURVE",
"285 106 OFFCURVE",
"268 106 CURVE SMOOTH",
"230 106 OFFCURVE",
"209 135 OFFCURVE",
"231 228 CURVE SMOOTH"
);
}
);
width = 502;
}
);
leftKerningGroup = o;
leftMetricsKey = o;
note = a;
rightMetricsKey = d;
unicode = 0061;
},
{
glyphname = b;
lastChange = "2021-03-17 01:43:28 +0000";
layers = (
{
background = {
paths = (
{
closed = 1;
nodes = (
"353 -6 OFFCURVE",
"440 63 OFFCURVE",
"474 224 CURVE SMOOTH",
"517 427 OFFCURVE",
"426 476 OFFCURVE",
"342 476 CURVE SMOOTH",
"292 476 OFFCURVE",
"236 465 OFFCURVE",
"210 457 CURVE SMOOTH",
"197 452 OFFCURVE",
"193 459 OFFCURVE",
"196 472 CURVE SMOOTH",
"198 481 OFFCURVE",
"239 650 OFFCURVE",
"254 700 CURVE SMOOTH",
"254 702 OFFCURVE",
"257 708 OFFCURVE",
"250 708 CURVE SMOOTH",
"229 708 LINE SMOOTH",
"224 708 OFFCURVE",
"222 703 OFFCURVE",
"221 701 CURVE SMOOTH",
"182 565 OFFCURVE",
"148 417 OFFCURVE",
"123 287 CURVE SMOOTH",
"106 203 OFFCURVE",
"89 99 OFFCURVE",
"86 66 CURVE SMOOTH",
"82 24 OFFCURVE",
"82 24 OFFCURVE",
"107 14 CURVE SMOOTH",
"115 11 OFFCURVE",
"169 -6 OFFCURVE",
"236 -6 CURVE SMOOTH"
);
},
{
closed = 1;
nodes = (
"192 22 OFFCURVE",
"152 33 OFFCURVE",
"130 41 CURVE SMOOTH",
"122 45 OFFCURVE",
"117 50 OFFCURVE",
"119 65 CURVE SMOOTH",
"136 191 OFFCURVE",
"173 373 OFFCURVE",
"184 407 CURVE SMOOTH",
"188 420 OFFCURVE",
"198 425 OFFCURVE",
"206 426 CURVE SMOOTH",
"221 428 OFFCURVE",
"297 446 OFFCURVE",
"330 446 CURVE SMOOTH",
"399 446 OFFCURVE",
"481 411 OFFCURVE",
"442 228 CURVE SMOOTH",
"409 74 OFFCURVE",
"330 22 OFFCURVE",
"240 22 CURVE SMOOTH"
);
}
);
};
hints = (
{
horizontal = 1;
place = "{-112, 21}";
target = up;
type = BottomGhost;
},
{
horizontal = 1;
place = "{-6, 34}";
type = Stem;
},
{
horizontal = 1;
place = "{452, 30}";
type = Stem;
},
{
place = "{59, 34}";
type = Stem;
},
{
place = "{402, 34}";
type = Stem;
},
{
place = "{65, 34}";
type = Stem;
},
{
horizontal = 1;
place = "{-13, 34}";
type = Stem;
}
);
layerId = "707362F1-A677-446A-8636-E10BE3A7FAFF";
paths = (
{
closed = 1;
nodes = (
"353 -6 OFFCURVE",
"440 63 OFFCURVE",
"474 224 CURVE SMOOTH",
"517 427 OFFCURVE",
"426 476 OFFCURVE",
"342 476 CURVE SMOOTH",
"292 476 OFFCURVE",
"236 465 OFFCURVE",
"210 457 CURVE SMOOTH",
"197 452 OFFCURVE",
"193 459 OFFCURVE",
"196 472 CURVE SMOOTH",
"198 481 OFFCURVE",
"239 650 OFFCURVE",
"254 700 CURVE SMOOTH",
"254 702 OFFCURVE",
"257 708 OFFCURVE",
"250 708 CURVE SMOOTH",
"229 708 LINE SMOOTH",
"224 708 OFFCURVE",
"222 703 OFFCURVE",
"221 701 CURVE SMOOTH",
"182 565 OFFCURVE",
"148 417 OFFCURVE",
"123 287 CURVE SMOOTH",
"106 203 OFFCURVE",
"89 99 OFFCURVE",
"86 66 CURVE SMOOTH",
"82 24 OFFCURVE",
"82 24 OFFCURVE",
"107 14 CURVE SMOOTH",
"115 11 OFFCURVE",
"169 -6 OFFCURVE",
"236 -6 CURVE SMOOTH"
);
},
{
closed = 1;
nodes = (
"192 22 OFFCURVE",
"152 33 OFFCURVE",
"130 41 CURVE SMOOTH",
"122 45 OFFCURVE",
"117 50 OFFCURVE",
"119 65 CURVE SMOOTH",
"136 191 OFFCURVE",
"173 373 OFFCURVE",
"184 407 CURVE SMOOTH",
"188 420 OFFCURVE",
"198 425 OFFCURVE",
"206 426 CURVE SMOOTH",
"221 428 OFFCURVE",
"297 446 OFFCURVE",
"330 446 CURVE SMOOTH",
"399 446 OFFCURVE",
"481 411 OFFCURVE",
"442 228 CURVE SMOOTH",
"409 74 OFFCURVE",
"330 22 OFFCURVE",
"240 22 CURVE SMOOTH"
);
}
);
width = 470;
},
{
background = {
paths = (
{
closed = 1;
nodes = (
"378 -6 OFFCURVE",
"474 67 OFFCURVE",
"508 229 CURVE SMOOTH",
"551 431 OFFCURVE",
"454 476 OFFCURVE",
"356 476 CURVE SMOOTH",
"342 476 OFFCURVE",
"318 470 OFFCURVE",
"306 468 CURVE SMOOTH",
"299 467 OFFCURVE",
"291 466 OFFCURVE",
"294 477 CURVE SMOOTH",
"307 538 OFFCURVE",
"334 621 OFFCURVE",
"357 681 CURVE SMOOTH",
"365 704 OFFCURVE",
"370 708 OFFCURVE",
"347 708 CURVE SMOOTH",
"238 708 LINE SMOOTH",
"227 708 OFFCURVE",
"219 707 OFFCURVE",
"215 697 CURVE SMOOTH",
"177 590 OFFCURVE",
"133 433 OFFCURVE",
"97 263 CURVE SMOOTH",
"84 201 OFFCURVE",
"62 90 OFFCURVE",
"65 52 CURVE SMOOTH",
"66 35 OFFCURVE",
"68 28 OFFCURVE",
"98 18 CURVE SMOOTH",
"119 9 OFFCURVE",
"176 -6 OFFCURVE",
"246 -6 CURVE SMOOTH"
);
},
{
closed = 1;
nodes = (
"250 106 OFFCURVE",
"234 110 OFFCURVE",
"224 114 CURVE",
"221 117 OFFCURVE",
"221 119 OFFCURVE",
"222 126 CURVE SMOOTH",
"235 195 OFFCURVE",
"248 263 OFFCURVE",
"263 332 CURVE SMOOTH",
"265 340 OFFCURVE",
"266 342 OFFCURVE",
"271 343 CURVE SMOOTH",
"286 348 OFFCURVE",
"308 354 OFFCURVE",
"322 354 CURVE SMOOTH",
"349 354 OFFCURVE",
"382 339 OFFCURVE",
"359 228 CURVE SMOOTH",
"339 135 OFFCURVE",
"305 106 OFFCURVE",
"269 106 CURVE SMOOTH"
);
}
);
};
layerId = "D1BC8BBB-1669-4C46-BC21-42BF6808B2B9";
paths = (
{
closed = 1;
nodes = (
"378 -6 OFFCURVE",
"474 67 OFFCURVE",
"508 229 CURVE SMOOTH",
"551 431 OFFCURVE",
"454 476 OFFCURVE",
"356 476 CURVE SMOOTH",
"342 476 OFFCURVE",
"318 470 OFFCURVE",
"306 468 CURVE SMOOTH",
"299 467 OFFCURVE",
"291 466 OFFCURVE",
"294 477 CURVE SMOOTH",
"307 538 OFFCURVE",
"334 621 OFFCURVE",
"357 681 CURVE SMOOTH",
"365 704 OFFCURVE",
"370 708 OFFCURVE",
"347 708 CURVE SMOOTH",
"238 708 LINE SMOOTH",
"227 708 OFFCURVE",
"219 707 OFFCURVE",
"215 697 CURVE SMOOTH",
"177 590 OFFCURVE",
"133 433 OFFCURVE",
"97 263 CURVE SMOOTH",
"84 201 OFFCURVE",
"62 90 OFFCURVE",
"65 52 CURVE SMOOTH",
"66 35 OFFCURVE",
"68 28 OFFCURVE",
"98 18 CURVE SMOOTH",
"119 9 OFFCURVE",
"176 -6 OFFCURVE",
"246 -6 CURVE SMOOTH"
);
},
{
closed = 1;
nodes = (
"250 106 OFFCURVE",
"234 110 OFFCURVE",
"224 114 CURVE",
"221 117 OFFCURVE",
"221 119 OFFCURVE",
"222 126 CURVE SMOOTH",
"235 195 OFFCURVE",
"248 263 OFFCURVE",
"263 332 CURVE SMOOTH",
"265 340 OFFCURVE",
"266 342 OFFCURVE",
"271 343 CURVE SMOOTH",
"286 348 OFFCURVE",
"308 354 OFFCURVE",
"322 354 CURVE SMOOTH",
"349 354 OFFCURVE",
"382 339 OFFCURVE",
"359 228 CURVE SMOOTH",
"339 135 OFFCURVE",
"305 106 OFFCURVE",
"269 106 CURVE SMOOTH"
);
}
);
width = 487;
}
);
leftKerningGroup = b;
note = b;
rightKerningGroup = o;
rightMetricsKey = o;
unicode = 0062;
},
{
glyphname = c;
lastChange = "2021-03-18 01:18:11 +0000";
layers = (
{
background = {
paths = (
{
closed = 1;
nodes = (
"279 -5 OFFCURVE",
"324 4 OFFCURVE",
"358 24 CURVE",
"361 25 OFFCURVE",
"363 27 OFFCURVE",
"363 31 CURVE",
"357 47 LINE",
"357 50 OFFCURVE",
"354 50 OFFCURVE",
"350 48 CURVE",
"320 35 OFFCURVE",
"282 25 OFFCURVE",
"234 25 CURVE SMOOTH",
"114 25 OFFCURVE",
"93 109 OFFCURVE",
"120 236 CURVE SMOOTH",
"141 335 OFFCURVE",
"199 452 OFFCURVE",
"324 452 CURVE SMOOTH",
"367 452 OFFCURVE",
"412 438 OFFCURVE",
"429 413 CURVE SMOOTH",
"432 409 OFFCURVE",
"437 408 OFFCURVE",
"438 415 CURVE SMOOTH",
"443 438 LINE SMOOTH",
"445 445 OFFCURVE",
"445 445 OFFCURVE",
"441 450 CURVE SMOOTH",
"419 471 OFFCURVE",
"384 483 OFFCURVE",
"331 483 CURVE SMOOTH",
"180 483 OFFCURVE",
"115 365 OFFCURVE",
"87 237 CURVE SMOOTH",
"58 100 OFFCURVE",
"73 -5 OFFCURVE",
"228 -5 CURVE SMOOTH"
);
}
);
};
hints = (
{
horizontal = 1;
place = "{-4, 33}";
type = Stem;
},
{
horizontal = 1;
place = "{447, 33}";
type = Stem;
},
{
place = "{41, 34}";
type = Stem;
}
);
layerId = "707362F1-A677-446A-8636-E10BE3A7FAFF";
paths = (
{
closed = 1;
nodes = (
"279 -5 OFFCURVE",
"324 4 OFFCURVE",
"358 24 CURVE",
"361 25 OFFCURVE",
"363 27 OFFCURVE",
"363 31 CURVE",
"357 47 LINE",
"357 50 OFFCURVE",
"354 50 OFFCURVE",
"350 48 CURVE",
"320 35 OFFCURVE",
"282 25 OFFCURVE",
"234 25 CURVE SMOOTH",
"114 25 OFFCURVE",
"93 109 OFFCURVE",
"120 236 CURVE SMOOTH",
"141 335 OFFCURVE",
"199 452 OFFCURVE",
"324 452 CURVE SMOOTH",
"367 452 OFFCURVE",
"412 438 OFFCURVE",
"429 413 CURVE SMOOTH",
"432 409 OFFCURVE",
"437 408 OFFCURVE",
"438 415 CURVE SMOOTH",
"443 438 LINE SMOOTH",
"445 445 OFFCURVE",
"445 445 OFFCURVE",
"441 450 CURVE SMOOTH",
"419 471 OFFCURVE",
"384 483 OFFCURVE",
"331 483 CURVE SMOOTH",
"180 483 OFFCURVE",
"115 365 OFFCURVE",
"87 237 CURVE SMOOTH",
"58 100 OFFCURVE",
"73 -5 OFFCURVE",
"228 -5 CURVE SMOOTH"
);
}
);
width = 390;
},
{
background = {
paths = (
{
closed = 1;
nodes = (
"302 -5 OFFCURVE",
"366 7 OFFCURVE",
"407 34 CURVE SMOOTH",
"419 41 OFFCURVE",
"422 46 OFFCURVE",
"419 58 CURVE SMOOTH",
"406 122 LINE SMOOTH",
"403 135 OFFCURVE",
"394 137 OFFCURVE",
"380 131 CURVE SMOOTH",
"339 114 OFFCURVE",
"311 106 OFFCURVE",
"283 106 CURVE SMOOTH",
"233 106 OFFCURVE",
"211 153 OFFCURVE",
"228 236 CURVE SMOOTH",
"242 302 OFFCURVE",
"286 360 OFFCURVE",
"346 360 CURVE SMOOTH",
"386 360 OFFCURVE",
"421 355 OFFCURVE",
"451 326 CURVE SMOOTH",
"457 320 OFFCURVE",
"467 320 OFFCURVE",
"470 332 CURVE SMOOTH",
"487 415 LINE SMOOTH",
"489 425 OFFCURVE",
"488 428 OFFCURVE",
"479 439 CURVE",
"450 467 OFFCURVE",
"409 478 OFFCURVE",
"351 478 CURVE SMOOTH",
"178 478 OFFCURVE",
"109 360 OFFCURVE",
"82 237 CURVE SMOOTH",
"54 105 OFFCURVE",
"72 -5 OFFCURVE",
"249 -5 CURVE SMOOTH"
);
}
);
};
layerId = "D1BC8BBB-1669-4C46-BC21-42BF6808B2B9";
paths = (
{
closed = 1;
nodes = (
"302 -5 OFFCURVE",
"366 7 OFFCURVE",
"407 34 CURVE SMOOTH",
"419 41 OFFCURVE",
"422 46 OFFCURVE",
"419 58 CURVE SMOOTH",
"406 122 LINE SMOOTH",
"403 135 OFFCURVE",
"394 137 OFFCURVE",
"380 131 CURVE SMOOTH",
"339 114 OFFCURVE",
"311 106 OFFCURVE",
"283 106 CURVE SMOOTH",
"233 106 OFFCURVE",
"211 153 OFFCURVE",
"228 236 CURVE SMOOTH",
"242 302 OFFCURVE",
"286 360 OFFCURVE",
"346 360 CURVE SMOOTH",
"386 360 OFFCURVE",
"421 355 OFFCURVE",
"451 326 CURVE SMOOTH",
"457 320 OFFCURVE",
"467 320 OFFCURVE",
"470 332 CURVE SMOOTH",
"487 415 LINE SMOOTH",
"489 425 OFFCURVE",
"488 428 OFFCURVE",
"479 439 CURVE",
"450 467 OFFCURVE",
"409 478 OFFCURVE",
"351 478 CURVE SMOOTH",
"178 478 OFFCURVE",
"109 360 OFFCURVE",
"82 237 CURVE SMOOTH",
"54 105 OFFCURVE",
"72 -5 OFFCURVE",
"249 -5 CURVE SMOOTH"
);
}
);
width = 432;
}
);
leftKerningGroup = o;
leftMetricsKey = o;
note = c;
unicode = 0063;
},
{
glyphname = d;
lastChange = "2021-03-18 01:36:45 +0000";
layers = (
{
background = {
paths = (
{
closed = 1;
nodes = (
"67 142 OFFCURVE",
"72 78 OFFCURVE",
"99 39 CURVE SMOOTH",
"124 4 OFFCURVE",
"175 -9 OFFCURVE",
"230 -10 CURVE SMOOTH",
"285 -10 OFFCURVE",
"344 2 OFFCURVE",
"384 18 CURVE SMOOTH",
"398 24 OFFCURVE",
"402 31 OFFCURVE",
"403 37 CURVE SMOOTH",
"463 257 OFFCURVE",
"508 480 OFFCURVE",
"545 704 CURVE SMOOTH",
"545 707 OFFCURVE",
"543 708 OFFCURVE",
"542 708 CURVE SMOOTH",
"516 708 LINE SMOOTH",
"514 708 OFFCURVE",
"511 707 OFFCURVE",
"511 704 CURVE",
"511 704 OFFCURVE",
"478 520 OFFCURVE",
"466 465 CURVE SMOOTH",
"463 452 OFFCURVE",
"460 454 OFFCURVE",
"442 459 CURVE SMOOTH",
"417 465 OFFCURVE",
"374 472 OFFCURVE",
"328 472 CURVE SMOOTH",
"243 472 OFFCURVE",
"129 433 OFFCURVE",
"86 230 CURVE SMOOTH"
);
},
{
closed = 1;
nodes = (
"158 414 OFFCURVE",
"257 440 OFFCURVE",
"322 440 CURVE SMOOTH",
"355 440 OFFCURVE",
"405 433 OFFCURVE",
"442 424 CURVE",
"450 421 OFFCURVE",
"457 415 OFFCURVE",
"454 401 CURVE SMOOTH",
"449 367 OFFCURVE",
"400 145 OFFCURVE",
"373 55 CURVE SMOOTH",
"371 48 OFFCURVE",
"363 45 OFFCURVE",
"353 40 CURVE SMOOTH",
"285 12 OFFCURVE",
"171 7 OFFCURVE",
"132 57 CURVE SMOOTH",
"107 88 OFFCURVE",
"101 144 OFFCURVE",
"119 230 CURVE SMOOTH"
);
}
);
};
hints = (
{
horizontal = 1;
place = "{-6, 31}";
type = Stem;
},
{
horizontal = 1;
place = "{6, 21}";
target = up;
type = BottomGhost;
},
{
horizontal = 1;
place = "{446, 35}";
type = Stem;
},
{
place = "{47, 35}";
type = Stem;
},
{
place = "{383, 35}";
type = Stem;
}
);
layerId = "707362F1-A677-446A-8636-E10BE3A7FAFF";
paths = (
{
closed = 1;
nodes = (
"67 142 OFFCURVE",
"72 78 OFFCURVE",
"99 39 CURVE SMOOTH",
"124 4 OFFCURVE",
"175 -9 OFFCURVE",
"230 -10 CURVE SMOOTH",
"285 -10 OFFCURVE",
"344 2 OFFCURVE",
"384 18 CURVE SMOOTH",
"398 24 OFFCURVE",
"402 31 OFFCURVE",
"403 37 CURVE SMOOTH",
"463 257 OFFCURVE",
"508 480 OFFCURVE",
"545 704 CURVE SMOOTH",
"545 707 OFFCURVE",
"543 708 OFFCURVE",
"542 708 CURVE SMOOTH",
"516 708 LINE SMOOTH",
"514 708 OFFCURVE",
"511 707 OFFCURVE",
"511 704 CURVE",
"511 704 OFFCURVE",
"478 520 OFFCURVE",
"466 465 CURVE SMOOTH",
"463 452 OFFCURVE",
"460 454 OFFCURVE",
"442 459 CURVE SMOOTH",
"417 465 OFFCURVE",
"374 472 OFFCURVE",
"328 472 CURVE SMOOTH",
"243 472 OFFCURVE",
"129 433 OFFCURVE",
"86 230 CURVE SMOOTH"
);
},
{
closed = 1;
nodes = (
"158 414 OFFCURVE",
"257 440 OFFCURVE",
"322 440 CURVE SMOOTH",
"355 440 OFFCURVE",
"405 433 OFFCURVE",
"442 424 CURVE",
"450 421 OFFCURVE",
"457 415 OFFCURVE",
"454 401 CURVE SMOOTH",
"449 367 OFFCURVE",
"400 145 OFFCURVE",
"373 55 CURVE SMOOTH",
"371 48 OFFCURVE",
"363 45 OFFCURVE",
"353 40 CURVE SMOOTH",
"285 12 OFFCURVE",
"171 7 OFFCURVE",
"132 57 CURVE SMOOTH",
"107 88 OFFCURVE",
"101 144 OFFCURVE",
"119 230 CURVE SMOOTH"
);
}
);
width = 476;
},
{
background = {
paths = (
{
closed = 1;
nodes = (
"58 130 OFFCURVE",
"73 64 OFFCURVE",
"118 28 CURVE SMOOTH",
"146 5 OFFCURVE",
"188 -6 OFFCURVE",
"240 -6 CURVE SMOOTH",
"309 -6 OFFCURVE",
"373 9 OFFCURVE",
"399 18 CURVE SMOOTH",
"433 28 OFFCURVE",
"438 35 OFFCURVE",
"446 52 CURVE SMOOTH",
"489 129 OFFCURVE",
"566 528 OFFCURVE",
"580 676 CURVE SMOOTH",
"581 686 OFFCURVE",
"574 687 OFFCURVE",
"563 687 CURVE SMOOTH",
"453 687 LINE SMOOTH",
"438 687 OFFCURVE",
"433 687 OFFCURVE",
"432 660 CURVE SMOOTH",
"425 599 OFFCURVE",
"421 538 OFFCURVE",
"407 477 CURVE SMOOTH",
"404 466 OFFCURVE",
"398 467 OFFCURVE",
"391 468 CURVE SMOOTH",
"379 470 OFFCURVE",
"357 476 OFFCURVE",
"342 476 CURVE SMOOTH",
"244 476 OFFCURVE",
"128 431 OFFCURVE",
"81 229 CURVE SMOOTH"
);
},
{
closed = 1;
nodes = (
"256 339 OFFCURVE",
"298 354 OFFCURVE",
"326 354 CURVE SMOOTH",
"339 354 OFFCURVE",
"357 348 OFFCURVE",
"370 343 CURVE SMOOTH",
"375 342 OFFCURVE",
"376 340 OFFCURVE",
"374 332 CURVE SMOOTH",
"358 263 OFFCURVE",
"341 195 OFFCURVE",
"323 126 CURVE SMOOTH",
"322 119 OFFCURVE",
"319 117 OFFCURVE",
"317 114 CURVE",
"303 110 OFFCURVE",
"286 106 OFFCURVE",
"268 106 CURVE SMOOTH",
"230 106 OFFCURVE",
"209 135 OFFCURVE",
"231 228 CURVE SMOOTH"
);
}
);
};
layerId = "D1BC8BBB-1669-4C46-BC21-42BF6808B2B9";
paths = (
{
closed = 1;
nodes = (
"58 130 OFFCURVE",
"73 64 OFFCURVE",
"118 28 CURVE SMOOTH",
"146 5 OFFCURVE",
"188 -6 OFFCURVE",
"240 -6 CURVE SMOOTH",
"309 -6 OFFCURVE",
"373 9 OFFCURVE",
"399 18 CURVE SMOOTH",
"433 28 OFFCURVE",
"438 35 OFFCURVE",
"446 52 CURVE SMOOTH",
"489 129 OFFCURVE",
"566 528 OFFCURVE",
"580 676 CURVE SMOOTH",
"581 686 OFFCURVE",
"574 687 OFFCURVE",
"563 687 CURVE SMOOTH",
"453 687 LINE SMOOTH",
"438 687 OFFCURVE",
"433 687 OFFCURVE",
"432 660 CURVE SMOOTH",
"425 599 OFFCURVE",
"421 538 OFFCURVE",
"407 477 CURVE SMOOTH",
"404 466 OFFCURVE",
"398 467 OFFCURVE",
"391 468 CURVE SMOOTH",
"379 470 OFFCURVE",
"357 476 OFFCURVE",
"342 476 CURVE SMOOTH",
"244 476 OFFCURVE",
"128 431 OFFCURVE",
"81 229 CURVE SMOOTH"
);
},
{
closed = 1;
nodes = (
"256 339 OFFCURVE",
"298 354 OFFCURVE",
"326 354 CURVE SMOOTH",
"339 354 OFFCURVE",
"357 348 OFFCURVE",
"370 343 CURVE SMOOTH",
"375 342 OFFCURVE",
"376 340 OFFCURVE",
"374 332 CURVE SMOOTH",
"358 263 OFFCURVE",
"341 195 OFFCURVE",
"323 126 CURVE SMOOTH",
"322 119 OFFCURVE",
"319 117 OFFCURVE",
"317 114 CURVE",
"303 110 OFFCURVE",
"286 106 OFFCURVE",
"268 106 CURVE SMOOTH",
"230 106 OFFCURVE",
"209 135 OFFCURVE",
"231 228 CURVE SMOOTH"
);
}
);
width = 501;
}
);
leftKerningGroup = o;
leftMetricsKey = o;
note = d;
unicode = 0064;
},
{
color = 0;
glyphname = e;
lastChange = "2021-03-17 01:43:43 +0000";
layers = (
{
background = {
paths = (
{
closed = 1;
nodes = (
"58 100 OFFCURVE",
"71 -5 OFFCURVE",
"228 -5 CURVE SMOOTH",
"294 -5 OFFCURVE",
"360 6 OFFCURVE",
"408 38 CURVE",
"413 40 OFFCURVE",
"413 42 OFFCURVE",
"413 45 CURVE SMOOTH",
"409 59 LINE SMOOTH",
"406 66 OFFCURVE",
"398 61 OFFCURVE",
"395 59 CURVE SMOOTH",
"348 33 OFFCURVE",
"282 25 OFFCURVE",
"234 25 CURVE SMOOTH",
"119 25 OFFCURVE",
"94 103 OFFCURVE",
"116 216 CURVE SMOOTH",
"119 229 OFFCURVE",
"128 229 OFFCURVE",
"130 229 CURVE SMOOTH",
"431 229 LINE SMOOTH",
"446 229 OFFCURVE",
"454 231 OFFCURVE",
"464 276 CURVE SMOOTH",
"485 374 OFFCURVE",
"487 483 OFFCURVE",
"331 483 CURVE SMOOTH",
"180 483 OFFCURVE",
"115 365 OFFCURVE",
"87 237 CURVE SMOOTH"
);
},
{
closed = 1;
nodes = (
"427 263 OFFCURVE",
"420 261 OFFCURVE",
"406 261 CURVE",
"317 261 OFFCURVE",
"228 261 OFFCURVE",
"139 261 CURVE SMOOTH",
"127 261 OFFCURVE",
"127 265 OFFCURVE",
"130 275 CURVE SMOOTH",
"149 349 OFFCURVE",
"206 452 OFFCURVE",
"324 452 CURVE SMOOTH",
"445 452 OFFCURVE",
"449 365 OFFCURVE",
"431 281 CURVE SMOOTH"
);
}
);
};
hints = (
{
horizontal = 1;
place = "{-4, 32}";
type = Stem;
},
{
horizontal = 1;
place = "{238, 29}";
type = Stem;
},
{
horizontal = 1;
place = "{453, 32}";
type = Stem;
},
{
place = "{51, 34}";
type = Stem;
},
{
place = "{385, 35}";
type = Stem;
}
);
layerId = "707362F1-A677-446A-8636-E10BE3A7FAFF";
paths = (
{
closed = 1;
nodes = (
"58 100 OFFCURVE",
"71 -5 OFFCURVE",
"228 -5 CURVE SMOOTH",
"294 -5 OFFCURVE",
"360 6 OFFCURVE",
"408 38 CURVE",
"413 40 OFFCURVE",
"413 42 OFFCURVE",
"413 45 CURVE SMOOTH",
"409 59 LINE SMOOTH",
"406 66 OFFCURVE",
"398 61 OFFCURVE",
"395 59 CURVE SMOOTH",
"348 33 OFFCURVE",
"282 25 OFFCURVE",
"234 25 CURVE SMOOTH",
"119 25 OFFCURVE",
"94 103 OFFCURVE",
"116 216 CURVE SMOOTH",
"119 229 OFFCURVE",
"128 229 OFFCURVE",
"130 229 CURVE SMOOTH",
"431 229 LINE SMOOTH",
"446 229 OFFCURVE",
"454 231 OFFCURVE",
"464 276 CURVE SMOOTH",
"485 374 OFFCURVE",
"487 483 OFFCURVE",
"331 483 CURVE SMOOTH",
"180 483 OFFCURVE",
"115 365 OFFCURVE",
"87 237 CURVE SMOOTH"
);
},
{
closed = 1;
nodes = (
"427 263 OFFCURVE",
"420 261 OFFCURVE",
"406 261 CURVE",
"317 261 OFFCURVE",
"228 261 OFFCURVE",
"139 261 CURVE SMOOTH",
"127 261 OFFCURVE",
"127 265 OFFCURVE",
"130 275 CURVE SMOOTH",
"149 349 OFFCURVE",
"206 452 OFFCURVE",
"324 452 CURVE SMOOTH",
"445 452 OFFCURVE",
"449 365 OFFCURVE",
"431 281 CURVE SMOOTH"
);
}
);
width = 449;
},
{
background = {
paths = (
{
closed = 1;
nodes = (
"54 105 OFFCURVE",
"71 -5 OFFCURVE",
"249 -5 CURVE SMOOTH",
"316 -5 OFFCURVE",
"395 8 OFFCURVE",
"449 41 CURVE SMOOTH",
"467 52 OFFCURVE",
"474 54 OFFCURVE",
"467 72 CURVE SMOOTH",
"453 119 LINE SMOOTH",
"446 143 OFFCURVE",
"438 137 OFFCURVE",
"417 126 CURVE SMOOTH",
"401 118 OFFCURVE",
"353 98 OFFCURVE",
"307 98 CURVE SMOOTH",
"246 98 OFFCURVE",
"218 138 OFFCURVE",
"224 186 CURVE",
"226 195 OFFCURVE",
"226 198 OFFCURVE",
"235 198 CURVE SMOOTH",
"450 198 LINE SMOOTH",
"478 198 OFFCURVE",
"496 214 OFFCURVE",
"508 271 CURVE SMOOTH",
"528 367 OFFCURVE",
"529 478 OFFCURVE",
"351 478 CURVE SMOOTH",
"178 478 OFFCURVE",
"109 360 OFFCURVE",
"82 237 CURVE SMOOTH"
);
},
{
closed = 1;
nodes = (
"362 277 OFFCURVE",
"362 275 OFFCURVE",
"353 275 CURVE SMOOTH",
"317 275 OFFCURVE",
"280 275 OFFCURVE",
"244 275 CURVE SMOOTH",
"238 275 OFFCURVE",
"237 278 OFFCURVE",
"244 300 CURVE SMOOTH",
"256 332 OFFCURVE",
"281 368 OFFCURVE",
"323 368 CURVE SMOOTH",
"360 368 OFFCURVE",
"375 345 OFFCURVE",
"365 295 CURVE SMOOTH"
);
}
);
};
layerId = "D1BC8BBB-1669-4C46-BC21-42BF6808B2B9";
paths = (
{
closed = 1;
nodes = (
"54 105 OFFCURVE",
"71 -5 OFFCURVE",
"249 -5 CURVE SMOOTH",
"316 -5 OFFCURVE",
"395 8 OFFCURVE",
"449 41 CURVE SMOOTH",
"467 52 OFFCURVE",
"474 54 OFFCURVE",
"467 72 CURVE SMOOTH",
"453 119 LINE SMOOTH",
"446 143 OFFCURVE",
"438 137 OFFCURVE",
"417 126 CURVE SMOOTH",
"401 118 OFFCURVE",
"353 98 OFFCURVE",
"307 98 CURVE SMOOTH",
"246 98 OFFCURVE",
"218 138 OFFCURVE",
"224 186 CURVE",
"226 195 OFFCURVE",
"226 198 OFFCURVE",
"235 198 CURVE SMOOTH",
"450 198 LINE SMOOTH",
"478 198 OFFCURVE",
"496 214 OFFCURVE",
"508 271 CURVE SMOOTH",
"528 367 OFFCURVE",
"529 478 OFFCURVE",
"351 478 CURVE SMOOTH",
"178 478 OFFCURVE",
"109 360 OFFCURVE",
"82 237 CURVE SMOOTH"
);
},
{
closed = 1;
nodes = (
"362 277 OFFCURVE",
"362 275 OFFCURVE",
"353 275 CURVE SMOOTH",
"317 275 OFFCURVE",
"280 275 OFFCURVE",
"244 275 CURVE SMOOTH",
"238 275 OFFCURVE",
"237 278 OFFCURVE",
"244 300 CURVE SMOOTH",
"256 332 OFFCURVE",
"281 368 OFFCURVE",
"323 368 CURVE SMOOTH",
"360 368 OFFCURVE",
"375 345 OFFCURVE",
"365 295 CURVE SMOOTH"
);
}
);
width = 486;
}
);
leftKerningGroup = o;
leftMetricsKey = o;
note = e;
unicode = 0065;
},
{
glyphname = f;
lastChange = "2021-03-18 01:15:22 +0000";
layers = (
{
background = {
hints = (
{
horizontal = 1;
place = "{4, 21}";
target = up;
type = BottomGhost;
},
{
horizontal = 1;
place = "{254, 28}";
type = Stem;
},
{
horizontal = 1;
place = "{442, 30}";
type = Stem;
},
{
horizontal = 1;
place = "{682, 30}";
type = Stem;
},
{
place = "{59, 34}";
type = Stem;
},
{
place = "{146, 33}";
type = Stem;
},
{
place = "{400, 33}";
type = Stem;
},
{
horizontal = 1;
place = "{446, 31}";
type = Stem;
}
);
paths = (
{
closed = 1;
nodes = (
"50 -237 OFFCURVE",
"92 -179 OFFCURVE",
"111 -80 CURVE SMOOTH",
"143 92 OFFCURVE",
"179 288 OFFCURVE",
"204 406 CURVE SMOOTH",
"206 416 OFFCURVE",
"208 425 OFFCURVE",
"210 433 CURVE SMOOTH",
"211 439 OFFCURVE",
"216 442 OFFCURVE",
"219 442 CURVE SMOOTH",
"275 442 OFFCURVE",
"330 442 OFFCURVE",
"386 442 CURVE SMOOTH",
"387 442 OFFCURVE",
"390 446 OFFCURVE",
"390 446 CURVE",
"392 453 OFFCURVE",
"393 461 OFFCURVE",
"395 468 CURVE",
"395 470 OFFCURVE",
"394 472 OFFCURVE",
"393 472 CURVE SMOOTH",
"337 472 OFFCURVE",
"281 472 OFFCURVE",
"225 472 CURVE SMOOTH",
"219 472 OFFCURVE",
"218 476 OFFCURVE",
"219 481 CURVE SMOOTH",
"229 530 OFFCURVE",
"240 578 OFFCURVE",
"268 622 CURVE SMOOTH",
"295 664 OFFCURVE",
"338 681 OFFCURVE",
"409 681 CURVE SMOOTH",
"447 681 OFFCURVE",
"472 675 OFFCURVE",
"483 669 CURVE",
"486 668 OFFCURVE",
"488 668 OFFCURVE",
"488 670 CURVE",
"490 675 OFFCURVE",
"493 681 OFFCURVE",
"495 686 CURVE",
"495 687 OFFCURVE",
"498 689 OFFCURVE",
"494 691 CURVE SMOOTH",
"485 697 OFFCURVE",
"453 712 OFFCURVE",
"416 712 CURVE SMOOTH",
"344 712 OFFCURVE",
"288 691 OFFCURVE",
"251 650 CURVE SMOOTH",
"207 601 OFFCURVE",
"196 537 OFFCURVE",
"185 480 CURVE SMOOTH",
"184 473 OFFCURVE",
"181 472 OFFCURVE",
"176 472 CURVE SMOOTH",
"153 472 OFFCURVE",
"130 472 OFFCURVE",
"107 472 CURVE SMOOTH",
"105 472 OFFCURVE",
"102 468 OFFCURVE",
"102 468 CURVE",
"101 461 OFFCURVE",
"99 453 OFFCURVE",
"98 446 CURVE",
"98 446 OFFCURVE",
"98 442 OFFCURVE",
"100 442 CURVE SMOOTH",
"123 442 OFFCURVE",
"145 442 OFFCURVE",
"168 442 CURVE SMOOTH",
"174 442 OFFCURVE",
"176 438 OFFCURVE",
"176 433 CURVE",
"144 278 OFFCURVE",
"112 104 OFFCURVE",
"78 -80 CURVE SMOOTH",
"63 -153 OFFCURVE",
"28 -208 OFFCURVE",
"-48 -208 CURVE SMOOTH",
"-69 -208 OFFCURVE",
"-92 -203 OFFCURVE",
"-112 -195 CURVE",
"-117 -194 OFFCURVE",
"-118 -194 OFFCURVE",
"-119 -198 CURVE SMOOTH",
"-121 -205 OFFCURVE",
"-122 -211 OFFCURVE",
"-124 -218 CURVE",
"-125 -221 OFFCURVE",
"-125 -223 OFFCURVE",
"-123 -224 CURVE",
"-125 -224 OFFCURVE",
"-94 -237 OFFCURVE",
"-49 -237 CURVE SMOOTH"
);
}
);
};
layerId = "707362F1-A677-446A-8636-E10BE3A7FAFF";
paths = (
{
closed = 1;
nodes = (
"50 -237 OFFCURVE",
"92 -179 OFFCURVE",
"111 -80 CURVE SMOOTH",
"143 92 OFFCURVE",
"179 288 OFFCURVE",
"204 406 CURVE SMOOTH",
"206 416 OFFCURVE",
"208 425 OFFCURVE",
"210 433 CURVE SMOOTH",
"211 439 OFFCURVE",
"216 442 OFFCURVE",
"219 442 CURVE SMOOTH",
"275 442 OFFCURVE",
"330 442 OFFCURVE",
"386 442 CURVE SMOOTH",
"387 442 OFFCURVE",
"390 446 OFFCURVE",
"390 446 CURVE",
"392 453 OFFCURVE",
"393 461 OFFCURVE",
"395 468 CURVE",
"395 470 OFFCURVE",
"394 472 OFFCURVE",
"393 472 CURVE SMOOTH",
"337 472 OFFCURVE",
"281 472 OFFCURVE",
"225 472 CURVE SMOOTH",
"219 472 OFFCURVE",
"218 476 OFFCURVE",
"219 481 CURVE SMOOTH",
"229 530 OFFCURVE",
"240 578 OFFCURVE",
"268 622 CURVE SMOOTH",
"295 664 OFFCURVE",
"338 681 OFFCURVE",
"409 681 CURVE SMOOTH",
"447 681 OFFCURVE",
"472 675 OFFCURVE",
"483 669 CURVE",
"486 668 OFFCURVE",
"488 668 OFFCURVE",
"488 670 CURVE",
"490 675 OFFCURVE",
"493 681 OFFCURVE",
"495 686 CURVE",
"495 687 OFFCURVE",
"498 689 OFFCURVE",
"494 691 CURVE SMOOTH",
"485 697 OFFCURVE",
"453 712 OFFCURVE",
"416 712 CURVE SMOOTH",
"344 712 OFFCURVE",
"288 691 OFFCURVE",
"251 650 CURVE SMOOTH",
"207 601 OFFCURVE",
"196 537 OFFCURVE",
"185 480 CURVE SMOOTH",
"184 473 OFFCURVE",
"181 472 OFFCURVE",
"176 472 CURVE SMOOTH",
"153 472 OFFCURVE",
"130 472 OFFCURVE",
"107 472 CURVE SMOOTH",
"105 472 OFFCURVE",
"102 468 OFFCURVE",
"102 468 CURVE",
"101 461 OFFCURVE",
"99 453 OFFCURVE",
"98 446 CURVE",
"98 446 OFFCURVE",
"98 442 OFFCURVE",
"100 442 CURVE SMOOTH",
"123 442 OFFCURVE",
"145 442 OFFCURVE",
"168 442 CURVE SMOOTH",
"174 442 OFFCURVE",
"176 438 OFFCURVE",
"176 433 CURVE",
"144 278 OFFCURVE",
"112 104 OFFCURVE",
"78 -80 CURVE SMOOTH",
"63 -153 OFFCURVE",
"28 -208 OFFCURVE",
"-48 -208 CURVE SMOOTH",
"-69 -208 OFFCURVE",
"-92 -203 OFFCURVE",
"-112 -195 CURVE",
"-117 -194 OFFCURVE",
"-118 -194 OFFCURVE",
"-119 -198 CURVE SMOOTH",
"-121 -205 OFFCURVE",
"-122 -211 OFFCURVE",
"-124 -218 CURVE",
"-125 -221 OFFCURVE",
"-125 -223 OFFCURVE",
"-123 -224 CURVE",
"-125 -224 OFFCURVE",
"-94 -237 OFFCURVE",
"-49 -237 CURVE SMOOTH"
);
}
);
width = 317;
},
{
background = {
paths = (
{
closed = 1;
nodes = (
"125 -230 OFFCURVE",
"192 -157 OFFCURVE",
"215 -28 CURVE SMOOTH",
"246 145 OFFCURVE",
"246 178 OFFCURVE",
"270 296 CURVE SMOOTH",
"272 306 OFFCURVE",
"281 348 OFFCURVE",
"282 356 CURVE SMOOTH",
"283 362 OFFCURVE",
"290 366 OFFCURVE",
"293 366 CURVE SMOOTH",
"349 366 OFFCURVE",
"349 366 OFFCURVE",
"405 366 CURVE SMOOTH",
"420 366 OFFCURVE",
"424 367 OFFCURVE",
"426 382 CURVE",
"431 406 OFFCURVE",
"439 446 OFFCURVE",
"441 453 CURVE",
"445 471 OFFCURVE",
"441 472 OFFCURVE",
"431 472 CURVE SMOOTH",
"375 472 OFFCURVE",
"329 472 OFFCURVE",
"315 472 CURVE SMOOTH",
"309 472 OFFCURVE",
"308 476 OFFCURVE",
"309 481 CURVE SMOOTH",
"311 491 OFFCURVE",
"318 524 OFFCURVE",
"322 537 CURVE SMOOTH",
"337 583 OFFCURVE",
"368 608 OFFCURVE",
"405 608 CURVE SMOOTH",
"436 608 OFFCURVE",
"466 596 OFFCURVE",
"484 583 CURVE",
"492 576 OFFCURVE",
"496 577 OFFCURVE",
"506 595 CURVE",
"517 616 OFFCURVE",
"529 637 OFFCURVE",
"540 658 CURVE SMOOTH",
"546 670 OFFCURVE",
"545 676 OFFCURVE",
"529 685 CURVE SMOOTH",
"512 695 OFFCURVE",
"476 712 OFFCURVE",
"434 712 CURVE SMOOTH",
"335 712 OFFCURVE",
"271 681 OFFCURVE",
"234 640 CURVE SMOOTH",
"190 591 OFFCURVE",
"173 537 OFFCURVE",
"165 480 CURVE SMOOTH",
"164 473 OFFCURVE",
"161 472 OFFCURVE",
"156 472 CURVE SMOOTH",
"148 472 OFFCURVE",
"153 472 OFFCURVE",
"117 472 CURVE SMOOTH",
"103 472 OFFCURVE",
"99 473 OFFCURVE",
"96 455 CURVE",
"90 430 OFFCURVE",
"85 406 OFFCURVE",
"79 381 CURVE",
"76 366 OFFCURVE",
"82 366 OFFCURVE",
"91 366 CURVE SMOOTH",
"103 366 OFFCURVE",
"117 366 OFFCURVE",
"130 366 CURVE SMOOTH",
"136 366 OFFCURVE",
"139 363 OFFCURVE",
"137 355 CURVE",
"105 200 OFFCURVE",
"107 154 OFFCURVE",
"73 -30 CURVE SMOOTH",
"58 -103 OFFCURVE",
"22 -129 OFFCURVE",
"-24 -129 CURVE SMOOTH",
"-45 -129 OFFCURVE",
"-56 -130 OFFCURVE",
"-76 -122 CURVE",
"-84 -119 OFFCURVE",
"-86 -117 OFFCURVE",
"-89 -129 CURVE SMOOTH",
"-91 -136 OFFCURVE",
"-102 -191 OFFCURVE",
"-104 -198 CURVE",
"-106 -207 OFFCURVE",
"-104 -216 OFFCURVE",
"-97 -219 CURVE",
"-99 -219 OFFCURVE",
"-75 -230 OFFCURVE",
"-30 -230 CURVE SMOOTH"
);
}
);
};
layerId = "D1BC8BBB-1669-4C46-BC21-42BF6808B2B9";
paths = (
{
closed = 1;
nodes = (
"125 -230 OFFCURVE",
"192 -157 OFFCURVE",
"215 -28 CURVE SMOOTH",
"246 145 OFFCURVE",
"246 178 OFFCURVE",
"270 296 CURVE SMOOTH",
"272 306 OFFCURVE",
"281 348 OFFCURVE",
"282 356 CURVE SMOOTH",
"283 362 OFFCURVE",
"290 366 OFFCURVE",
"293 366 CURVE SMOOTH",
"349 366 OFFCURVE",
"349 366 OFFCURVE",
"405 366 CURVE SMOOTH",
"420 366 OFFCURVE",
"424 367 OFFCURVE",
"426 382 CURVE",
"431 406 OFFCURVE",
"439 446 OFFCURVE",
"441 453 CURVE",
"445 471 OFFCURVE",
"441 472 OFFCURVE",
"431 472 CURVE SMOOTH",
"375 472 OFFCURVE",
"329 472 OFFCURVE",
"315 472 CURVE SMOOTH",
"309 472 OFFCURVE",
"308 476 OFFCURVE",
"309 481 CURVE SMOOTH",
"311 491 OFFCURVE",
"318 524 OFFCURVE",
"322 537 CURVE SMOOTH",
"337 583 OFFCURVE",
"368 608 OFFCURVE",
"405 608 CURVE SMOOTH",
"436 608 OFFCURVE",
"466 596 OFFCURVE",
"484 583 CURVE",
"492 576 OFFCURVE",
"496 577 OFFCURVE",
"506 595 CURVE",
"517 616 OFFCURVE",
"529 637 OFFCURVE",
"540 658 CURVE SMOOTH",
"546 670 OFFCURVE",
"545 676 OFFCURVE",
"529 685 CURVE SMOOTH",
"512 695 OFFCURVE",
"476 712 OFFCURVE",
"434 712 CURVE SMOOTH",
"335 712 OFFCURVE",
"271 681 OFFCURVE",
"234 640 CURVE SMOOTH",
"190 591 OFFCURVE",
"173 537 OFFCURVE",
"165 480 CURVE SMOOTH",
"164 473 OFFCURVE",
"161 472 OFFCURVE",
"156 472 CURVE SMOOTH",
"148 472 OFFCURVE",
"153 472 OFFCURVE",
"117 472 CURVE SMOOTH",
"103 472 OFFCURVE",
"99 473 OFFCURVE",
"96 455 CURVE",
"90 430 OFFCURVE",
"85 406 OFFCURVE",
"79 381 CURVE",
"76 366 OFFCURVE",
"82 366 OFFCURVE",
"91 366 CURVE SMOOTH",
"103 366 OFFCURVE",
"117 366 OFFCURVE",
"130 366 CURVE SMOOTH",
"136 366 OFFCURVE",
"139 363 OFFCURVE",
"137 355 CURVE",
"105 200 OFFCURVE",
"107 154 OFFCURVE",
"73 -30 CURVE SMOOTH",
"58 -103 OFFCURVE",
"22 -129 OFFCURVE",
"-24 -129 CURVE SMOOTH",
"-45 -129 OFFCURVE",
"-56 -130 OFFCURVE",
"-76 -122 CURVE",
"-84 -119 OFFCURVE",
"-86 -117 OFFCURVE",
"-89 -129 CURVE SMOOTH",
"-91 -136 OFFCURVE",
"-102 -191 OFFCURVE",
"-104 -198 CURVE",
"-106 -207 OFFCURVE",
"-104 -216 OFFCURVE",
"-97 -219 CURVE",
"-99 -219 OFFCURVE",
"-75 -230 OFFCURVE",
"-30 -230 CURVE SMOOTH"
);
}
);
width = 367;
}
);
note = f;
rightKerningGroup = f;
unicode = 0066;
},
{
color = 0;
glyphname = g;
lastChange = "2021-04-15 21:19:23 +0000";
layers = (
{
background = {
paths = (
{
closed = 1;
nodes = (
"95 104 OFFCURVE",
"127 9 OFFCURVE",
"264 9 CURVE SMOOTH",
"305 9 OFFCURVE",
"352 19 OFFCURVE",
"389 29 CURVE SMOOTH",
"400 32 OFFCURVE",
"409 35 OFFCURVE",
"406 26 CURVE SMOOTH",
"406 23 OFFCURVE",
"404 20 OFFCURVE",
"404 18 CURVE SMOOTH",
"368 -74 OFFCURVE",
"298 -112 OFFCURVE",
"225 -112 CURVE SMOOTH",
"170 -112 OFFCURVE",
"131 -93 OFFCURVE",
"97 -73 CURVE SMOOTH",
"95 -72 OFFCURVE",
"91 -71 OFFCURVE",
"89 -74 CURVE",
"85 -79 OFFCURVE",
"81 -85 OFFCURVE",
"77 -90 CURVE",
"75 -93 OFFCURVE",
"74 -94 OFFCURVE",
"81 -100 CURVE SMOOTH",
"114 -129 OFFCURVE",
"168 -140 OFFCURVE",
"213 -140 CURVE SMOOTH",
"327 -140 OFFCURVE",
"401 -91 OFFCURVE",
"438 22 CURVE SMOOTH",
"492 183 OFFCURVE",
"514 327 OFFCURVE",
"523 415 CURVE SMOOTH",
"526 439 OFFCURVE",
"522 450 OFFCURVE",
"511 454 CURVE SMOOTH",
"477 470 OFFCURVE",
"425 478 OFFCURVE",
"374 478 CURVE SMOOTH",
"220 478 OFFCURVE",
"155 374 OFFCURVE",
"126 242 CURVE SMOOTH"
);
},
{
closed = 1;
nodes = (
"185 364 OFFCURVE",
"246 448 OFFCURVE",
"370 448 CURVE SMOOTH",
"410 448 OFFCURVE",
"456 441 OFFCURVE",
"474 432 CURVE SMOOTH",
"491 423 OFFCURVE",
"489 407 OFFCURVE",
"488 397 CURVE SMOOTH",
"479 323 OFFCURVE",
"455 178 OFFCURVE",
"427 87 CURVE SMOOTH",
"424 76 OFFCURVE",
"408 64 OFFCURVE",
"388 57 CURVE SMOOTH",
"356 46 OFFCURVE",
"316 41 OFFCURVE",
"279 41 CURVE SMOOTH",
"156 41 OFFCURVE",
"134 123 OFFCURVE",
"159 242 CURVE SMOOTH"
);
}
);
};
hints = (
{
horizontal = 1;
place = "{-103, 58}";
type = Stem;
},
{
horizontal = 1;
place = "{35, 63}";
type = Stem;
},
{
horizontal = 1;
place = "{471, 60}";
type = Stem;
},
{
place = "{81, 63}";
type = Stem;
},
{
place = "{417, 64}";
type = Stem;
}
);
layerId = "707362F1-A677-446A-8636-E10BE3A7FAFF";
paths = (
{
closed = 1;
nodes = (
"95 104 OFFCURVE",
"127 9 OFFCURVE",
"264 9 CURVE SMOOTH",
"305 9 OFFCURVE",
"352 19 OFFCURVE",
"389 29 CURVE SMOOTH",
"400 32 OFFCURVE",
"409 35 OFFCURVE",
"406 26 CURVE SMOOTH",
"406 23 OFFCURVE",
"404 20 OFFCURVE",
"404 18 CURVE SMOOTH",
"368 -74 OFFCURVE",
"298 -112 OFFCURVE",
"225 -112 CURVE SMOOTH",
"170 -112 OFFCURVE",
"131 -93 OFFCURVE",
"97 -73 CURVE SMOOTH",
"95 -72 OFFCURVE",
"91 -71 OFFCURVE",
"89 -74 CURVE",
"85 -79 OFFCURVE",
"81 -85 OFFCURVE",
"77 -90 CURVE",
"75 -93 OFFCURVE",
"74 -94 OFFCURVE",
"81 -100 CURVE SMOOTH",
"114 -129 OFFCURVE",
"168 -140 OFFCURVE",
"213 -140 CURVE SMOOTH",
"327 -140 OFFCURVE",
"401 -91 OFFCURVE",
"438 22 CURVE SMOOTH",
"492 183 OFFCURVE",
"514 327 OFFCURVE",
"523 415 CURVE SMOOTH",
"526 439 OFFCURVE",
"522 450 OFFCURVE",
"511 454 CURVE SMOOTH",
"477 470 OFFCURVE",
"425 478 OFFCURVE",
"374 478 CURVE SMOOTH",
"220 478 OFFCURVE",
"155 374 OFFCURVE",
"126 242 CURVE SMOOTH"
);
},
{
closed = 1;
nodes = (
"185 364 OFFCURVE",
"246 448 OFFCURVE",
"370 448 CURVE SMOOTH",
"410 448 OFFCURVE",
"456 441 OFFCURVE",
"474 432 CURVE SMOOTH",
"491 423 OFFCURVE",
"489 407 OFFCURVE",
"488 397 CURVE SMOOTH",
"479 323 OFFCURVE",
"455 178 OFFCURVE",
"427 87 CURVE SMOOTH",
"424 76 OFFCURVE",
"408 64 OFFCURVE",
"388 57 CURVE SMOOTH",
"356 46 OFFCURVE",
"316 41 OFFCURVE",
"279 41 CURVE SMOOTH",
"156 41 OFFCURVE",
"134 123 OFFCURVE",
"159 242 CURVE SMOOTH"
);
}
);
width = 517;
},
{
background = {
paths = (
{
closed = 1;
nodes = (
"79 105 OFFCURVE",
"170 45 OFFCURVE",
"272 45 CURVE SMOOTH",
"287 45 OFFCURVE",
"304 46 OFFCURVE",
"311 47 CURVE SMOOTH",
"324 49 OFFCURVE",
"324 40 OFFCURVE",
"322 31 CURVE SMOOTH",
"321 29 OFFCURVE",
"320 28 OFFCURVE",
"320 27 CURVE SMOOTH",
"304 -17 OFFCURVE",
"255 -21 OFFCURVE",
"232 -21 CURVE SMOOTH",
"209 -21 OFFCURVE",
"153 1 OFFCURVE",
"138 14 CURVE SMOOTH",
"124 25 OFFCURVE",
"122 24 OFFCURVE",
"107 6 CURVE SMOOTH",
"98 -5 OFFCURVE",
"72 -38 OFFCURVE",
"64 -48 CURVE SMOOTH",
"54 -59 OFFCURVE",
"60 -71 OFFCURVE",
"64 -75 CURVE SMOOTH",
"111 -115 OFFCURVE",
"172 -127 OFFCURVE",
"223 -127 CURVE SMOOTH",
"349 -127 OFFCURVE",
"436 -74 OFFCURVE",
"476 42 CURVE SMOOTH",
"514 153 OFFCURVE",
"541 281 OFFCURVE",
"552 394 CURVE SMOOTH",
"555 430 OFFCURVE",
"558 440 OFFCURVE",
"523 454 CURVE SMOOTH",
"487 469 OFFCURVE",
"435 478 OFFCURVE",
"382 478 CURVE SMOOTH",
"206 478 OFFCURVE",
"137 378 OFFCURVE",
"108 242 CURVE SMOOTH"
);
},
{
closed = 1;
nodes = (
"282 335 OFFCURVE",
"306 383 OFFCURVE",
"354 383 CURVE SMOOTH",
"375 383 OFFCURVE",
"384 380 OFFCURVE",
"394 375 CURVE SMOOTH",
"398 373 OFFCURVE",
"399 360 OFFCURVE",
"397 354 CURVE SMOOTH",
"394 328 OFFCURVE",
"374 221 OFFCURVE",
"361 176 CURVE SMOOTH",
"358 165 OFFCURVE",
"354 160 OFFCURVE",
"346 157 CURVE SMOOTH",
"334 152 OFFCURVE",
"320 151 OFFCURVE",
"305 151 CURVE SMOOTH",
"255 151 OFFCURVE",
"253 201 OFFCURVE",
"267 267 CURVE SMOOTH"
);
}
);
};
layerId = "D1BC8BBB-1669-4C46-BC21-42BF6808B2B9";
paths = (
{
closed = 1;
nodes = (
"79 105 OFFCURVE",
"170 45 OFFCURVE",
"272 45 CURVE SMOOTH",
"287 45 OFFCURVE",
"304 46 OFFCURVE",
"311 47 CURVE SMOOTH",
"324 49 OFFCURVE",
"324 40 OFFCURVE",
"322 31 CURVE SMOOTH",
"321 29 OFFCURVE",
"320 28 OFFCURVE",
"320 27 CURVE SMOOTH",
"304 -17 OFFCURVE",
"255 -21 OFFCURVE",
"232 -21 CURVE SMOOTH",
"209 -21 OFFCURVE",
"153 1 OFFCURVE",
"138 14 CURVE SMOOTH",
"124 25 OFFCURVE",
"122 24 OFFCURVE",
"107 6 CURVE SMOOTH",
"98 -5 OFFCURVE",
"72 -38 OFFCURVE",
"64 -48 CURVE SMOOTH",
"54 -59 OFFCURVE",
"60 -71 OFFCURVE",
"64 -75 CURVE SMOOTH",
"111 -115 OFFCURVE",
"172 -127 OFFCURVE",
"223 -127 CURVE SMOOTH",
"349 -127 OFFCURVE",
"436 -74 OFFCURVE",
"476 42 CURVE SMOOTH",
"514 153 OFFCURVE",
"541 281 OFFCURVE",
"552 394 CURVE SMOOTH",
"555 430 OFFCURVE",
"558 440 OFFCURVE",
"523 454 CURVE SMOOTH",
"487 469 OFFCURVE",
"435 478 OFFCURVE",
"382 478 CURVE SMOOTH",
"206 478 OFFCURVE",
"137 378 OFFCURVE",
"108 242 CURVE SMOOTH"
);
},
{
closed = 1;
nodes = (
"282 335 OFFCURVE",
"306 383 OFFCURVE",
"354 383 CURVE SMOOTH",
"375 383 OFFCURVE",
"384 380 OFFCURVE",
"394 375 CURVE SMOOTH",
"398 373 OFFCURVE",
"399 360 OFFCURVE",
"397 354 CURVE SMOOTH",
"394 328 OFFCURVE",
"374 221 OFFCURVE",
"361 176 CURVE SMOOTH",
"358 165 OFFCURVE",
"354 160 OFFCURVE",
"346 157 CURVE SMOOTH",
"334 152 OFFCURVE",
"320 151 OFFCURVE",
"305 151 CURVE SMOOTH",
"255 151 OFFCURVE",
"253 201 OFFCURVE",
"267 267 CURVE SMOOTH"
);
}
);
width = 527;
}
);
leftKerningGroup = o;
note = g;
rightMetricsKey = a;
unicode = 0067;
},
{
glyphname = h;
lastChange = "2021-04-15 21:19:23 +0000";
layers = (
{
background = {
paths = (
{
closed = 1;
nodes = (
"80 1 OFFCURVE",
"81 0 OFFCURVE",
"84 0 CURVE SMOOTH",
"109 0 LINE SMOOTH",
"112 0 OFFCURVE",
"113 1 OFFCURVE",
"114 4 CURVE SMOOTH",
"198 401 LINE SMOOTH",
"202 419 OFFCURVE",
"212 424 OFFCURVE",
"222 426 CURVE SMOOTH",
"262 435 OFFCURVE",
"312 444 OFFCURVE",
"345 444 CURVE SMOOTH",
"410 444 OFFCURVE",
"478 414 OFFCURVE",
"439 230 CURVE SMOOTH",
"423 157 OFFCURVE",
"403 74 OFFCURVE",
"382 7 CURVE SMOOTH",
"381 1 OFFCURVE",
"382 0 OFFCURVE",
"388 0 CURVE SMOOTH",
"393 0 OFFCURVE",
"399 0 OFFCURVE",
"404 0 CURVE SMOOTH",
"410 0 OFFCURVE",
"413 1 OFFCURVE",
"414 5 CURVE SMOOTH",
"434 70 OFFCURVE",
"456 156 OFFCURVE",
"472 230 CURVE SMOOTH",
"515 433 OFFCURVE",
"437 476 OFFCURVE",
"352 476 CURVE SMOOTH",
"306 476 OFFCURVE",
"263 465 OFFCURVE",
"221 454 CURVE SMOOTH",
"210 451 OFFCURVE",
"210 455 OFFCURVE",
"211 463 CURVE SMOOTH",
"228 543 OFFCURVE",
"246 624 OFFCURVE",
"263 704 CURVE SMOOTH",
"263 707 OFFCURVE",
"262 708 OFFCURVE",
"259 708 CURVE SMOOTH",
"251 708 OFFCURVE",
"242 708 OFFCURVE",
"234 708 CURVE SMOOTH",
"231 708 OFFCURVE",
"230 707 OFFCURVE",
"230 704 CURVE SMOOTH",
"180 471 OFFCURVE",
"130 237 OFFCURVE",
"81 4 CURVE SMOOTH"
);
}
);
};
hints = (
{
horizontal = 1;
place = "{4, 21}";
target = up;
type = BottomGhost;
},
{
horizontal = 1;
place = "{453, 30}";
type = Stem;
},
{
place = "{60, 33}";
type = Stem;
},
{
place = "{374, 33}";
type = Stem;
}
);
layerId = "707362F1-A677-446A-8636-E10BE3A7FAFF";
paths = (
{
closed = 1;
nodes = (
"80 1 OFFCURVE",
"81 0 OFFCURVE",
"84 0 CURVE SMOOTH",
"109 0 LINE SMOOTH",
"112 0 OFFCURVE",
"113 1 OFFCURVE",
"114 4 CURVE SMOOTH",
"198 401 LINE SMOOTH",
"202 419 OFFCURVE",
"212 424 OFFCURVE",
"222 426 CURVE SMOOTH",
"262 435 OFFCURVE",
"312 444 OFFCURVE",
"345 444 CURVE SMOOTH",
"410 444 OFFCURVE",
"478 414 OFFCURVE",
"439 230 CURVE SMOOTH",
"423 157 OFFCURVE",
"403 74 OFFCURVE",
"382 7 CURVE SMOOTH",
"381 1 OFFCURVE",
"382 0 OFFCURVE",
"388 0 CURVE SMOOTH",
"393 0 OFFCURVE",
"399 0 OFFCURVE",
"404 0 CURVE SMOOTH",
"410 0 OFFCURVE",
"413 1 OFFCURVE",
"414 5 CURVE SMOOTH",
"434 70 OFFCURVE",
"456 156 OFFCURVE",
"472 230 CURVE SMOOTH",
"515 433 OFFCURVE",
"437 476 OFFCURVE",
"352 476 CURVE SMOOTH",
"306 476 OFFCURVE",
"263 465 OFFCURVE",
"221 454 CURVE SMOOTH",
"210 451 OFFCURVE",
"210 455 OFFCURVE",
"211 463 CURVE SMOOTH",
"228 543 OFFCURVE",
"246 624 OFFCURVE",
"263 704 CURVE SMOOTH",
"263 707 OFFCURVE",
"262 708 OFFCURVE",
"259 708 CURVE SMOOTH",
"251 708 OFFCURVE",
"242 708 OFFCURVE",
"234 708 CURVE SMOOTH",
"231 708 OFFCURVE",
"230 707 OFFCURVE",
"230 704 CURVE SMOOTH",
"180 471 OFFCURVE",
"130 237 OFFCURVE",
"81 4 CURVE SMOOTH"
);
}
);
width = 503;
},
{
background = {
paths = (
{
closed = 1;
nodes = (
"41 6 OFFCURVE",
"46 0 OFFCURVE",
"56 0 CURVE SMOOTH",
"173 0 LINE SMOOTH",
"181 0 OFFCURVE",
"188 6 OFFCURVE",
"190 14 CURVE SMOOTH",
"261 347 LINE SMOOTH",
"263 358 OFFCURVE",
"270 365 OFFCURVE",
"278 368 CURVE SMOOTH",
"285 371 OFFCURVE",
"292 372 OFFCURVE",
"299 372 CURVE SMOOTH",
"367 372 OFFCURVE",
"350 294 OFFCURVE",
"326 190 CURVE SMOOTH",
"313 135 OFFCURVE",
"297 78 OFFCURVE",
"280 27 CURVE",
"269 0 OFFCURVE",
"267 0 OFFCURVE",
"291 0 CURVE SMOOTH",
"327 0 OFFCURVE",
"363 0 OFFCURVE",
"399 0 CURVE SMOOTH",
"410 0 OFFCURVE",
"417 1 OFFCURVE",
"420 11 CURVE",
"442 65 OFFCURVE",
"473 163 OFFCURVE",
"488 249 CURVE SMOOTH",
"516 407 OFFCURVE",
"491 479 OFFCURVE",
"362 479 CURVE SMOOTH",
"340 479 OFFCURVE",
"307 473 OFFCURVE",
"300 471 CURVE SMOOTH",
"293 468 OFFCURVE",
"286 468 OFFCURVE",
"289 480 CURVE SMOOTH",
"304 551 OFFCURVE",
"319 623 OFFCURVE",
"335 694 CURVE SMOOTH",
"336 702 OFFCURVE",
"331 708 OFFCURVE",
"323 708 CURVE SMOOTH",
"284 708 OFFCURVE",
"245 708 OFFCURVE",
"206 708 CURVE SMOOTH",
"196 708 OFFCURVE",
"189 702 OFFCURVE",
"188 694 CURVE SMOOTH",
"139 467 OFFCURVE",
"91 241 OFFCURVE",
"43 14 CURVE SMOOTH"
);
}
);
};
layerId = "D1BC8BBB-1669-4C46-BC21-42BF6808B2B9";
paths = (
{
closed = 1;
nodes = (
"41 6 OFFCURVE",
"46 0 OFFCURVE",
"56 0 CURVE SMOOTH",
"173 0 LINE SMOOTH",
"181 0 OFFCURVE",
"188 6 OFFCURVE",
"190 14 CURVE SMOOTH",
"261 347 LINE SMOOTH",
"263 358 OFFCURVE",
"270 365 OFFCURVE",
"278 368 CURVE SMOOTH",
"285 371 OFFCURVE",
"292 372 OFFCURVE",
"299 372 CURVE SMOOTH",
"367 372 OFFCURVE",
"350 294 OFFCURVE",
"326 190 CURVE SMOOTH",
"313 135 OFFCURVE",
"297 78 OFFCURVE",
"280 27 CURVE",
"269 0 OFFCURVE",
"267 0 OFFCURVE",
"291 0 CURVE SMOOTH",
"327 0 OFFCURVE",
"363 0 OFFCURVE",
"399 0 CURVE SMOOTH",
"410 0 OFFCURVE",
"417 1 OFFCURVE",
"420 11 CURVE",
"442 65 OFFCURVE",
"473 163 OFFCURVE",
"488 249 CURVE SMOOTH",
"516 407 OFFCURVE",
"491 479 OFFCURVE",
"362 479 CURVE SMOOTH",
"340 479 OFFCURVE",
"307 473 OFFCURVE",
"300 471 CURVE SMOOTH",
"293 468 OFFCURVE",
"286 468 OFFCURVE",
"289 480 CURVE SMOOTH",
"304 551 OFFCURVE",
"319 623 OFFCURVE",
"335 694 CURVE SMOOTH",
"336 702 OFFCURVE",
"331 708 OFFCURVE",
"323 708 CURVE SMOOTH",
"284 708 OFFCURVE",
"245 708 OFFCURVE",
"206 708 CURVE SMOOTH",
"196 708 OFFCURVE",
"189 702 OFFCURVE",
"188 694 CURVE SMOOTH",
"139 467 OFFCURVE",
"91 241 OFFCURVE",
"43 14 CURVE SMOOTH"
);
}
);
width = 476;
}
);
leftKerningGroup = b;
leftMetricsKey = n;
note = h;
rightMetricsKey = n;
unicode = 0068;
},
{
glyphname = i;
lastChange = "2021-03-18 01:37:46 +0000";
layers = (
{
background = {
paths = (
{
closed = 1;
nodes = (
"256 617 OFFCURVE",
"256 624 OFFCURVE",
"236 624 CURVE SMOOTH",
"217 624 OFFCURVE",
"211 617 OFFCURVE",
"208 603 CURVE SMOOTH",
"205 588 OFFCURVE",
"208 582 OFFCURVE",
"227 582 CURVE SMOOTH",
"247 582 OFFCURVE",
"250 588 OFFCURVE",
"253 603 CURVE SMOOTH"
);
},
{
closed = 1;
nodes = (
"219 468 LINE SMOOTH",
"220 471 OFFCURVE",
"218 472 OFFCURVE",
"217 472 CURVE SMOOTH",
"191 472 LINE SMOOTH",
"188 472 OFFCURVE",
"187 471 OFFCURVE",
"186 468 CURVE SMOOTH",
"88 4 LINE SMOOTH",
"87 1 OFFCURVE",
"88 0 OFFCURVE",
"91 0 CURVE SMOOTH",
"117 0 LINE SMOOTH",
"118 0 OFFCURVE",
"120 1 OFFCURVE",
"121 4 CURVE SMOOTH"
);
}
);
};
hints = (
{
horizontal = 1;
place = "{4, 21}";
target = up;
type = BottomGhost;
},
{
horizontal = 1;
place = "{472, -20}";
target = down;
type = TopGhost;
},
{
horizontal = 1;
place = "{583, 40}";
type = Stem;
},
{
place = "{87, 33}";
type = Stem;
}
);
layerId = "707362F1-A677-446A-8636-E10BE3A7FAFF";
paths = (
{
closed = 1;
nodes = (
"256 617 OFFCURVE",
"256 624 OFFCURVE",
"236 624 CURVE SMOOTH",
"217 624 OFFCURVE",
"211 617 OFFCURVE",
"208 603 CURVE SMOOTH",
"205 588 OFFCURVE",
"208 582 OFFCURVE",
"227 582 CURVE SMOOTH",
"247 582 OFFCURVE",
"250 588 OFFCURVE",
"253 603 CURVE SMOOTH"
);
},
{
closed = 1;
nodes = (
"219 468 LINE SMOOTH",
"220 471 OFFCURVE",
"218 472 OFFCURVE",
"217 472 CURVE SMOOTH",
"191 472 LINE SMOOTH",
"188 472 OFFCURVE",
"187 471 OFFCURVE",
"186 468 CURVE SMOOTH",
"88 4 LINE SMOOTH",
"87 1 OFFCURVE",
"88 0 OFFCURVE",
"91 0 CURVE SMOOTH",
"117 0 LINE SMOOTH",
"118 0 OFFCURVE",
"120 1 OFFCURVE",
"121 4 CURVE SMOOTH"
);
}
);
width = 197;
},
{
background = {
paths = (
{
closed = 1;
nodes = (
"329 640 OFFCURVE",
"324 667 OFFCURVE",
"259 667 CURVE SMOOTH",
"200 667 OFFCURVE",
"176 640 OFFCURVE",
"168 601 CURVE SMOOTH",
"158 556 OFFCURVE",
"171 532 OFFCURVE",
"230 532 CURVE SMOOTH",
"291 532 OFFCURVE",
"311 556 OFFCURVE",
"321 601 CURVE SMOOTH"
);
},
{
closed = 1;
nodes = (
"287 458 LINE SMOOTH",
"289 466 OFFCURVE",
"283 472 OFFCURVE",
"275 472 CURVE SMOOTH",
"158 472 LINE SMOOTH",
"150 472 OFFCURVE",
"143 466 OFFCURVE",
"141 458 CURVE SMOOTH",
"47 14 LINE SMOOTH",
"45 6 OFFCURVE",
"50 0 OFFCURVE",
"58 0 CURVE SMOOTH",
"175 0 LINE SMOOTH",
"183 0 OFFCURVE",
"191 6 OFFCURVE",
"193 14 CURVE SMOOTH"
);
}
);
};
layerId = "D1BC8BBB-1669-4C46-BC21-42BF6808B2B9";
paths = (
{
closed = 1;
nodes = (
"329 640 OFFCURVE",
"324 667 OFFCURVE",
"259 667 CURVE SMOOTH",
"200 667 OFFCURVE",
"176 640 OFFCURVE",
"168 601 CURVE SMOOTH",
"158 556 OFFCURVE",
"171 532 OFFCURVE",
"230 532 CURVE SMOOTH",
"291 532 OFFCURVE",
"311 556 OFFCURVE",
"321 601 CURVE SMOOTH"
);
},
{
closed = 1;
nodes = (
"287 458 LINE SMOOTH",
"289 466 OFFCURVE",
"283 472 OFFCURVE",
"275 472 CURVE SMOOTH",
"158 472 LINE SMOOTH",
"150 472 OFFCURVE",
"143 466 OFFCURVE",
"141 458 CURVE SMOOTH",
"47 14 LINE SMOOTH",
"45 6 OFFCURVE",
"50 0 OFFCURVE",
"58 0 CURVE SMOOTH",
"175 0 LINE SMOOTH",
"183 0 OFFCURVE",
"191 6 OFFCURVE",
"193 14 CURVE SMOOTH"
);
}
);
width = 242;
}
);
leftMetricsKey = n;
note = i;
rightMetricsKey = d;
unicode = 0069;
},
{
color = 0;
glyphname = j;
lastChange = "2021-03-18 01:38:03 +0000";
layers = (
{
background = {
paths = (
{
closed = 1;
nodes = (
"-105 -77 OFFCURVE",
"-88 -84 OFFCURVE",
"-84 -85 CURVE SMOOTH",
"-66 -91 OFFCURVE",
"-40 -94 OFFCURVE",
"-17 -94 CURVE SMOOTH",
"84 -94 OFFCURVE",
"123 -37 OFFCURVE",
"144 63 CURVE SMOOTH",
"230 468 LINE SMOOTH",
"231 471 OFFCURVE",
"228 472 OFFCURVE",
"227 472 CURVE SMOOTH",
"201 472 LINE SMOOTH",
"199 472 OFFCURVE",
"198 471 OFFCURVE",
"197 468 CURVE SMOOTH",
"111 63 LINE SMOOTH",
"94 -21 OFFCURVE",
"67 -65 OFFCURVE",
"-15 -65 CURVE SMOOTH",
"-37 -65 OFFCURVE",
"-62 -60 OFFCURVE",
"-80 -52 CURVE SMOOTH",
"-84 -50 OFFCURVE",
"-86 -51 OFFCURVE",
"-89 -55 CURVE SMOOTH",
"-98 -68 LINE SMOOTH"
);
},
{
closed = 1;
nodes = (
"268 617 OFFCURVE",
"267 624 OFFCURVE",
"247 624 CURVE SMOOTH",
"228 624 OFFCURVE",
"223 617 OFFCURVE",
"220 603 CURVE SMOOTH",
"217 588 OFFCURVE",
"219 582 OFFCURVE",
"238 582 CURVE SMOOTH",
"258 582 OFFCURVE",
"262 588 OFFCURVE",
"265 603 CURVE SMOOTH"
);
}
);
};
hints = (
{
horizontal = 1;
place = "{-74, 49}";
type = Stem;
},
{
horizontal = 1;
place = "{492, -20}";
target = down;
type = TopGhost;
},
{
horizontal = 1;
place = "{603, 60}";
type = Stem;
},
{
place = "{198, 61}";
type = Stem;
},
{
place = "{203, 53}";
type = Stem;
},
{
horizontal = 1;
place = "{-61, 49}";
type = Stem;
}
);
layerId = "707362F1-A677-446A-8636-E10BE3A7FAFF";
paths = (
{
closed = 1;
nodes = (
"76 -127 OFFCURVE",
"115 -70 OFFCURVE",
"136 30 CURVE SMOOTH",
"230 468 LINE SMOOTH",
"231 471 OFFCURVE",
"228 472 OFFCURVE",
"227 472 CURVE SMOOTH",
"201 472 LINE SMOOTH",
"199 472 OFFCURVE",
"198 471 OFFCURVE",
"197 468 CURVE SMOOTH",
"103 30 LINE SMOOTH",
"85 -53 OFFCURVE",
"59 -98 OFFCURVE",
"-23 -98 CURVE SMOOTH",
"-45 -98 OFFCURVE",
"-70 -93 OFFCURVE",
"-88 -85 CURVE SMOOTH",
"-92 -83 OFFCURVE",
"-94 -84 OFFCURVE",
"-97 -88 CURVE SMOOTH",
"-106 -101 LINE SMOOTH",
"-109 -106 OFFCURVE",
"-108 -109 OFFCURVE",
"-100 -114 CURVE SMOOTH",
"-86 -123 OFFCURVE",
"-48 -127 OFFCURVE",
"-25 -127 CURVE SMOOTH"
);
},
{
closed = 1;
nodes = (
"258 582 OFFCURVE",
"262 588 OFFCURVE",
"265 603 CURVE SMOOTH",
"268 617 OFFCURVE",
"267 624 OFFCURVE",
"247 624 CURVE SMOOTH",
"228 624 OFFCURVE",
"223 617 OFFCURVE",
"220 603 CURVE SMOOTH",
"217 588 OFFCURVE",
"219 582 OFFCURVE",
"238 582 CURVE SMOOTH"
);
}
);
width = 209;
},
{
background = {
paths = (
{
closed = 1;
nodes = (
"-87 -44 OFFCURVE",
"-86 -48 OFFCURVE",
"-65 -63 CURVE SMOOTH",
"-42 -78 OFFCURVE",
"-5 -86 OFFCURVE",
"32 -86 CURVE SMOOTH",
"148 -86 OFFCURVE",
"200 -22 OFFCURVE",
"222 84 CURVE SMOOTH",
"302 458 LINE SMOOTH",
"303 466 OFFCURVE",
"298 472 OFFCURVE",
"290 472 CURVE SMOOTH",
"173 472 LINE SMOOTH",
"165 472 OFFCURVE",
"157 466 OFFCURVE",
"156 458 CURVE SMOOTH",
"76 84 LINE SMOOTH",
"67 40 OFFCURVE",
"35 14 OFFCURVE",
"14 12 CURVE SMOOTH",
"5 11 OFFCURVE",
"-6 14 OFFCURVE",
"-16 20 CURVE SMOOTH",
"-25 25 OFFCURVE",
"-32 29 OFFCURVE",
"-40 18 CURVE SMOOTH",
"-76 -31 LINE SMOOTH"
);
},
{
closed = 1;
nodes = (
"342 640 OFFCURVE",
"337 667 OFFCURVE",
"272 667 CURVE SMOOTH",
"213 667 OFFCURVE",
"189 640 OFFCURVE",
"181 601 CURVE SMOOTH",
"171 556 OFFCURVE",
"184 532 OFFCURVE",
"243 532 CURVE SMOOTH",
"304 532 OFFCURVE",
"324 556 OFFCURVE",
"334 601 CURVE SMOOTH"
);
}
);
};
layerId = "D1BC8BBB-1669-4C46-BC21-42BF6808B2B9";
paths = (
{
closed = 1;
nodes = (
"138 -127 OFFCURVE",
"192 -63 OFFCURVE",
"214 43 CURVE SMOOTH",
"302 458 LINE SMOOTH",
"304 466 OFFCURVE",
"298 472 OFFCURVE",
"290 472 CURVE SMOOTH",
"173 472 LINE SMOOTH",
"165 472 OFFCURVE",
"158 466 OFFCURVE",
"156 458 CURVE SMOOTH",
"67 43 LINE SMOOTH",
"58 -1 OFFCURVE",
"25 -27 OFFCURVE",
"4 -29 CURVE SMOOTH",
"-5 -30 OFFCURVE",
"-16 -27 OFFCURVE",
"-26 -21 CURVE SMOOTH",
"-35 -16 OFFCURVE",
"-42 -12 OFFCURVE",
"-50 -23 CURVE SMOOTH",
"-87 -71 LINE SMOOTH",
"-97 -85 OFFCURVE",
"-96 -89 OFFCURVE",
"-75 -104 CURVE SMOOTH",
"-52 -119 OFFCURVE",
"-15 -127 OFFCURVE",
"22 -127 CURVE SMOOTH"
);
},
{
closed = 1;
nodes = (
"304 532 OFFCURVE",
"324 556 OFFCURVE",
"334 601 CURVE SMOOTH",
"342 640 OFFCURVE",
"337 667 OFFCURVE",
"272 667 CURVE SMOOTH",
"213 667 OFFCURVE",
"189 640 OFFCURVE",
"181 601 CURVE SMOOTH",
"171 556 OFFCURVE",
"184 532 OFFCURVE",
"243 532 CURVE SMOOTH"
);
}
);
width = 255;
}
);
note = j;
rightMetricsKey = d;
unicode = 006A;
},
{
glyphname = k;
lastChange = "2021-03-18 01:19:45 +0000";
layers = (
{
background = {
paths = (
{
closed = 1;
nodes = (
"80 1 OFFCURVE",
"81 0 OFFCURVE",
"84 0 CURVE SMOOTH",
"109 0 LINE SMOOTH",
"112 0 OFFCURVE",
"113 1 OFFCURVE",
"114 4 CURVE SMOOTH",
"164 240 LINE SMOOTH",
"165 243 OFFCURVE",
"168 247 OFFCURVE",
"172 247 CURVE SMOOTH",
"257 247 OFFCURVE",
"268 246 OFFCURVE",
"278 230 CURVE SMOOTH",
"324 164 OFFCURVE",
"348 7 OFFCURVE",
"348 7 CURVE",
"351 -1 OFFCURVE",
"351 0 OFFCURVE",
"356 0 CURVE SMOOTH",
"365 0 OFFCURVE",
"374 0 OFFCURVE",
"383 0 CURVE SMOOTH",
"388 0 OFFCURVE",
"389 4 OFFCURVE",
"388 8 CURVE SMOOTH",
"386 14 OFFCURVE",
"349 195 OFFCURVE",
"306 255 CURVE SMOOTH",
"305 257 OFFCURVE",
"302 260 OFFCURVE",
"301 262 CURVE",
"306 267 OFFCURVE",
"311 272 OFFCURVE",
"317 277 CURVE SMOOTH",
"391 351 OFFCURVE",
"465 466 OFFCURVE",
"465 466 CURVE",
"468 471 OFFCURVE",
"466 472 OFFCURVE",
"462 472 CURVE SMOOTH",
"436 472 LINE SMOOTH",
"432 472 OFFCURVE",
"430 471 OFFCURVE",
"427 465 CURVE",
"396 415 OFFCURVE",
"339 335 OFFCURVE",
"284 286 CURVE SMOOTH",
"271 275 OFFCURVE",
"267 275 OFFCURVE",
"254 275 CURVE SMOOTH",
"228 275 OFFCURVE",
"203 275 OFFCURVE",
"177 275 CURVE SMOOTH",
"172 275 OFFCURVE",
"172 278 OFFCURVE",
"173 281 CURVE SMOOTH",
"263 704 LINE SMOOTH",
"263 707 OFFCURVE",
"262 708 OFFCURVE",
"259 708 CURVE SMOOTH",
"234 708 LINE SMOOTH",
"231 708 OFFCURVE",
"230 707 OFFCURVE",
"230 704 CURVE SMOOTH",
"81 4 LINE SMOOTH"
);
}
);
};
hints = (
{
horizontal = 1;
place = "{4, 21}";
target = up;
type = BottomGhost;
},
{
horizontal = 1;
place = "{247, 28}";
type = Stem;
},
{
horizontal = 1;
place = "{472, -20}";
target = down;
type = TopGhost;
},
{
place = "{60, 33}";
type = Stem;
}
);
layerId = "707362F1-A677-446A-8636-E10BE3A7FAFF";
paths = (
{
closed = 1;
nodes = (
"80 1 OFFCURVE",
"81 0 OFFCURVE",
"84 0 CURVE SMOOTH",
"109 0 LINE SMOOTH",
"112 0 OFFCURVE",
"113 1 OFFCURVE",
"114 4 CURVE SMOOTH",
"164 240 LINE SMOOTH",
"165 243 OFFCURVE",
"168 247 OFFCURVE",
"172 247 CURVE SMOOTH",
"257 247 OFFCURVE",
"268 246 OFFCURVE",
"278 230 CURVE SMOOTH",
"324 164 OFFCURVE",
"348 7 OFFCURVE",
"348 7 CURVE",
"351 -1 OFFCURVE",
"351 0 OFFCURVE",
"356 0 CURVE SMOOTH",
"365 0 OFFCURVE",
"374 0 OFFCURVE",
"383 0 CURVE SMOOTH",
"388 0 OFFCURVE",
"389 4 OFFCURVE",
"388 8 CURVE SMOOTH",
"386 14 OFFCURVE",
"349 195 OFFCURVE",
"306 255 CURVE SMOOTH",
"305 257 OFFCURVE",
"302 260 OFFCURVE",
"301 262 CURVE",
"306 267 OFFCURVE",
"311 272 OFFCURVE",
"317 277 CURVE SMOOTH",
"391 351 OFFCURVE",
"465 466 OFFCURVE",
"465 466 CURVE",
"468 471 OFFCURVE",
"466 472 OFFCURVE",
"462 472 CURVE SMOOTH",
"436 472 LINE SMOOTH",
"432 472 OFFCURVE",
"430 471 OFFCURVE",
"427 465 CURVE",
"396 415 OFFCURVE",
"339 335 OFFCURVE",
"284 286 CURVE SMOOTH",
"271 275 OFFCURVE",
"267 275 OFFCURVE",
"254 275 CURVE SMOOTH",
"228 275 OFFCURVE",
"203 275 OFFCURVE",
"177 275 CURVE SMOOTH",
"172 275 OFFCURVE",
"172 278 OFFCURVE",
"173 281 CURVE SMOOTH",
"263 704 LINE SMOOTH",
"263 707 OFFCURVE",
"262 708 OFFCURVE",
"259 708 CURVE SMOOTH",
"234 708 LINE SMOOTH",
"231 708 OFFCURVE",
"230 707 OFFCURVE",
"230 704 CURVE SMOOTH",
"81 4 LINE SMOOTH"
);
}
);
width = 422;
},
{
background = {
paths = (
{
closed = 1;
nodes = (
"40 1 OFFCURVE",
"41 0 OFFCURVE",
"44 0 CURVE SMOOTH",
"183 0 LINE SMOOTH",
"186 0 OFFCURVE",
"187 1 OFFCURVE",
"188 4 CURVE SMOOTH",
"226 185 LINE SMOOTH",
"228 193 OFFCURVE",
"229 198 OFFCURVE",
"232 201 CURVE SMOOTH",
"243 214 OFFCURVE",
"255 183 OFFCURVE",
"259 168 CURVE SMOOTH",
"266 144 OFFCURVE",
"311 7 OFFCURVE",
"311 7 CURVE",
"314 -1 OFFCURVE",
"314 0 OFFCURVE",
"319 0 CURVE SMOOTH",
"328 0 OFFCURVE",
"448 0 OFFCURVE",
"457 0 CURVE SMOOTH",
"462 0 OFFCURVE",
"463 4 OFFCURVE",
"462 8 CURVE SMOOTH",
"460 14 OFFCURVE",
"426 197 OFFCURVE",
"380 255 CURVE SMOOTH",
"379 257 OFFCURVE",
"371 260 OFFCURVE",
"370 262 CURVE",
"375 267 OFFCURVE",
"378 270 OFFCURVE",
"386 277 CURVE SMOOTH",
"455 343 OFFCURVE",
"519 441 OFFCURVE",
"527 455 CURVE",
"530 460 OFFCURVE",
"535 472 OFFCURVE",
"522 472 CURVE SMOOTH",
"404 472 LINE SMOOTH",
"385 472 OFFCURVE",
"380 472 OFFCURVE",
"371 458 CURVE SMOOTH",
"341 408 OFFCURVE",
"323 383 OFFCURVE",
"290 343 CURVE SMOOTH",
"279 330 OFFCURVE",
"275 326 OFFCURVE",
"264 317 CURVE SMOOTH",
"262 315 OFFCURVE",
"257 312 OFFCURVE",
"255 312 CURVE SMOOTH",
"253 312 OFFCURVE",
"255 320 OFFCURVE",
"256 323 CURVE SMOOTH",
"330 674 LINE SMOOTH",
"331 677 OFFCURVE",
"330 678 OFFCURVE",
"327 678 CURVE SMOOTH",
"188 678 LINE SMOOTH",
"185 678 OFFCURVE",
"184 677 OFFCURVE",
"183 674 CURVE SMOOTH",
"41 4 LINE SMOOTH"
);
}
);
};
layerId = "D1BC8BBB-1669-4C46-BC21-42BF6808B2B9";
paths = (
{
closed = 1;
nodes = (
"40 1 OFFCURVE",
"41 0 OFFCURVE",
"44 0 CURVE SMOOTH",
"183 0 LINE SMOOTH",
"186 0 OFFCURVE",
"187 1 OFFCURVE",
"188 4 CURVE SMOOTH",
"226 185 LINE SMOOTH",
"228 193 OFFCURVE",
"229 198 OFFCURVE",
"232 201 CURVE SMOOTH",
"243 214 OFFCURVE",
"255 183 OFFCURVE",
"259 168 CURVE SMOOTH",
"266 144 OFFCURVE",
"311 7 OFFCURVE",
"311 7 CURVE",
"314 -1 OFFCURVE",
"314 0 OFFCURVE",
"319 0 CURVE SMOOTH",
"328 0 OFFCURVE",
"448 0 OFFCURVE",
"457 0 CURVE SMOOTH",
"462 0 OFFCURVE",
"463 4 OFFCURVE",
"462 8 CURVE SMOOTH",
"460 14 OFFCURVE",
"426 197 OFFCURVE",
"380 255 CURVE SMOOTH",
"379 257 OFFCURVE",
"371 260 OFFCURVE",
"370 262 CURVE",
"375 267 OFFCURVE",
"378 270 OFFCURVE",
"386 277 CURVE SMOOTH",
"455 343 OFFCURVE",
"519 441 OFFCURVE",
"527 455 CURVE",
"530 460 OFFCURVE",
"535 472 OFFCURVE",
"522 472 CURVE SMOOTH",
"404 472 LINE SMOOTH",
"385 472 OFFCURVE",
"380 472 OFFCURVE",
"371 458 CURVE SMOOTH",
"341 408 OFFCURVE",
"323 383 OFFCURVE",
"290 343 CURVE SMOOTH",
"279 330 OFFCURVE",
"275 326 OFFCURVE",
"264 317 CURVE SMOOTH",
"262 315 OFFCURVE",
"257 312 OFFCURVE",
"255 312 CURVE SMOOTH",
"253 312 OFFCURVE",
"255 320 OFFCURVE",
"256 323 CURVE SMOOTH",
"330 674 LINE SMOOTH",
"331 677 OFFCURVE",
"330 678 OFFCURVE",
"327 678 CURVE SMOOTH",
"188 678 LINE SMOOTH",
"185 678 OFFCURVE",
"184 677 OFFCURVE",
"183 674 CURVE SMOOTH",
"41 4 LINE SMOOTH"
);
}
);
width = 472;
}
);
leftMetricsKey = n;
note = k;
unicode = 006B;
},
{
glyphname = l;
lastChange = "2021-03-18 01:37:12 +0000";
layers = (
{
background = {
paths = (
{
closed = 1;
nodes = (
"80 1 OFFCURVE",
"81 0 OFFCURVE",
"83 0 CURVE SMOOTH",
"109 0 LINE SMOOTH",
"111 0 OFFCURVE",
"113 1 OFFCURVE",
"114 4 CURVE SMOOTH",
"263 704 LINE SMOOTH",
"263 707 OFFCURVE",
"261 708 OFFCURVE",
"259 708 CURVE SMOOTH",
"233 708 LINE SMOOTH",
"231 708 OFFCURVE",
"230 707 OFFCURVE",
"230 704 CURVE SMOOTH",
"81 4 LINE SMOOTH"
);
}
);
};
hints = (
{
horizontal = 1;
place = "{4, 21}";
target = up;
type = BottomGhost;
},
{
place = "{80, 33}";
type = Stem;
}
);
layerId = "707362F1-A677-446A-8636-E10BE3A7FAFF";
paths = (
{
closed = 1;
nodes = (
"80 1 OFFCURVE",
"81 0 OFFCURVE",
"83 0 CURVE SMOOTH",
"109 0 LINE SMOOTH",
"111 0 OFFCURVE",
"113 1 OFFCURVE",
"114 4 CURVE SMOOTH",
"263 704 LINE SMOOTH",
"263 707 OFFCURVE",
"261 708 OFFCURVE",
"259 708 CURVE SMOOTH",
"233 708 LINE SMOOTH",
"231 708 OFFCURVE",
"230 707 OFFCURVE",
"230 704 CURVE SMOOTH",
"81 4 LINE SMOOTH"
);
}
);
width = 186;
},
{
background = {
paths = (
{
closed = 1;
nodes = (
"41 6 OFFCURVE",
"46 0 OFFCURVE",
"56 0 CURVE SMOOTH",
"171 0 LINE SMOOTH",
"181 0 OFFCURVE",
"188 6 OFFCURVE",
"190 14 CURVE SMOOTH",
"335 694 LINE SMOOTH",
"336 702 OFFCURVE",
"331 708 OFFCURVE",
"321 708 CURVE SMOOTH",
"206 708 LINE SMOOTH",
"196 708 OFFCURVE",
"189 702 OFFCURVE",
"188 694 CURVE SMOOTH",
"43 14 LINE SMOOTH"
);
}
);
};
layerId = "D1BC8BBB-1669-4C46-BC21-42BF6808B2B9";
paths = (
{
closed = 1;
nodes = (
"41 6 OFFCURVE",
"46 0 OFFCURVE",
"56 0 CURVE SMOOTH",
"171 0 LINE SMOOTH",
"181 0 OFFCURVE",
"188 6 OFFCURVE",
"190 14 CURVE SMOOTH",
"335 694 LINE SMOOTH",
"336 702 OFFCURVE",
"331 708 OFFCURVE",
"321 708 CURVE SMOOTH",
"206 708 LINE SMOOTH",
"196 708 OFFCURVE",
"189 702 OFFCURVE",
"188 694 CURVE SMOOTH",
"43 14 LINE SMOOTH"
);
}
);
width = 237;
}
);
leftMetricsKey = n;
note = l;
rightMetricsKey = d;
unicode = 006C;
},
{
glyphname = m;
lastChange = "2021-03-18 01:37:06 +0000";
layers = (
{
background = {
paths = (
{
closed = 1;
nodes = (
"712 445 OFFCURVE",
"728 354 OFFCURVE",
"708 257 CURVE SMOOTH",
"685 152 OFFCURVE",
"652 28 OFFCURVE",
"646 7 CURVE SMOOTH",
"644 1 OFFCURVE",
"645 0 OFFCURVE",
"651 0 CURVE SMOOTH",
"669 0 LINE SMOOTH",
"675 0 OFFCURVE",
"677 1 OFFCURVE",
"679 5 CURVE",
"688 41 OFFCURVE",
"719 150 OFFCURVE",
"741 253 CURVE SMOOTH",
"767 378 OFFCURVE",
"750 476 OFFCURVE",
"608 476 CURVE SMOOTH",
"560 476 OFFCURVE",
"488 447 OFFCURVE",
"458 398 CURVE",
"443 445 OFFCURVE",
"402 476 OFFCURVE",
"321 476 CURVE SMOOTH",
"272 476 OFFCURVE",
"215 459 OFFCURVE",
"193 451 CURVE SMOOTH",
"180 446 OFFCURVE",
"172 435 OFFCURVE",
"172 431 CURVE SMOOTH",
"81 4 LINE SMOOTH",
"80 1 OFFCURVE",
"81 0 OFFCURVE",
"84 0 CURVE SMOOTH",
"109 0 LINE SMOOTH",
"112 0 OFFCURVE",
"113 1 OFFCURVE",
"114 4 CURVE SMOOTH",
"198 401 LINE SMOOTH",
"201 415 OFFCURVE",
"211 424 OFFCURVE",
"219 426 CURVE SMOOTH",
"276 446 OFFCURVE",
"345 457 OFFCURVE",
"392 424 CURVE SMOOTH",
"435 393 OFFCURVE",
"439 339 OFFCURVE",
"421 253 CURVE SMOOTH",
"368 7 LINE",
"366 1 OFFCURVE",
"367 0 OFFCURVE",
"373 0 CURVE SMOOTH",
"390 0 LINE SMOOTH",
"396 0 OFFCURVE",
"399 1 OFFCURVE",
"401 5 CURVE",
"410 41 OFFCURVE",
"432 150 OFFCURVE",
"454 253 CURVE SMOOTH",
"472 340 LINE SMOOTH",
"486 404 OFFCURVE",
"546 445 OFFCURVE",
"607 445 CURVE SMOOTH"
);
}
);
};
hints = (
{
horizontal = 1;
place = "{4, 21}";
target = up;
type = BottomGhost;
},
{
horizontal = 1;
place = "{447, 31}";
type = Stem;
},
{
horizontal = 1;
place = "{472, -20}";
target = down;
type = TopGhost;
}
);
layerId = "707362F1-A677-446A-8636-E10BE3A7FAFF";
paths = (
{
closed = 1;
nodes = (
"712 445 OFFCURVE",
"728 354 OFFCURVE",
"708 257 CURVE SMOOTH",
"685 152 OFFCURVE",
"652 28 OFFCURVE",
"646 7 CURVE SMOOTH",
"644 1 OFFCURVE",
"645 0 OFFCURVE",
"651 0 CURVE SMOOTH",
"669 0 LINE SMOOTH",
"675 0 OFFCURVE",
"677 1 OFFCURVE",
"679 5 CURVE",
"688 41 OFFCURVE",
"719 150 OFFCURVE",
"741 253 CURVE SMOOTH",
"767 378 OFFCURVE",
"750 476 OFFCURVE",
"608 476 CURVE SMOOTH",
"560 476 OFFCURVE",
"488 447 OFFCURVE",
"458 398 CURVE",
"443 445 OFFCURVE",
"402 476 OFFCURVE",
"321 476 CURVE SMOOTH",
"272 476 OFFCURVE",
"215 459 OFFCURVE",
"193 451 CURVE SMOOTH",
"180 446 OFFCURVE",
"172 435 OFFCURVE",
"172 431 CURVE SMOOTH",
"81 4 LINE SMOOTH",
"80 1 OFFCURVE",
"81 0 OFFCURVE",
"84 0 CURVE SMOOTH",
"109 0 LINE SMOOTH",
"112 0 OFFCURVE",
"113 1 OFFCURVE",
"114 4 CURVE SMOOTH",
"198 401 LINE SMOOTH",
"201 415 OFFCURVE",
"211 424 OFFCURVE",
"219 426 CURVE SMOOTH",
"276 446 OFFCURVE",
"345 457 OFFCURVE",
"392 424 CURVE SMOOTH",
"435 393 OFFCURVE",
"439 339 OFFCURVE",
"421 253 CURVE SMOOTH",
"368 7 LINE",
"366 1 OFFCURVE",
"367 0 OFFCURVE",
"373 0 CURVE SMOOTH",
"390 0 LINE SMOOTH",
"396 0 OFFCURVE",
"399 1 OFFCURVE",
"401 5 CURVE",
"410 41 OFFCURVE",
"432 150 OFFCURVE",
"454 253 CURVE SMOOTH",
"472 340 LINE SMOOTH",
"486 404 OFFCURVE",
"546 445 OFFCURVE",
"607 445 CURVE SMOOTH"
);
}
);
width = 767;
},
{
background = {
paths = (
{
closed = 1;
nodes = (
"608 363 OFFCURVE",
"595 283 OFFCURVE",
"589 254 CURVE SMOOTH",
"572 173 OFFCURVE",
"550 87 OFFCURVE",
"530 21 CURVE SMOOTH",
"525 4 OFFCURVE",
"525 0 OFFCURVE",
"535 0 CURVE SMOOTH",
"659 0 LINE SMOOTH",
"665 0 OFFCURVE",
"667 1 OFFCURVE",
"669 5 CURVE",
"701 96 OFFCURVE",
"718 147 OFFCURVE",
"740 250 CURVE SMOOTH",
"767 375 OFFCURVE",
"747 476 OFFCURVE",
"588 476 CURVE SMOOTH",
"540 476 OFFCURVE",
"505 461 OFFCURVE",
"458 438 CURVE",
"424 463 OFFCURVE",
"388 476 OFFCURVE",
"301 476 CURVE SMOOTH",
"279 476 OFFCURVE",
"201 460 OFFCURVE",
"158 447 CURVE SMOOTH",
"141 442 OFFCURVE",
"132 435 OFFCURVE",
"130 422 CURVE SMOOTH",
"43 15 LINE SMOOTH",
"40 1 OFFCURVE",
"51 0 OFFCURVE",
"57 0 CURVE SMOOTH",
"177 0 LINE SMOOTH",
"184 0 OFFCURVE",
"189 12 OFFCURVE",
"190 20 CURVE SMOOTH",
"260 346 LINE SMOOTH",
"263 363 OFFCURVE",
"287 363 OFFCURVE",
"296 363 CURVE SMOOTH",
"308 363 OFFCURVE",
"322 361 OFFCURVE",
"331 352 CURVE SMOOTH",
"352 331 OFFCURVE",
"349 293 OFFCURVE",
"341 253 CURVE SMOOTH",
"288 7 LINE",
"286 1 OFFCURVE",
"287 0 OFFCURVE",
"293 0 CURVE SMOOTH",
"423 0 LINE SMOOTH",
"434 0 OFFCURVE",
"437 12 OFFCURVE",
"438 20 CURVE",
"445 53 OFFCURVE",
"475 192 OFFCURVE",
"506 338 CURVE SMOOTH",
"508 347 LINE SMOOTH",
"511 363 OFFCURVE",
"540 363 OFFCURVE",
"550 363 CURVE SMOOTH"
);
}
);
};
layerId = "D1BC8BBB-1669-4C46-BC21-42BF6808B2B9";
paths = (
{
closed = 1;
nodes = (
"608 363 OFFCURVE",
"595 283 OFFCURVE",
"589 254 CURVE SMOOTH",
"572 173 OFFCURVE",
"550 87 OFFCURVE",
"530 21 CURVE SMOOTH",
"525 4 OFFCURVE",
"525 0 OFFCURVE",
"535 0 CURVE SMOOTH",
"659 0 LINE SMOOTH",
"665 0 OFFCURVE",
"667 1 OFFCURVE",
"669 5 CURVE",
"701 96 OFFCURVE",
"718 147 OFFCURVE",
"740 250 CURVE SMOOTH",
"767 375 OFFCURVE",
"747 476 OFFCURVE",
"588 476 CURVE SMOOTH",
"540 476 OFFCURVE",
"505 461 OFFCURVE",
"458 438 CURVE",
"424 463 OFFCURVE",
"388 476 OFFCURVE",
"301 476 CURVE SMOOTH",
"279 476 OFFCURVE",
"201 460 OFFCURVE",
"158 447 CURVE SMOOTH",
"141 442 OFFCURVE",
"132 435 OFFCURVE",
"130 422 CURVE SMOOTH",
"43 15 LINE SMOOTH",
"40 1 OFFCURVE",
"51 0 OFFCURVE",
"57 0 CURVE SMOOTH",
"177 0 LINE SMOOTH",
"184 0 OFFCURVE",
"189 12 OFFCURVE",
"190 20 CURVE SMOOTH",
"260 346 LINE SMOOTH",
"263 363 OFFCURVE",
"287 363 OFFCURVE",
"296 363 CURVE SMOOTH",
"308 363 OFFCURVE",
"322 361 OFFCURVE",
"331 352 CURVE SMOOTH",
"352 331 OFFCURVE",
"349 293 OFFCURVE",
"341 253 CURVE SMOOTH",
"288 7 LINE",
"286 1 OFFCURVE",
"287 0 OFFCURVE",
"293 0 CURVE SMOOTH",
"423 0 LINE SMOOTH",
"434 0 OFFCURVE",
"437 12 OFFCURVE",
"438 20 CURVE",
"445 53 OFFCURVE",
"475 192 OFFCURVE",
"506 338 CURVE SMOOTH",
"508 347 LINE SMOOTH",
"511 363 OFFCURVE",
"540 363 OFFCURVE",
"550 363 CURVE SMOOTH"
);
}
);
width = 727;
}
);
leftMetricsKey = n;
note = m;
rightMetricsKey = n;
unicode = 006D;
},
{
glyphname = n;
lastChange = "2021-03-18 01:16:03 +0000";
layers = (
{
background = {
paths = (
{
closed = 1;
nodes = (
"92 0 OFFCURVE",
"101 0 OFFCURVE",
"109 0 CURVE SMOOTH",
"112 0 OFFCURVE",
"113 1 OFFCURVE",
"114 4 CURVE SMOOTH",
"142 136 OFFCURVE",
"170 269 OFFCURVE",
"198 401 CURVE SMOOTH",
"201 415 OFFCURVE",
"213 420 OFFCURVE",
"221 422 CURVE SMOOTH",
"254 434 OFFCURVE",
"298 444 OFFCURVE",
"337 443 CURVE SMOOTH",
"366 443 OFFCURVE",
"393 438 OFFCURVE",
"413 424 CURVE SMOOTH",
"457 393 OFFCURVE",
"462 329 OFFCURVE",
"447 257 CURVE SMOOTH",
"424 152 OFFCURVE",
"390 28 OFFCURVE",
"384 7 CURVE SMOOTH",
"382 1 OFFCURVE",
"383 0 OFFCURVE",
"389 0 CURVE SMOOTH",
"395 0 OFFCURVE",
"401 0 OFFCURVE",
"407 0 CURVE SMOOTH",
"413 0 OFFCURVE",
"415 1 OFFCURVE",
"417 5 CURVE",
"426 41 OFFCURVE",
"457 150 OFFCURVE",
"479 253 CURVE SMOOTH",
"505 378 OFFCURVE",
"489 476 OFFCURVE",
"343 476 CURVE SMOOTH",
"293 476 OFFCURVE",
"218 458 OFFCURVE",
"190 450 CURVE SMOOTH",
"177 446 OFFCURVE",
"174 440 OFFCURVE",
"172 435 CURVE SMOOTH",
"142 291 OFFCURVE",
"111 148 OFFCURVE",
"81 4 CURVE SMOOTH",
"80 1 OFFCURVE",
"81 0 OFFCURVE",
"84 0 CURVE SMOOTH"
);
}
);
};
guideLines = (
{
position = "{315, 443}";
}
);
hints = (
{
horizontal = 1;
place = "{4, 21}";
target = up;
type = BottomGhost;
},
{
horizontal = 1;
place = "{447, 31}";
type = Stem;
},
{
horizontal = 1;
place = "{472, -20}";
target = down;
type = TopGhost;
},
{
place = "{60, 33}";
type = Stem;
},
{
place = "{374, 33}";
type = Stem;
}
);
layerId = "707362F1-A677-446A-8636-E10BE3A7FAFF";
paths = (
{
closed = 1;
nodes = (
"109 0 LINE",
"112 0 OFFCURVE",
"113 1 OFFCURVE",
"114 4 CURVE SMOOTH",
"142 136 OFFCURVE",
"170 269 OFFCURVE",
"198 401 CURVE SMOOTH",
"201 415 OFFCURVE",
"213 420 OFFCURVE",
"221 422 CURVE SMOOTH",
"254 434 OFFCURVE",
"298 444 OFFCURVE",
"337 443 CURVE SMOOTH",
"446 443 OFFCURVE",
"470 366 OFFCURVE",
"447 257 CURVE SMOOTH",
"424 152 OFFCURVE",
"390 28 OFFCURVE",
"384 7 CURVE SMOOTH",
"382 1 OFFCURVE",
"383 0 OFFCURVE",
"389 0 CURVE",
"407 0 LINE",
"413 0 OFFCURVE",
"415 1 OFFCURVE",
"417 5 CURVE",
"426 41 OFFCURVE",
"457 150 OFFCURVE",
"479 253 CURVE SMOOTH",
"505 378 OFFCURVE",
"489 476 OFFCURVE",
"343 476 CURVE SMOOTH",
"293 476 OFFCURVE",
"218 458 OFFCURVE",
"190 450 CURVE SMOOTH",
"177 446 OFFCURVE",
"174 440 OFFCURVE",
"172 435 CURVE SMOOTH",
"142 291 OFFCURVE",
"111 148 OFFCURVE",
"81 4 CURVE SMOOTH",
"80 1 OFFCURVE",
"81 0 OFFCURVE",
"84 0 CURVE"
);
}
);
width = 505;
},
{
background = {
paths = (
{
closed = 1;
nodes = (
"97 0 OFFCURVE",
"136 0 OFFCURVE",
"176 0 CURVE SMOOTH",
"186 0 OFFCURVE",
"189 12 OFFCURVE",
"190 20 CURVE SMOOTH",
"214 129 OFFCURVE",
"237 238 OFFCURVE",
"250 301 CURVE SMOOTH",
"257 335 OFFCURVE",
"261 352 OFFCURVE",
"268 358 CURVE SMOOTH",
"274 363 OFFCURVE",
"287 363 OFFCURVE",
"300 363 CURVE SMOOTH",
"339 363 OFFCURVE",
"363 349 OFFCURVE",
"340 248 CURVE SMOOTH",
"337 237 OFFCURVE",
"284 32 OFFCURVE",
"281 21 CURVE SMOOTH",
"271 -6 OFFCURVE",
"281 0 OFFCURVE",
"302 0 CURVE SMOOTH",
"333 0 OFFCURVE",
"365 0 OFFCURVE",
"396 0 CURVE SMOOTH",
"417 0 OFFCURVE",
"420 0 OFFCURVE",
"429 28 CURVE SMOOTH",
"452 96 OFFCURVE",
"475 181 OFFCURVE",
"489 250 CURVE SMOOTH",
"515 372 OFFCURVE",
"497 476 OFFCURVE",
"328 476 CURVE SMOOTH",
"279 476 OFFCURVE",
"201 460 OFFCURVE",
"175 452 CURVE SMOOTH",
"142 441 OFFCURVE",
"133 438 OFFCURVE",
"130 422 CURVE SMOOTH",
"101 286 OFFCURVE",
"72 151 OFFCURVE",
"43 15 CURVE SMOOTH",
"40 1 OFFCURVE",
"51 0 OFFCURVE",
"57 0 CURVE SMOOTH"
);
}
);
};
guideLines = (
{
angle = 78;
position = "{40, 1}";
},
{
angle = 78;
position = "{729, -26}";
},
{
angle = 78;
position = "{878, -31}";
}
);
layerId = "D1BC8BBB-1669-4C46-BC21-42BF6808B2B9";
paths = (
{
closed = 1;
nodes = (
"176 0 LINE SMOOTH",
"186 0 OFFCURVE",
"189 12 OFFCURVE",
"190 20 CURVE SMOOTH",
"214 129 OFFCURVE",
"237 237 OFFCURVE",
"257 334 CURVE SMOOTH",
"261 351 OFFCURVE",
"266 361 OFFCURVE",
"277 362 CURVE SMOOTH",
"283 363 OFFCURVE",
"287 363 OFFCURVE",
"300 363 CURVE SMOOTH",
"339 363 OFFCURVE",
"363 349 OFFCURVE",
"340 248 CURVE SMOOTH",
"337 237 OFFCURVE",
"282 27 OFFCURVE",
"278 11 CURVE SMOOTH",
"276 3 OFFCURVE",
"278 0 OFFCURVE",
"285 0 CURVE SMOOTH",
"396 0 LINE SMOOTH",
"417 0 OFFCURVE",
"420 0 OFFCURVE",
"429 28 CURVE SMOOTH",
"452 96 OFFCURVE",
"475 181 OFFCURVE",
"489 250 CURVE SMOOTH",
"515 372 OFFCURVE",
"497 476 OFFCURVE",
"328 476 CURVE SMOOTH",
"279 476 OFFCURVE",
"201 460 OFFCURVE",
"175 452 CURVE SMOOTH",
"142 441 OFFCURVE",
"133 438 OFFCURVE",
"130 422 CURVE SMOOTH",
"101 286 OFFCURVE",
"72 151 OFFCURVE",
"43 15 CURVE SMOOTH",
"40 1 OFFCURVE",
"51 0 OFFCURVE",
"57 0 CURVE SMOOTH"
);
}
);
width = 476;
}
);
note = n;
unicode = 006E;
},
{
glyphname = o;
lastChange = "2021-03-18 02:08:48 +0000";
layers = (
{
background = {
paths = (
{
closed = 1;
nodes = (
"56 93 OFFCURVE",
"76 -7 OFFCURVE",
"233 -7 CURVE SMOOTH",
"390 -7 OFFCURVE",
"452 94 OFFCURVE",
"483 238 CURVE SMOOTH",
"514 382 OFFCURVE",
"486 483 OFFCURVE",
"337 483 CURVE SMOOTH",
"189 483 OFFCURVE",
"118 382 OFFCURVE",
"87 238 CURVE SMOOTH"
);
},
{
closed = 1;
nodes = (
"149 375 OFFCURVE",
"218 453 OFFCURVE",
"331 453 CURVE SMOOTH",
"445 453 OFFCURVE",
"479 374 OFFCURVE",
"450 238 CURVE SMOOTH",
"421 103 OFFCURVE",
"361 22 OFFCURVE",
"239 22 CURVE SMOOTH",
"118 22 OFFCURVE",
"91 101 OFFCURVE",
"120 238 CURVE SMOOTH"
);
}
);
};
hints = (
{
horizontal = 1;
place = "{-6, 30}";
type = Stem;
},
{
horizontal = 1;
place = "{454, 31}";
type = Stem;
},
{
place = "{47, 34}";
type = Stem;
},
{
place = "{410, 34}";
type = Stem;
}
);
layerId = "707362F1-A677-446A-8636-E10BE3A7FAFF";
paths = (
{
closed = 1;
nodes = (
"56 93 OFFCURVE",
"76 -7 OFFCURVE",
"233 -7 CURVE SMOOTH",
"390 -7 OFFCURVE",
"452 94 OFFCURVE",
"483 238 CURVE SMOOTH",
"514 382 OFFCURVE",
"486 483 OFFCURVE",
"337 483 CURVE SMOOTH",
"189 483 OFFCURVE",
"118 382 OFFCURVE",
"87 238 CURVE SMOOTH"
);
},
{
closed = 1;
nodes = (
"149 375 OFFCURVE",
"218 453 OFFCURVE",
"331 453 CURVE SMOOTH",
"445 453 OFFCURVE",
"479 374 OFFCURVE",
"450 238 CURVE SMOOTH",
"421 103 OFFCURVE",
"361 22 OFFCURVE",
"239 22 CURVE SMOOTH",
"118 22 OFFCURVE",
"91 101 OFFCURVE",
"120 238 CURVE SMOOTH"
);
}
);
width = 476;
},
{
background = {
paths = (
{
closed = 1;
nodes = (
"53 101 OFFCURVE",
"74 -6 OFFCURVE",
"253 -6 CURVE SMOOTH",
"431 -6 OFFCURVE",
"499 103 OFFCURVE",
"528 238 CURVE SMOOTH",
"557 374 OFFCURVE",
"523 477 OFFCURVE",
"356 477 CURVE SMOOTH",
"188 477 OFFCURVE",
"111 374 OFFCURVE",
"82 238 CURVE SMOOTH"
);
},
{
closed = 1;
nodes = (
"246 315 OFFCURVE",
"279 358 OFFCURVE",
"328 358 CURVE SMOOTH",
"378 358 OFFCURVE",
"393 315 OFFCURVE",
"376 234 CURVE SMOOTH",
"359 152 OFFCURVE",
"330 105 OFFCURVE",
"275 105 CURVE SMOOTH",
"222 105 OFFCURVE",
"211 151 OFFCURVE",
"229 234 CURVE SMOOTH"
);
}
);
};
layerId = "D1BC8BBB-1669-4C46-BC21-42BF6808B2B9";
paths = (
{
closed = 1;
nodes = (
"53 101 OFFCURVE",
"74 -6 OFFCURVE",
"253 -6 CURVE SMOOTH",
"431 -6 OFFCURVE",
"499 103 OFFCURVE",
"528 238 CURVE SMOOTH",
"557 374 OFFCURVE",
"523 477 OFFCURVE",
"356 477 CURVE SMOOTH",
"188 477 OFFCURVE",
"111 374 OFFCURVE",
"82 238 CURVE SMOOTH"
);
},
{
closed = 1;
nodes = (
"246 315 OFFCURVE",
"279 358 OFFCURVE",
"328 358 CURVE SMOOTH",
"378 358 OFFCURVE",
"393 315 OFFCURVE",
"376 234 CURVE SMOOTH",
"359 152 OFFCURVE",
"330 105 OFFCURVE",
"275 105 CURVE SMOOTH",
"222 105 OFFCURVE",
"211 151 OFFCURVE",
"229 234 CURVE SMOOTH"
);
}
);
width = 506;
}
);
leftKerningGroup = o;
note = o;
rightKerningGroup = o;
unicode = 006F;
},
{
glyphname = p;
lastChange = "2021-03-17 23:43:22 +0000";
layers = (
{
background = {
paths = (
{
closed = 1;
nodes = (
"59 -112 OFFCURVE",
"59 -117 OFFCURVE",
"63 -117 CURVE SMOOTH",
"85 -117 LINE SMOOTH",
"92 -117 OFFCURVE",
"92 -111 OFFCURVE",
"93 -109 CURVE SMOOTH",
"101 -59 OFFCURVE",
"113 -12 OFFCURVE",
"117 5 CURVE SMOOTH",
"118 11 OFFCURVE",
"123 13 OFFCURVE",
"129 9 CURVE",
"149 0 OFFCURVE",
"210 -7 OFFCURVE",
"247 -7 CURVE SMOOTH",
"394 -7 OFFCURVE",
"471 119 OFFCURVE",
"498 245 CURVE SMOOTH",
"532 407 OFFCURVE",
"491 480 OFFCURVE",
"366 480 CURVE SMOOTH",
"304 480 OFFCURVE",
"252 472 OFFCURVE",
"197 455 CURVE SMOOTH",
"186 452 OFFCURVE",
"182 445 OFFCURVE",
"181 439 CURVE SMOOTH",
"159 359 OFFCURVE",
"140 276 OFFCURVE",
"121 194 CURVE SMOOTH",
"99 93 OFFCURVE",
"78 -9 OFFCURVE",
"59 -110 CURVE SMOOTH"
);
},
{
closed = 1;
nodes = (
"131 92 OFFCURVE",
"183 327 OFFCURVE",
"210 417 CURVE SMOOTH",
"211 424 OFFCURVE",
"221 428 OFFCURVE",
"231 432 CURVE SMOOTH",
"267 444 OFFCURVE",
"313 452 OFFCURVE",
"356 452 CURVE SMOOTH",
"451 452 OFFCURVE",
"498 399 OFFCURVE",
"465 245 CURVE SMOOTH",
"426 61 OFFCURVE",
"325 24 OFFCURVE",
"257 24 CURVE SMOOTH",
"224 24 OFFCURVE",
"175 28 OFFCURVE",
"142 39 CURVE SMOOTH",
"135 41 OFFCURVE",
"123 45 OFFCURVE",
"126 58 CURVE SMOOTH"
);
}
);
};
hints = (
{
horizontal = 1;
place = "{-88, 21}";
target = up;
type = BottomGhost;
},
{
horizontal = 1;
place = "{17, 54}";
type = Stem;
},
{
horizontal = 1;
place = "{497, -20}";
target = down;
type = TopGhost;
},
{
place = "{81, 58}";
type = Stem;
},
{
place = "{425, 58}";
type = Stem;
},
{
place = "{87, 58}";
type = Stem;
},
{
horizontal = 1;
place = "{18, 58}";
type = Stem;
},
{
horizontal = 1;
place = "{476, 54}";
type = Stem;
}
);
layerId = "707362F1-A677-446A-8636-E10BE3A7FAFF";
paths = (
{
closed = 1;
nodes = (
"59 -112 OFFCURVE",
"59 -117 OFFCURVE",
"63 -117 CURVE SMOOTH",
"85 -117 LINE SMOOTH",
"92 -117 OFFCURVE",
"92 -111 OFFCURVE",
"93 -109 CURVE SMOOTH",
"101 -59 OFFCURVE",
"113 -12 OFFCURVE",
"117 5 CURVE SMOOTH",
"118 11 OFFCURVE",
"123 13 OFFCURVE",
"129 9 CURVE",
"149 0 OFFCURVE",
"210 -7 OFFCURVE",
"247 -7 CURVE SMOOTH",
"394 -7 OFFCURVE",
"471 119 OFFCURVE",
"498 245 CURVE SMOOTH",
"532 407 OFFCURVE",
"491 480 OFFCURVE",
"366 480 CURVE SMOOTH",
"304 480 OFFCURVE",
"252 472 OFFCURVE",
"197 455 CURVE SMOOTH",
"186 452 OFFCURVE",
"182 445 OFFCURVE",
"181 439 CURVE SMOOTH",
"159 359 OFFCURVE",
"140 276 OFFCURVE",
"121 194 CURVE SMOOTH",
"99 93 OFFCURVE",
"78 -9 OFFCURVE",
"59 -110 CURVE SMOOTH"
);
},
{
closed = 1;
nodes = (
"131 92 OFFCURVE",
"183 327 OFFCURVE",
"210 417 CURVE SMOOTH",
"211 424 OFFCURVE",
"221 428 OFFCURVE",
"231 432 CURVE SMOOTH",
"267 444 OFFCURVE",
"313 452 OFFCURVE",
"356 452 CURVE SMOOTH",
"451 452 OFFCURVE",
"498 399 OFFCURVE",
"465 245 CURVE SMOOTH",
"426 61 OFFCURVE",
"325 24 OFFCURVE",
"257 24 CURVE SMOOTH",
"224 24 OFFCURVE",
"175 28 OFFCURVE",
"142 39 CURVE SMOOTH",
"135 41 OFFCURVE",
"123 45 OFFCURVE",
"126 58 CURVE SMOOTH"
);
}
);
width = 489;
},
{
background = {
paths = (
{
closed = 1;
nodes = (
"27 -105 OFFCURVE",
"34 -106 OFFCURVE",
"46 -106 CURVE SMOOTH",
"155 -106 LINE SMOOTH",
"177 -106 OFFCURVE",
"175 -100 OFFCURVE",
"177 -79 CURVE SMOOTH",
"177 -72 OFFCURVE",
"185 -26 OFFCURVE",
"189 -12 CURVE SMOOTH",
"192 -2 OFFCURVE",
"198 -6 OFFCURVE",
"211 -7 CURVE SMOOTH",
"251 -11 OFFCURVE",
"309 -5 OFFCURVE",
"351 14 CURVE SMOOTH",
"417 45 OFFCURVE",
"482 114 OFFCURVE",
"510 247 CURVE SMOOTH",
"544 408 OFFCURVE",
"480 481 OFFCURVE",
"348 481 CURVE SMOOTH",
"278 481 OFFCURVE",
"215 466 OFFCURVE",
"190 458 CURVE SMOOTH",
"156 447 OFFCURVE",
"150 440 OFFCURVE",
"143 424 CURVE SMOOTH",
"124 386 OFFCURVE",
"98 275 OFFCURVE",
"85 212 CURVE SMOOTH",
"48 42 OFFCURVE",
"30 -58 OFFCURVE",
"28 -96 CURVE SMOOTH"
);
},
{
closed = 1;
nodes = (
"236 212 OFFCURVE",
"251 281 OFFCURVE",
"268 349 CURVE SMOOTH",
"269 356 OFFCURVE",
"271 359 OFFCURVE",
"274 361 CURVE SMOOTH",
"286 366 OFFCURVE",
"304 369 OFFCURVE",
"323 369 CURVE SMOOTH",
"359 369 OFFCURVE",
"381 341 OFFCURVE",
"361 248 CURVE SMOOTH",
"338 137 OFFCURVE",
"297 122 OFFCURVE",
"270 122 CURVE SMOOTH",
"256 122 OFFCURVE",
"238 127 OFFCURVE",
"225 132 CURVE SMOOTH",
"220 133 OFFCURVE",
"219 136 OFFCURVE",
"221 144 CURVE SMOOTH"
);
}
);
};
layerId = "D1BC8BBB-1669-4C46-BC21-42BF6808B2B9";
paths = (
{
closed = 1;
nodes = (
"27 -105 OFFCURVE",
"34 -106 OFFCURVE",
"46 -106 CURVE SMOOTH",
"155 -106 LINE SMOOTH",
"177 -106 OFFCURVE",
"175 -100 OFFCURVE",
"177 -79 CURVE SMOOTH",
"177 -72 OFFCURVE",
"185 -26 OFFCURVE",
"189 -12 CURVE SMOOTH",
"192 -2 OFFCURVE",
"198 -6 OFFCURVE",
"211 -7 CURVE SMOOTH",
"251 -11 OFFCURVE",
"309 -5 OFFCURVE",
"351 14 CURVE SMOOTH",
"417 45 OFFCURVE",
"482 114 OFFCURVE",
"510 247 CURVE SMOOTH",
"544 408 OFFCURVE",
"480 481 OFFCURVE",
"348 481 CURVE SMOOTH",
"278 481 OFFCURVE",
"215 466 OFFCURVE",
"190 458 CURVE SMOOTH",
"156 447 OFFCURVE",
"150 440 OFFCURVE",
"143 424 CURVE SMOOTH",
"124 386 OFFCURVE",
"98 275 OFFCURVE",
"85 212 CURVE SMOOTH",
"48 42 OFFCURVE",
"30 -58 OFFCURVE",
"28 -96 CURVE SMOOTH"
);
},
{
closed = 1;
nodes = (
"236 212 OFFCURVE",
"251 281 OFFCURVE",
"268 349 CURVE SMOOTH",
"269 356 OFFCURVE",
"271 359 OFFCURVE",
"274 361 CURVE SMOOTH",
"286 366 OFFCURVE",
"304 369 OFFCURVE",
"323 369 CURVE SMOOTH",
"359 369 OFFCURVE",
"381 341 OFFCURVE",
"361 248 CURVE SMOOTH",
"338 137 OFFCURVE",
"297 122 OFFCURVE",
"270 122 CURVE SMOOTH",
"256 122 OFFCURVE",
"238 127 OFFCURVE",
"225 132 CURVE SMOOTH",
"220 133 OFFCURVE",
"219 136 OFFCURVE",
"221 144 CURVE SMOOTH"
);
}
);
width = 486;
}
);
leftKerningGroup = n;
leftMetricsKey = n;
note = p;
rightKerningGroup = o;
rightMetricsKey = o;
unicode = 0070;
},
{
glyphname = q;
lastChange = "2021-03-18 02:17:00 +0000";
layers = (
{
background = {
paths = (
{
closed = 1;
nodes = (
"266 -7 OFFCURVE",
"314 1 OFFCURVE",
"348 9 CURVE",
"355 12 OFFCURVE",
"360 11 OFFCURVE",
"359 5 CURVE SMOOTH",
"355 -12 OFFCURVE",
"344 -59 OFFCURVE",
"330 -109 CURVE SMOOTH",
"329 -111 OFFCURVE",
"327 -117 OFFCURVE",
"334 -117 CURVE SMOOTH",
"356 -117 LINE SMOOTH",
"360 -117 OFFCURVE",
"362 -112 OFFCURVE",
"362 -110 CURVE SMOOTH",
"410 58 OFFCURVE",
"471 295 OFFCURVE",
"497 439 CURVE SMOOTH",
"498 445 OFFCURVE",
"499 452 OFFCURVE",
"489 455 CURVE SMOOTH",
"440 472 OFFCURVE",
"395 480 OFFCURVE",
"333 480 CURVE SMOOTH",
"208 480 OFFCURVE",
"130 407 OFFCURVE",
"89 245 CURVE SMOOTH",
"39 42 OFFCURVE",
"132 -7 OFFCURVE",
"217 -7 CURVE SMOOTH"
);
},
{
closed = 1;
nodes = (
"162 399 OFFCURVE",
"233 452 OFFCURVE",
"329 452 CURVE SMOOTH",
"372 452 OFFCURVE",
"413 444 OFFCURVE",
"445 432 CURVE SMOOTH",
"454 428 OFFCURVE",
"461 424 OFFCURVE",
"458 417 CURVE",
"442 327 OFFCURVE",
"385 92 OFFCURVE",
"374 58 CURVE",
"371 45 OFFCURVE",
"362 41 OFFCURVE",
"353 39 CURVE SMOOTH",
"312 29 OFFCURVE",
"258 25 OFFCURVE",
"225 25 CURVE SMOOTH",
"160 25 OFFCURVE",
"76 61 OFFCURVE",
"122 245 CURVE SMOOTH"
);
}
);
};
hints = (
{
horizontal = 1;
place = "{-88, 21}";
target = up;
type = BottomGhost;
},
{
horizontal = 1;
place = "{11, 58}";
type = Stem;
},
{
horizontal = 1;
place = "{466, 55}";
type = Stem;
},
{
place = "{64, 58}";
type = Stem;
},
{
place = "{400, 58}";
type = Stem;
}
);
layerId = "707362F1-A677-446A-8636-E10BE3A7FAFF";
paths = (
{
closed = 1;
nodes = (
"266 -7 OFFCURVE",
"314 1 OFFCURVE",
"348 9 CURVE",
"355 12 OFFCURVE",
"360 11 OFFCURVE",
"359 5 CURVE SMOOTH",
"355 -12 OFFCURVE",
"344 -59 OFFCURVE",
"330 -109 CURVE SMOOTH",
"329 -111 OFFCURVE",
"327 -117 OFFCURVE",
"334 -117 CURVE SMOOTH",
"356 -117 LINE SMOOTH",
"360 -117 OFFCURVE",
"362 -112 OFFCURVE",
"362 -110 CURVE SMOOTH",
"410 58 OFFCURVE",
"471 295 OFFCURVE",
"497 439 CURVE SMOOTH",
"498 445 OFFCURVE",
"499 452 OFFCURVE",
"489 455 CURVE SMOOTH",
"440 472 OFFCURVE",
"395 480 OFFCURVE",
"333 480 CURVE SMOOTH",
"208 480 OFFCURVE",
"130 407 OFFCURVE",
"89 245 CURVE SMOOTH",
"39 42 OFFCURVE",
"132 -7 OFFCURVE",
"217 -7 CURVE SMOOTH"
);
},
{
closed = 1;
nodes = (
"162 399 OFFCURVE",
"233 452 OFFCURVE",
"329 452 CURVE SMOOTH",
"372 452 OFFCURVE",
"413 444 OFFCURVE",
"445 432 CURVE SMOOTH",
"454 428 OFFCURVE",
"461 424 OFFCURVE",
"458 417 CURVE",
"442 327 OFFCURVE",
"385 92 OFFCURVE",
"374 58 CURVE",
"371 45 OFFCURVE",
"362 41 OFFCURVE",
"353 39 CURVE SMOOTH",
"312 29 OFFCURVE",
"258 25 OFFCURVE",
"225 25 CURVE SMOOTH",
"160 25 OFFCURVE",
"76 61 OFFCURVE",
"122 245 CURVE SMOOTH"
);
}
);
width = 477;
},
{
background = {
paths = (
{
closed = 1;
nodes = (
"167 -5 OFFCURVE",
"221 -11 OFFCURVE",
"263 -7 CURVE SMOOTH",
"279 -6 OFFCURVE",
"287 -2 OFFCURVE",
"285 -12 CURVE SMOOTH",
"283 -26 OFFCURVE",
"268 -72 OFFCURVE",
"266 -79 CURVE SMOOTH",
"259 -100 OFFCURVE",
"251 -106 OFFCURVE",
"273 -106 CURVE SMOOTH",
"383 -106 LINE SMOOTH",
"393 -106 OFFCURVE",
"401 -105 OFFCURVE",
"406 -96 CURVE",
"434 -30 OFFCURVE",
"540 367 OFFCURVE",
"538 424 CURVE SMOOTH",
"537 440 OFFCURVE",
"535 447 OFFCURVE",
"508 458 CURVE SMOOTH",
"486 466 OFFCURVE",
"428 481 OFFCURVE",
"359 481 CURVE SMOOTH",
"226 481 OFFCURVE",
"126 408 OFFCURVE",
"85 247 CURVE SMOOTH",
"50 114 OFFCURVE",
"83 45 OFFCURVE",
"136 14 CURVE SMOOTH"
);
},
{
closed = 1;
nodes = (
"260 341 OFFCURVE",
"294 369 OFFCURVE",
"330 369 CURVE SMOOTH",
"349 369 OFFCURVE",
"365 366 OFFCURVE",
"376 361 CURVE",
"378 359 OFFCURVE",
"378 356 OFFCURVE",
"376 349 CURVE",
"360 281 OFFCURVE",
"345 212 OFFCURVE",
"326 144 CURVE SMOOTH",
"324 136 OFFCURVE",
"323 133 OFFCURVE",
"318 132 CURVE SMOOTH",
"302 127 OFFCURVE",
"279 122 OFFCURVE",
"266 122 CURVE SMOOTH",
"238 122 OFFCURVE",
"206 137 OFFCURVE",
"235 248 CURVE SMOOTH"
);
}
);
};
layerId = "D1BC8BBB-1669-4C46-BC21-42BF6808B2B9";
paths = (
{
closed = 1;
nodes = (
"167 -5 OFFCURVE",
"221 -11 OFFCURVE",
"263 -7 CURVE SMOOTH",
"279 -6 OFFCURVE",
"287 -2 OFFCURVE",
"285 -12 CURVE SMOOTH",
"283 -26 OFFCURVE",
"268 -72 OFFCURVE",
"266 -79 CURVE SMOOTH",
"259 -100 OFFCURVE",
"251 -106 OFFCURVE",
"273 -106 CURVE SMOOTH",
"383 -106 LINE SMOOTH",
"393 -106 OFFCURVE",
"401 -105 OFFCURVE",
"406 -96 CURVE",
"434 -30 OFFCURVE",
"540 367 OFFCURVE",
"538 424 CURVE SMOOTH",
"537 440 OFFCURVE",
"535 447 OFFCURVE",
"508 458 CURVE SMOOTH",
"486 466 OFFCURVE",
"428 481 OFFCURVE",
"359 481 CURVE SMOOTH",
"226 481 OFFCURVE",
"126 408 OFFCURVE",
"85 247 CURVE SMOOTH",
"50 114 OFFCURVE",
"83 45 OFFCURVE",
"136 14 CURVE SMOOTH"
);
},
{
closed = 1;
nodes = (
"260 341 OFFCURVE",
"294 369 OFFCURVE",
"330 369 CURVE SMOOTH",
"349 369 OFFCURVE",
"365 366 OFFCURVE",
"376 361 CURVE",
"378 359 OFFCURVE",
"378 356 OFFCURVE",
"376 349 CURVE",
"360 281 OFFCURVE",
"345 212 OFFCURVE",
"326 144 CURVE SMOOTH",
"324 136 OFFCURVE",
"323 133 OFFCURVE",
"318 132 CURVE SMOOTH",
"302 127 OFFCURVE",
"279 122 OFFCURVE",
"266 122 CURVE SMOOTH",
"238 122 OFFCURVE",
"206 137 OFFCURVE",
"235 248 CURVE SMOOTH"
);
}
);
width = 502;
}
);
leftKerningGroup = o;
leftMetricsKey = o;
note = q;
rightMetricsKey = d;
unicode = 0071;
},
{
glyphname = r;
lastChange = "2021-03-18 02:20:35 +0000";
layers = (
{
background = {
paths = (
{
closed = 1;
nodes = (
"292 477 OFFCURVE",
"233 465 OFFCURVE",
"190 447 CURVE SMOOTH",
"179 442 OFFCURVE",
"173 438 OFFCURVE",
"169 419 CURVE SMOOTH",
"81 4 LINE SMOOTH",
"80 1 OFFCURVE",
"81 0 OFFCURVE",
"84 0 CURVE SMOOTH",
"109 0 LINE SMOOTH",
"112 0 OFFCURVE",
"113 1 OFFCURVE",
"114 4 CURVE SMOOTH",
"198 399 LINE SMOOTH",
"202 418 OFFCURVE",
"213 421 OFFCURVE",
"221 425 CURVE SMOOTH",
"238 432 OFFCURVE",
"297 446 OFFCURVE",
"330 446 CURVE SMOOTH",
"360 446 OFFCURVE",
"388 442 OFFCURVE",
"410 434 CURVE SMOOTH",
"413 433 OFFCURVE",
"416 433 OFFCURVE",
"418 437 CURVE SMOOTH",
"427 458 LINE SMOOTH",
"429 463 OFFCURVE",
"424 464 OFFCURVE",
"422 465 CURVE SMOOTH",
"399 473 OFFCURVE",
"370 477 OFFCURVE",
"336 477 CURVE SMOOTH"
);
}
);
};
hints = (
{
horizontal = 1;
place = "{4, 21}";
target = up;
type = BottomGhost;
},
{
horizontal = 1;
place = "{447, 30}";
type = Stem;
},
{
horizontal = 1;
place = "{472, -20}";
target = down;
type = TopGhost;
},
{
place = "{60, 33}";
type = Stem;
}
);
layerId = "707362F1-A677-446A-8636-E10BE3A7FAFF";
paths = (
{
closed = 1;
nodes = (
"292 477 OFFCURVE",
"233 465 OFFCURVE",
"190 447 CURVE SMOOTH",
"179 442 OFFCURVE",
"173 438 OFFCURVE",
"169 419 CURVE SMOOTH",
"81 4 LINE SMOOTH",
"80 1 OFFCURVE",
"81 0 OFFCURVE",
"84 0 CURVE SMOOTH",
"109 0 LINE SMOOTH",
"112 0 OFFCURVE",
"113 1 OFFCURVE",
"114 4 CURVE SMOOTH",
"198 399 LINE SMOOTH",
"202 418 OFFCURVE",
"213 421 OFFCURVE",
"221 425 CURVE SMOOTH",
"238 432 OFFCURVE",
"297 446 OFFCURVE",
"330 446 CURVE SMOOTH",
"360 446 OFFCURVE",
"388 442 OFFCURVE",
"410 434 CURVE SMOOTH",
"413 433 OFFCURVE",
"416 433 OFFCURVE",
"418 437 CURVE SMOOTH",
"427 458 LINE SMOOTH",
"429 463 OFFCURVE",
"424 464 OFFCURVE",
"422 465 CURVE SMOOTH",
"399 473 OFFCURVE",
"370 477 OFFCURVE",
"336 477 CURVE SMOOTH"
);
}
);
width = 360;
},
{
background = {
paths = (
{
closed = 1;
nodes = (
"262 476 OFFCURVE",
"197 466 OFFCURVE",
"153 447 CURVE SMOOTH",
"137 440 OFFCURVE",
"133 438 OFFCURVE",
"129 417 CURVE SMOOTH",
"44 20 LINE SMOOTH",
"40 2 OFFCURVE",
"47 0 OFFCURVE",
"54 0 CURVE SMOOTH",
"166 0 LINE SMOOTH",
"181 0 OFFCURVE",
"186 2 OFFCURVE",
"191 24 CURVE SMOOTH",
"256 330 LINE SMOOTH",
"260 348 OFFCURVE",
"266 350 OFFCURVE",
"273 354 CURVE SMOOTH",
"280 358 OFFCURVE",
"287 361 OFFCURVE",
"319 361 CURVE SMOOTH",
"331 361 OFFCURVE",
"363 358 OFFCURVE",
"385 351 CURVE SMOOTH",
"397 347 OFFCURVE",
"400 348 OFFCURVE",
"406 360 CURVE SMOOTH",
"441 431 LINE SMOOTH",
"445 440 OFFCURVE",
"447 445 OFFCURVE",
"433 452 CURVE SMOOTH",
"401 468 OFFCURVE",
"359 476 OFFCURVE",
"305 476 CURVE SMOOTH"
);
}
);
};
layerId = "D1BC8BBB-1669-4C46-BC21-42BF6808B2B9";
paths = (
{
closed = 1;
nodes = (
"262 476 OFFCURVE",
"197 466 OFFCURVE",
"153 447 CURVE SMOOTH",
"137 440 OFFCURVE",
"133 438 OFFCURVE",
"129 417 CURVE SMOOTH",
"44 20 LINE SMOOTH",
"40 2 OFFCURVE",
"47 0 OFFCURVE",
"54 0 CURVE SMOOTH",
"166 0 LINE SMOOTH",
"181 0 OFFCURVE",
"186 2 OFFCURVE",
"191 24 CURVE SMOOTH",
"256 330 LINE SMOOTH",
"260 348 OFFCURVE",
"266 350 OFFCURVE",
"273 354 CURVE SMOOTH",
"280 358 OFFCURVE",
"287 361 OFFCURVE",
"319 361 CURVE SMOOTH",
"331 361 OFFCURVE",
"363 358 OFFCURVE",
"385 351 CURVE SMOOTH",
"397 347 OFFCURVE",
"400 348 OFFCURVE",
"406 360 CURVE SMOOTH",
"441 431 LINE SMOOTH",
"445 440 OFFCURVE",
"447 445 OFFCURVE",
"433 452 CURVE SMOOTH",
"401 468 OFFCURVE",
"359 476 OFFCURVE",
"305 476 CURVE SMOOTH"
);
}
);
width = 369;
}
);
leftKerningGroup = n;
leftMetricsKey = n;
note = r;
unicode = 0072;
},
{
glyphname = s;
lastChange = "2021-03-18 01:20:26 +0000";
layers = (
{
background = {
paths = (
{
closed = 1;
nodes = (
"49 35 LINE SMOOTH",
"48 33 OFFCURVE",
"48 31 OFFCURVE",
"48 29 CURVE",
"83 6 OFFCURVE",
"149 -5 OFFCURVE",
"183 -5 CURVE SMOOTH",
"258 -5 OFFCURVE",
"357 31 OFFCURVE",
"380 142 CURVE SMOOTH",
"403 249 OFFCURVE",
"328 255 OFFCURVE",
"258 261 CURVE SMOOTH",
"195 267 OFFCURVE",
"134 273 OFFCURVE",
"151 352 CURVE SMOOTH",
"161 401 OFFCURVE",
"221 447 OFFCURVE",
"314 447 CURVE SMOOTH",
"344 447 OFFCURVE",
"398 432 OFFCURVE",
"416 415 CURVE",
"418 414 OFFCURVE",
"422 413 OFFCURVE",
"423 415 CURVE",
"434 437 LINE",
"434 439 OFFCURVE",
"435 441 OFFCURVE",
"434 442 CURVE SMOOTH",
"411 465 OFFCURVE",
"354 477 OFFCURVE",
"320 477 CURVE SMOOTH",
"220 477 OFFCURVE",
"134 430 OFFCURVE",
"118 352 CURVE SMOOTH",
"95 246 OFFCURVE",
"165 237 OFFCURVE",
"234 231 CURVE SMOOTH",
"300 225 OFFCURVE",
"364 222 OFFCURVE",
"347 142 CURVE SMOOTH",
"330 59 OFFCURVE",
"257 25 OFFCURVE",
"189 25 CURVE SMOOTH",
"155 25 OFFCURVE",
"89 39 OFFCURVE",
"63 60 CURVE",
"61 63 OFFCURVE",
"58 63 OFFCURVE",
"58 60 CURVE SMOOTH"
);
}
);
};
hints = (
{
horizontal = 1;
place = "{-6, 30}";
type = Stem;
},
{
horizontal = 1;
place = "{446, 33}";
type = Stem;
},
{
place = "{59, 35}";
type = Stem;
},
{
place = "{327, 37}";
type = Stem;
}
);
layerId = "707362F1-A677-446A-8636-E10BE3A7FAFF";
paths = (
{
closed = 1;
nodes = (
"49 35 LINE SMOOTH",
"48 33 OFFCURVE",
"48 31 OFFCURVE",
"48 29 CURVE",
"83 6 OFFCURVE",
"149 -5 OFFCURVE",
"183 -5 CURVE SMOOTH",
"258 -5 OFFCURVE",
"357 31 OFFCURVE",
"380 142 CURVE SMOOTH",
"403 249 OFFCURVE",
"328 255 OFFCURVE",
"258 261 CURVE SMOOTH",
"195 267 OFFCURVE",
"134 273 OFFCURVE",
"151 352 CURVE SMOOTH",
"161 401 OFFCURVE",
"221 447 OFFCURVE",
"314 447 CURVE SMOOTH",
"344 447 OFFCURVE",
"398 432 OFFCURVE",
"416 415 CURVE",
"418 414 OFFCURVE",
"422 413 OFFCURVE",
"423 415 CURVE",
"434 437 LINE",
"434 439 OFFCURVE",
"435 441 OFFCURVE",
"434 442 CURVE SMOOTH",
"411 465 OFFCURVE",
"354 477 OFFCURVE",
"320 477 CURVE SMOOTH",
"220 477 OFFCURVE",
"134 430 OFFCURVE",
"118 352 CURVE SMOOTH",
"95 246 OFFCURVE",
"165 237 OFFCURVE",
"234 231 CURVE SMOOTH",
"300 225 OFFCURVE",
"364 222 OFFCURVE",
"347 142 CURVE SMOOTH",
"330 59 OFFCURVE",
"257 25 OFFCURVE",
"189 25 CURVE SMOOTH",
"155 25 OFFCURVE",
"89 39 OFFCURVE",
"63 60 CURVE",
"61 63 OFFCURVE",
"58 63 OFFCURVE",
"58 60 CURVE SMOOTH"
);
}
);
width = 403;
},
{
background = {
paths = (
{
closed = 1;
nodes = (
"32 54 LINE SMOOTH",
"28 46 OFFCURVE",
"32 41 OFFCURVE",
"37 37 CURVE SMOOTH",
"73 6 OFFCURVE",
"151 -5 OFFCURVE",
"190 -5 CURVE SMOOTH",
"277 -5 OFFCURVE",
"392 33 OFFCURVE",
"418 155 CURVE SMOOTH",
"442 267 OFFCURVE",
"340 298 OFFCURVE",
"292 302 CURVE SMOOTH",
"254 304 OFFCURVE",
"233 317 OFFCURVE",
"238 340 CURVE SMOOTH",
"242 358 OFFCURVE",
"266 369 OFFCURVE",
"302 369 CURVE SMOOTH",
"332 369 OFFCURVE",
"372 350 OFFCURVE",
"400 334 CURVE",
"409 330 OFFCURVE",
"419 333 OFFCURVE",
"423 341 CURVE",
"465 414 LINE",
"471 425 OFFCURVE",
"473 427 OFFCURVE",
"461 437 CURVE SMOOTH",
"428 466 OFFCURVE",
"360 477 OFFCURVE",
"326 477 CURVE SMOOTH",
"215 477 OFFCURVE",
"116 427 OFFCURVE",
"96 336 CURVE SMOOTH",
"71 217 OFFCURVE",
"155 194 OFFCURVE",
"205 185 CURVE SMOOTH",
"284 171 OFFCURVE",
"285 156 OFFCURVE",
"281 140 CURVE SMOOTH",
"273 114 OFFCURVE",
"246 105 OFFCURVE",
"211 105 CURVE SMOOTH",
"173 105 OFFCURVE",
"119 113 OFFCURVE",
"89 132 CURVE",
"81 138 OFFCURVE",
"71 144 OFFCURVE",
"63 127 CURVE SMOOTH"
);
}
);
};
layerId = "D1BC8BBB-1669-4C46-BC21-42BF6808B2B9";
paths = (
{
closed = 1;
nodes = (
"32 54 LINE SMOOTH",
"28 46 OFFCURVE",
"32 41 OFFCURVE",
"37 37 CURVE SMOOTH",
"73 6 OFFCURVE",
"151 -5 OFFCURVE",
"190 -5 CURVE SMOOTH",
"277 -5 OFFCURVE",
"392 33 OFFCURVE",
"418 155 CURVE SMOOTH",
"442 267 OFFCURVE",
"340 298 OFFCURVE",
"292 302 CURVE SMOOTH",
"254 304 OFFCURVE",
"233 317 OFFCURVE",
"238 340 CURVE SMOOTH",
"242 358 OFFCURVE",
"266 369 OFFCURVE",
"302 369 CURVE SMOOTH",
"332 369 OFFCURVE",
"372 350 OFFCURVE",
"400 334 CURVE",
"409 330 OFFCURVE",
"419 333 OFFCURVE",
"423 341 CURVE",
"465 414 LINE",
"471 425 OFFCURVE",
"473 427 OFFCURVE",
"461 437 CURVE SMOOTH",
"428 466 OFFCURVE",
"360 477 OFFCURVE",
"326 477 CURVE SMOOTH",
"215 477 OFFCURVE",
"116 427 OFFCURVE",
"96 336 CURVE SMOOTH",
"71 217 OFFCURVE",
"155 194 OFFCURVE",
"205 185 CURVE SMOOTH",
"284 171 OFFCURVE",
"285 156 OFFCURVE",
"281 140 CURVE SMOOTH",
"273 114 OFFCURVE",
"246 105 OFFCURVE",
"211 105 CURVE SMOOTH",
"173 105 OFFCURVE",
"119 113 OFFCURVE",
"89 132 CURVE",
"81 138 OFFCURVE",
"71 144 OFFCURVE",
"63 127 CURVE SMOOTH"
);
}
);
width = 410;
}
);
note = s;
unicode = 0073;
},
{
glyphname = t;
lastChange = "2021-03-18 01:22:27 +0000";
layers = (
{
background = {
paths = (
{
closed = 1;
nodes = (
"210 0 OFFCURVE",
"259 5 OFFCURVE",
"281 14 CURVE SMOOTH",
"289 18 OFFCURVE",
"291 19 OFFCURVE",
"290 25 CURVE SMOOTH",
"288 40 LINE SMOOTH",
"287 44 OFFCURVE",
"285 44 OFFCURVE",
"280 42 CURVE SMOOTH",
"255 34 OFFCURVE",
"233 29 OFFCURVE",
"212 29 CURVE SMOOTH",
"151 29 OFFCURVE",
"133 53 OFFCURVE",
"134 100 CURVE SMOOTH",
"134 160 OFFCURVE",
"151 224 OFFCURVE",
"163 283 CURVE SMOOTH",
"174 333 OFFCURVE",
"186 383 OFFCURVE",
"199 433 CURVE SMOOTH",
"200 439 OFFCURVE",
"206 442 OFFCURVE",
"209 442 CURVE SMOOTH",
"348 442 LINE SMOOTH",
"350 442 OFFCURVE",
"353 446 OFFCURVE",
"353 446 CURVE",
"357 468 LINE SMOOTH",
"358 470 OFFCURVE",
"356 472 OFFCURVE",
"354 472 CURVE SMOOTH",
"215 472 LINE SMOOTH",
"209 472 OFFCURVE",
"208 476 OFFCURVE",
"210 481 CURVE",
"234 572 LINE SMOOTH",
"234 575 OFFCURVE",
"232 576 OFFCURVE",
"230 576 CURVE SMOOTH",
"204 576 LINE SMOOTH",
"202 576 OFFCURVE",
"201 575 OFFCURVE",
"201 572 CURVE SMOOTH",
"176 480 LINE SMOOTH",
"174 473 OFFCURVE",
"171 472 OFFCURVE",
"166 472 CURVE SMOOTH",
"109 472 LINE SMOOTH",
"107 472 OFFCURVE",
"104 468 OFFCURVE",
"104 468 CURVE",
"100 446 LINE",
"100 446 OFFCURVE",
"101 442 OFFCURVE",
"103 442 CURVE SMOOTH",
"160 442 LINE SMOOTH",
"165 442 OFFCURVE",
"167 438 OFFCURVE",
"166 433 CURVE SMOOTH",
"153 385 OFFCURVE",
"141 336 OFFCURVE",
"131 287 CURVE SMOOTH",
"116 218 OFFCURVE",
"100 153 OFFCURVE",
"99 96 CURVE SMOOTH",
"97 34 OFFCURVE",
"123 0 OFFCURVE",
"201 0 CURVE SMOOTH"
);
}
);
};
hints = (
{
horizontal = 1;
place = "{-8, 30}";
type = Stem;
},
{
horizontal = 1;
place = "{254, 28}";
type = Stem;
},
{
horizontal = 1;
place = "{442, 30}";
type = Stem;
},
{
horizontal = 1;
place = "{682, 30}";
type = Stem;
},
{
place = "{43, 34}";
type = Stem;
},
{
place = "{89, 33}";
type = Stem;
},
{
place = "{130, 33}";
type = Stem;
},
{
place = "{384, 33}";
type = Stem;
},
{
horizontal = 1;
place = "{446, 31}";
type = Stem;
},
{
horizontal = 1;
place = "{4, 21}";
target = up;
type = BottomGhost;
},
{
horizontal = 1;
place = "{13, 29}";
type = Stem;
},
{
horizontal = 1;
place = "{0, 29}";
type = Stem;
}
);
layerId = "707362F1-A677-446A-8636-E10BE3A7FAFF";
paths = (
{
closed = 1;
nodes = (
"210 0 OFFCURVE",
"259 5 OFFCURVE",
"281 14 CURVE SMOOTH",
"289 18 OFFCURVE",
"291 19 OFFCURVE",
"290 25 CURVE SMOOTH",
"288 40 LINE SMOOTH",
"287 44 OFFCURVE",
"285 44 OFFCURVE",
"280 42 CURVE SMOOTH",
"255 34 OFFCURVE",
"233 29 OFFCURVE",
"212 29 CURVE SMOOTH",
"151 29 OFFCURVE",
"133 53 OFFCURVE",
"134 100 CURVE SMOOTH",
"134 160 OFFCURVE",
"151 224 OFFCURVE",
"163 283 CURVE SMOOTH",
"174 333 OFFCURVE",
"186 383 OFFCURVE",
"199 433 CURVE SMOOTH",
"200 439 OFFCURVE",
"206 442 OFFCURVE",
"209 442 CURVE SMOOTH",
"348 442 LINE SMOOTH",
"350 442 OFFCURVE",
"353 446 OFFCURVE",
"353 446 CURVE",
"357 468 LINE SMOOTH",
"358 470 OFFCURVE",
"356 472 OFFCURVE",
"354 472 CURVE SMOOTH",
"215 472 LINE SMOOTH",
"209 472 OFFCURVE",
"208 476 OFFCURVE",
"210 481 CURVE",
"234 572 LINE SMOOTH",
"234 575 OFFCURVE",
"232 576 OFFCURVE",
"230 576 CURVE SMOOTH",
"204 576 LINE SMOOTH",
"202 576 OFFCURVE",
"201 575 OFFCURVE",
"201 572 CURVE SMOOTH",
"176 480 LINE SMOOTH",
"174 473 OFFCURVE",
"171 472 OFFCURVE",
"166 472 CURVE SMOOTH",
"109 472 LINE SMOOTH",
"107 472 OFFCURVE",
"104 468 OFFCURVE",
"104 468 CURVE",
"100 446 LINE",
"100 446 OFFCURVE",
"101 442 OFFCURVE",
"103 442 CURVE SMOOTH",
"160 442 LINE SMOOTH",
"165 442 OFFCURVE",
"167 438 OFFCURVE",
"166 433 CURVE SMOOTH",
"153 385 OFFCURVE",
"141 336 OFFCURVE",
"131 287 CURVE SMOOTH",
"116 218 OFFCURVE",
"100 153 OFFCURVE",
"99 96 CURVE SMOOTH",
"97 34 OFFCURVE",
"123 0 OFFCURVE",
"201 0 CURVE SMOOTH"
);
}
);
width = 308;
},
{
background = {
paths = (
{
closed = 1;
nodes = (
"255 0 OFFCURVE",
"283 5 OFFCURVE",
"310 14 CURVE SMOOTH",
"338 24 OFFCURVE",
"349 31 OFFCURVE",
"346 42 CURVE",
"341 111 LINE",
"338 125 OFFCURVE",
"338 130 OFFCURVE",
"319 120 CURVE",
"310 117 OFFCURVE",
"294 111 OFFCURVE",
"279 111 CURVE SMOOTH",
"263 111 OFFCURVE",
"250 118 OFFCURVE",
"249 140 CURVE SMOOTH",
"248 180 OFFCURVE",
"256 226 OFFCURVE",
"265 270 CURVE SMOOTH",
"274 304 OFFCURVE",
"282 337 OFFCURVE",
"289 368 CURVE SMOOTH",
"292 379 OFFCURVE",
"294 383 OFFCURVE",
"304 383 CURVE SMOOTH",
"376 383 LINE SMOOTH",
"391 383 OFFCURVE",
"395 385 OFFCURVE",
"398 400 CURVE SMOOTH",
"409 453 LINE SMOOTH",
"413 471 OFFCURVE",
"413 472 OFFCURVE",
"397 472 CURVE SMOOTH",
"324 472 LINE SMOOTH",
"316 472 OFFCURVE",
"316 473 OFFCURVE",
"320 490 CURVE SMOOTH",
"340 562 LINE SMOOTH",
"342 570 OFFCURVE",
"335 576 OFFCURVE",
"327 576 CURVE SMOOTH",
"213 576 LINE SMOOTH",
"204 576 OFFCURVE",
"198 570 OFFCURVE",
"196 562 CURVE SMOOTH",
"177 491 LINE SMOOTH",
"174 478 OFFCURVE",
"172 472 OFFCURVE",
"162 472 CURVE SMOOTH",
"123 472 LINE SMOOTH",
"107 472 OFFCURVE",
"106 473 OFFCURVE",
"102 455 CURVE SMOOTH",
"90 399 LINE SMOOTH",
"86 383 OFFCURVE",
"89 383 OFFCURVE",
"101 383 CURVE SMOOTH",
"139 383 LINE SMOOTH",
"145 383 OFFCURVE",
"148 381 OFFCURVE",
"146 373 CURVE SMOOTH",
"137 340 OFFCURVE",
"133 319 OFFCURVE",
"125 282 CURVE SMOOTH",
"113 225 OFFCURVE",
"99 166 OFFCURVE",
"98 110 CURVE SMOOTH",
"99 40 OFFCURVE",
"132 0 OFFCURVE",
"225 0 CURVE SMOOTH"
);
}
);
};
layerId = "D1BC8BBB-1669-4C46-BC21-42BF6808B2B9";
paths = (
{
closed = 1;
nodes = (
"255 0 OFFCURVE",
"283 5 OFFCURVE",
"310 14 CURVE SMOOTH",
"338 24 OFFCURVE",
"349 31 OFFCURVE",
"346 42 CURVE",
"341 111 LINE",
"338 125 OFFCURVE",
"338 130 OFFCURVE",
"319 120 CURVE",
"310 117 OFFCURVE",
"294 111 OFFCURVE",
"279 111 CURVE SMOOTH",
"263 111 OFFCURVE",
"250 118 OFFCURVE",
"249 140 CURVE SMOOTH",
"248 180 OFFCURVE",
"256 226 OFFCURVE",
"265 270 CURVE SMOOTH",
"274 304 OFFCURVE",
"282 337 OFFCURVE",
"289 368 CURVE SMOOTH",
"292 379 OFFCURVE",
"294 383 OFFCURVE",
"304 383 CURVE SMOOTH",
"376 383 LINE SMOOTH",
"391 383 OFFCURVE",
"395 385 OFFCURVE",
"398 400 CURVE SMOOTH",
"409 453 LINE SMOOTH",
"413 471 OFFCURVE",
"413 472 OFFCURVE",
"397 472 CURVE SMOOTH",
"324 472 LINE SMOOTH",
"316 472 OFFCURVE",
"316 473 OFFCURVE",
"320 490 CURVE SMOOTH",
"340 562 LINE SMOOTH",
"342 570 OFFCURVE",
"335 576 OFFCURVE",
"327 576 CURVE SMOOTH",
"213 576 LINE SMOOTH",
"204 576 OFFCURVE",
"198 570 OFFCURVE",
"196 562 CURVE SMOOTH",
"177 491 LINE SMOOTH",
"174 478 OFFCURVE",
"172 472 OFFCURVE",
"162 472 CURVE SMOOTH",
"123 472 LINE SMOOTH",
"107 472 OFFCURVE",
"106 473 OFFCURVE",
"102 455 CURVE SMOOTH",
"90 399 LINE SMOOTH",
"86 383 OFFCURVE",
"89 383 OFFCURVE",
"101 383 CURVE SMOOTH",
"139 383 LINE SMOOTH",
"145 383 OFFCURVE",
"148 381 OFFCURVE",
"146 373 CURVE SMOOTH",
"137 340 OFFCURVE",
"133 319 OFFCURVE",
"125 282 CURVE SMOOTH",
"113 225 OFFCURVE",
"99 166 OFFCURVE",
"98 110 CURVE SMOOTH",
"99 40 OFFCURVE",
"132 0 OFFCURVE",
"225 0 CURVE SMOOTH"
);
}
);
width = 339;
}
);
note = t;
unicode = 0074;
},
{
glyphname = u;
lastChange = "2021-03-18 01:40:58 +0000";
layers = (
{
background = {
paths = (
{
closed = 1;
nodes = (
"292 -4 OFFCURVE",
"367 13 OFFCURVE",
"382 19 CURVE SMOOTH",
"406 27 OFFCURVE",
"413 32 OFFCURVE",
"416 48 CURVE SMOOTH",
"505 468 LINE SMOOTH",
"506 471 OFFCURVE",
"504 472 OFFCURVE",
"502 472 CURVE SMOOTH",
"476 472 LINE SMOOTH",
"474 472 OFFCURVE",
"473 471 OFFCURVE",
"472 468 CURVE SMOOTH",
"388 71 LINE SMOOTH",
"381 38 OFFCURVE",
"275 28 OFFCURVE",
"248 28 CURVE SMOOTH",
"142 28 OFFCURVE",
"116 104 OFFCURVE",
"140 215 CURVE SMOOTH",
"162 320 OFFCURVE",
"195 444 OFFCURVE",
"201 465 CURVE SMOOTH",
"203 471 OFFCURVE",
"202 472 OFFCURVE",
"196 472 CURVE SMOOTH",
"179 472 LINE SMOOTH",
"173 472 OFFCURVE",
"170 471 OFFCURVE",
"168 467 CURVE",
"159 431 OFFCURVE",
"129 322 OFFCURVE",
"107 219 CURVE SMOOTH",
"81 94 OFFCURVE",
"97 -4 OFFCURVE",
"243 -4 CURVE SMOOTH"
);
},
{
closed = 1;
nodes = (
"463 288 OFFCURVE",
"470 295 OFFCURVE",
"470 304 CURVE SMOOTH",
"470 313 OFFCURVE",
"463 320 OFFCURVE",
"454 320 CURVE SMOOTH",
"444 320 OFFCURVE",
"438 313 OFFCURVE",
"438 304 CURVE SMOOTH",
"438 295 OFFCURVE",
"444 288 OFFCURVE",
"454 288 CURVE SMOOTH"
);
}
);
};
hints = (
{
horizontal = 1;
place = "{-5, 32}";
type = Stem;
},
{
horizontal = 1;
place = "{448, 32}";
type = Stem;
},
{
place = "{59, 34}";
type = Stem;
},
{
place = "{384, 34}";
type = Stem;
},
{
horizontal = 1;
place = "{473, -20}";
target = down;
type = TopGhost;
},
{
place = "{373, 34}";
type = Stem;
}
);
layerId = "707362F1-A677-446A-8636-E10BE3A7FAFF";
paths = (
{
closed = 1;
nodes = (
"292 -4 OFFCURVE",
"367 13 OFFCURVE",
"382 19 CURVE SMOOTH",
"406 27 OFFCURVE",
"413 32 OFFCURVE",
"416 48 CURVE SMOOTH",
"505 468 LINE SMOOTH",
"506 471 OFFCURVE",
"504 472 OFFCURVE",
"502 472 CURVE SMOOTH",
"476 472 LINE SMOOTH",
"474 472 OFFCURVE",
"473 471 OFFCURVE",
"472 468 CURVE SMOOTH",
"388 71 LINE SMOOTH",
"381 38 OFFCURVE",
"275 28 OFFCURVE",
"248 28 CURVE SMOOTH",
"142 28 OFFCURVE",
"116 104 OFFCURVE",
"140 215 CURVE SMOOTH",
"162 320 OFFCURVE",
"195 444 OFFCURVE",
"201 465 CURVE SMOOTH",
"203 471 OFFCURVE",
"202 472 OFFCURVE",
"196 472 CURVE SMOOTH",
"179 472 LINE SMOOTH",
"173 472 OFFCURVE",
"170 471 OFFCURVE",
"168 467 CURVE",
"159 431 OFFCURVE",
"129 322 OFFCURVE",
"107 219 CURVE SMOOTH",
"81 94 OFFCURVE",
"97 -4 OFFCURVE",
"243 -4 CURVE SMOOTH"
);
}
);
width = 465;
},
{
background = {
paths = (
{
closed = 1;
nodes = (
"296 -4 OFFCURVE",
"374 12 OFFCURVE",
"400 20 CURVE SMOOTH",
"433 31 OFFCURVE",
"441 34 OFFCURVE",
"444 50 CURVE SMOOTH",
"531 457 LINE SMOOTH",
"534 471 OFFCURVE",
"523 472 OFFCURVE",
"518 472 CURVE SMOOTH",
"398 472 LINE SMOOTH",
"389 472 OFFCURVE",
"387 460 OFFCURVE",
"385 452 CURVE SMOOTH",
"315 125 LINE SMOOTH",
"312 109 OFFCURVE",
"286 109 OFFCURVE",
"275 109 CURVE SMOOTH",
"230 109 OFFCURVE",
"219 139 OFFCURVE",
"236 218 CURVE SMOOTH",
"253 298 OFFCURVE",
"291 440 OFFCURVE",
"295 451 CURVE SMOOTH",
"304 478 OFFCURVE",
"293 472 OFFCURVE",
"273 472 CURVE SMOOTH",
"179 472 LINE SMOOTH",
"158 472 OFFCURVE",
"155 472 OFFCURVE",
"146 444 CURVE SMOOTH",
"123 376 OFFCURVE",
"100 291 OFFCURVE",
"85 222 CURVE SMOOTH",
"59 100 OFFCURVE",
"78 -4 OFFCURVE",
"247 -4 CURVE SMOOTH"
);
}
);
};
layerId = "D1BC8BBB-1669-4C46-BC21-42BF6808B2B9";
paths = (
{
closed = 1;
nodes = (
"296 -4 OFFCURVE",
"374 12 OFFCURVE",
"400 20 CURVE SMOOTH",
"433 31 OFFCURVE",
"441 34 OFFCURVE",
"444 50 CURVE SMOOTH",
"531 457 LINE SMOOTH",
"534 471 OFFCURVE",
"523 472 OFFCURVE",
"518 472 CURVE SMOOTH",
"398 472 LINE SMOOTH",
"389 472 OFFCURVE",
"387 460 OFFCURVE",
"385 452 CURVE SMOOTH",
"315 125 LINE SMOOTH",
"312 109 OFFCURVE",
"286 109 OFFCURVE",
"275 109 CURVE SMOOTH",
"230 109 OFFCURVE",
"219 139 OFFCURVE",
"236 218 CURVE SMOOTH",
"253 298 OFFCURVE",
"291 440 OFFCURVE",
"295 451 CURVE SMOOTH",
"304 478 OFFCURVE",
"293 472 OFFCURVE",
"273 472 CURVE SMOOTH",
"179 472 LINE SMOOTH",
"158 472 OFFCURVE",
"155 472 OFFCURVE",
"146 444 CURVE SMOOTH",
"123 376 OFFCURVE",
"100 291 OFFCURVE",
"85 222 CURVE SMOOTH",
"59 100 OFFCURVE",
"78 -4 OFFCURVE",
"247 -4 CURVE SMOOTH"
);
}
);
width = 474;
}
);
note = u;
unicode = 0075;
},
{
glyphname = v;
lastChange = "2021-04-15 03:47:45 +0000";
layers = (
{
background = {
paths = (
{
closed = 1;
nodes = (
"169 0 OFFCURVE",
"193 0 OFFCURVE",
"199 0 CURVE SMOOTH",
"202 0 OFFCURVE",
"205 1 OFFCURVE",
"208 6 CURVE SMOOTH",
"252 67 OFFCURVE",
"294 137 OFFCURVE",
"330 204 CURVE SMOOTH",
"385 306 OFFCURVE",
"428 403 OFFCURVE",
"449 465 CURVE SMOOTH",
"451 471 OFFCURVE",
"449 472 OFFCURVE",
"445 472 CURVE SMOOTH",
"422 472 LINE SMOOTH",
"418 472 OFFCURVE",
"414 471 OFFCURVE",
"412 465 CURVE SMOOTH",
"393 410 OFFCURVE",
"351 317 OFFCURVE",
"308 230 CURVE SMOOTH",
"267 150 OFFCURVE",
"224 76 OFFCURVE",
"196 44 CURVE SMOOTH",
"194 40 OFFCURVE",
"188 39 OFFCURVE",
"187 44 CURVE",
"172 80 OFFCURVE",
"159 168 OFFCURVE",
"152 257 CURVE SMOOTH",
"145 336 OFFCURVE",
"143 416 OFFCURVE",
"148 465 CURVE SMOOTH",
"148 471 OFFCURVE",
"144 472 OFFCURVE",
"141 472 CURVE SMOOTH",
"117 472 LINE SMOOTH",
"114 472 OFFCURVE",
"111 471 OFFCURVE",
"111 465 CURVE SMOOTH",
"106 400 OFFCURVE",
"108 296 OFFCURVE",
"120 190 CURVE SMOOTH",
"128 127 OFFCURVE",
"139 63 OFFCURVE",
"156 6 CURVE SMOOTH",
"158 0 OFFCURVE",
"160 0 OFFCURVE",
"165 0 CURVE SMOOTH"
);
},
{
closed = 1;
nodes = (
"169 0 OFFCURVE",
"193 0 OFFCURVE",
"199 0 CURVE SMOOTH",
"202 0 OFFCURVE",
"205 1 OFFCURVE",
"208 6 CURVE SMOOTH",
"252 67 OFFCURVE",
"294 137 OFFCURVE",
"330 204 CURVE SMOOTH",
"385 306 OFFCURVE",
"428 403 OFFCURVE",
"449 465 CURVE SMOOTH",
"451 471 OFFCURVE",
"449 472 OFFCURVE",
"445 472 CURVE SMOOTH",
"422 472 LINE SMOOTH",
"418 472 OFFCURVE",
"414 471 OFFCURVE",
"412 465 CURVE SMOOTH",
"393 410 OFFCURVE",
"351 317 OFFCURVE",
"308 230 CURVE SMOOTH",
"267 150 OFFCURVE",
"224 76 OFFCURVE",
"196 44 CURVE SMOOTH",
"194 40 OFFCURVE",
"188 39 OFFCURVE",
"187 44 CURVE",
"172 80 OFFCURVE",
"159 168 OFFCURVE",
"152 257 CURVE SMOOTH",
"145 336 OFFCURVE",
"143 416 OFFCURVE",
"148 465 CURVE SMOOTH",
"148 471 OFFCURVE",
"144 472 OFFCURVE",
"141 472 CURVE SMOOTH",
"117 472 LINE SMOOTH",
"114 472 OFFCURVE",
"111 471 OFFCURVE",
"111 465 CURVE SMOOTH",
"106 400 OFFCURVE",
"108 296 OFFCURVE",
"120 190 CURVE SMOOTH",
"128 127 OFFCURVE",
"139 63 OFFCURVE",
"156 6 CURVE SMOOTH",
"158 0 OFFCURVE",
"160 0 OFFCURVE",
"165 0 CURVE SMOOTH"
);
},
{
closed = 1;
nodes = (
"140 227 OFFCURVE",
"147 234 OFFCURVE",
"147 243 CURVE SMOOTH",
"147 252 OFFCURVE",
"140 259 OFFCURVE",
"131 259 CURVE SMOOTH",
"121 259 OFFCURVE",
"115 252 OFFCURVE",
"115 243 CURVE SMOOTH",
"115 234 OFFCURVE",
"121 227 OFFCURVE",
"131 227 CURVE SMOOTH"
);
},
{
closed = 1;
nodes = (
"342 227 OFFCURVE",
"349 234 OFFCURVE",
"349 243 CURVE SMOOTH",
"349 252 OFFCURVE",
"342 259 OFFCURVE",
"333 259 CURVE SMOOTH",
"323 259 OFFCURVE",
"317 252 OFFCURVE",
"317 243 CURVE SMOOTH",
"317 234 OFFCURVE",
"323 227 OFFCURVE",
"333 227 CURVE SMOOTH"
);
},
{
closed = 1;
nodes = (
"169 0 OFFCURVE",
"193 0 OFFCURVE",
"199 0 CURVE SMOOTH",
"203 0 OFFCURVE",
"206 3 OFFCURVE",
"208 6 CURVE SMOOTH",
"252 67 OFFCURVE",
"294 137 OFFCURVE",
"335 214 CURVE SMOOTH",
"385 306 OFFCURVE",
"428 403 OFFCURVE",
"449 465 CURVE SMOOTH",
"451 471 OFFCURVE",
"449 472 OFFCURVE",
"445 472 CURVE SMOOTH",
"422 472 LINE SMOOTH",
"418 472 OFFCURVE",
"414 471 OFFCURVE",
"412 465 CURVE SMOOTH",
"393 409 OFFCURVE",
"354 317 OFFCURVE",
"308 230 CURVE SMOOTH",
"266 150 OFFCURVE",
"223 76 OFFCURVE",
"202 51 CURVE SMOOTH",
"193 41 OFFCURVE",
"184 34 OFFCURVE",
"178 52 CURVE SMOOTH",
"167 80 OFFCURVE",
"154 168 OFFCURVE",
"147 257 CURVE SMOOTH",
"141 336 OFFCURVE",
"138 416 OFFCURVE",
"143 465 CURVE SMOOTH",
"143 471 OFFCURVE",
"139 472 OFFCURVE",
"136 472 CURVE SMOOTH",
"117 472 LINE SMOOTH",
"114 472 OFFCURVE",
"111 471 OFFCURVE",
"111 465 CURVE SMOOTH",
"106 400 OFFCURVE",
"108 296 OFFCURVE",
"120 190 CURVE SMOOTH",
"128 127 OFFCURVE",
"139 61 OFFCURVE",
"156 6 CURVE SMOOTH",
"158 1 OFFCURVE",
"160 0 OFFCURVE",
"165 0 CURVE SMOOTH"
);
}
);
};
hints = (
{
horizontal = 1;
place = "{0, 37}";
type = Stem;
},
{
horizontal = 1;
place = "{472, -20}";
target = down;
type = TopGhost;
},
{
place = "{38, 335}";
type = Stem;
}
);
layerId = "707362F1-A677-446A-8636-E10BE3A7FAFF";
paths = (
{
closed = 1;
nodes = (
"199 0 LINE SMOOTH",
"203 0 OFFCURVE",
"206 3 OFFCURVE",
"208 6 CURVE SMOOTH",
"252 67 OFFCURVE",
"294 137 OFFCURVE",
"335 214 CURVE SMOOTH",
"385 306 OFFCURVE",
"428 403 OFFCURVE",
"449 465 CURVE SMOOTH",
"451 471 OFFCURVE",
"449 472 OFFCURVE",
"445 472 CURVE SMOOTH",
"422 472 LINE SMOOTH",
"418 472 OFFCURVE",
"414 471 OFFCURVE",
"412 465 CURVE SMOOTH",
"393 409 OFFCURVE",
"354 317 OFFCURVE",
"308 230 CURVE SMOOTH",
"266 150 OFFCURVE",
"223 76 OFFCURVE",
"202 51 CURVE SMOOTH",
"193 41 OFFCURVE",
"184 34 OFFCURVE",
"178 52 CURVE SMOOTH",
"167 80 OFFCURVE",
"154 168 OFFCURVE",
"147 257 CURVE SMOOTH",
"141 336 OFFCURVE",
"138 416 OFFCURVE",
"143 465 CURVE SMOOTH",
"143 471 OFFCURVE",
"139 472 OFFCURVE",
"136 472 CURVE SMOOTH",
"117 472 LINE SMOOTH",
"114 472 OFFCURVE",
"111 471 OFFCURVE",
"111 465 CURVE SMOOTH",
"106 400 OFFCURVE",
"108 296 OFFCURVE",
"120 190 CURVE SMOOTH",
"128 127 OFFCURVE",
"139 61 OFFCURVE",
"156 6 CURVE SMOOTH",
"158 1 OFFCURVE",
"160 0 OFFCURVE",
"165 0 CURVE SMOOTH"
);
}
);
width = 386;
},
{
background = {
paths = (
{
closed = 1;
nodes = (
"170 0 OFFCURVE",
"238 -1 OFFCURVE",
"245 -1 CURVE SMOOTH",
"249 -1 OFFCURVE",
"251 0 OFFCURVE",
"255 5 CURVE SMOOTH",
"306 70 OFFCURVE",
"344 129 OFFCURVE",
"376 186 CURVE SMOOTH",
"430 281 OFFCURVE",
"472 373 OFFCURVE",
"505 464 CURVE SMOOTH",
"507 470 OFFCURVE",
"505 471 OFFCURVE",
"501 471 CURVE SMOOTH",
"369 471 LINE SMOOTH",
"367 471 OFFCURVE",
"365 470 OFFCURVE",
"363 466 CURVE SMOOTH",
"352 429 OFFCURVE",
"329 366 OFFCURVE",
"306 308 CURVE SMOOTH",
"283 254 OFFCURVE",
"273 228 OFFCURVE",
"261 206 CURVE SMOOTH",
"255 195 OFFCURVE",
"244 188 OFFCURVE",
"245 209 CURVE",
"242 241 OFFCURVE",
"241 272 OFFCURVE",
"242 332 CURVE SMOOTH",
"242 385 OFFCURVE",
"242 420 OFFCURVE",
"247 457 CURVE SMOOTH",
"248 464 OFFCURVE",
"244 472 OFFCURVE",
"233 472 CURVE SMOOTH",
"110 472 LINE SMOOTH",
"95 472 OFFCURVE",
"93 454 OFFCURVE",
"92 432 CURVE SMOOTH",
"90 370 OFFCURVE",
"92 296 OFFCURVE",
"110 190 CURVE SMOOTH",
"120 127 OFFCURVE",
"130 61 OFFCURVE",
"155 6 CURVE SMOOTH",
"158 0 OFFCURVE",
"160 0 OFFCURVE",
"166 0 CURVE SMOOTH"
);
},
{
closed = 1;
nodes = (
"170 0 OFFCURVE",
"238 -1 OFFCURVE",
"245 -1 CURVE SMOOTH",
"249 -1 OFFCURVE",
"251 0 OFFCURVE",
"255 5 CURVE SMOOTH",
"306 70 OFFCURVE",
"344 129 OFFCURVE",
"376 186 CURVE SMOOTH",
"430 281 OFFCURVE",
"472 373 OFFCURVE",
"505 464 CURVE SMOOTH",
"507 470 OFFCURVE",
"505 471 OFFCURVE",
"501 471 CURVE SMOOTH",
"369 471 LINE SMOOTH",
"367 471 OFFCURVE",
"365 470 OFFCURVE",
"363 466 CURVE SMOOTH",
"352 429 OFFCURVE",
"329 366 OFFCURVE",
"306 308 CURVE SMOOTH",
"283 254 OFFCURVE",
"273 228 OFFCURVE",
"261 206 CURVE SMOOTH",
"255 195 OFFCURVE",
"244 188 OFFCURVE",
"245 209 CURVE SMOOTH",
"242 241 OFFCURVE",
"241 272 OFFCURVE",
"242 332 CURVE SMOOTH",
"242 385 OFFCURVE",
"242 420 OFFCURVE",
"247 457 CURVE SMOOTH",
"248 464 OFFCURVE",
"244 472 OFFCURVE",
"233 472 CURVE SMOOTH",
"110 472 LINE SMOOTH",
"95 472 OFFCURVE",
"93 454 OFFCURVE",
"92 432 CURVE SMOOTH",
"90 370 OFFCURVE",
"92 296 OFFCURVE",
"110 190 CURVE SMOOTH",
"120 127 OFFCURVE",
"130 61 OFFCURVE",
"155 6 CURVE SMOOTH",
"158 0 OFFCURVE",
"160 0 OFFCURVE",
"166 0 CURVE SMOOTH"
);
}
);
};
layerId = "D1BC8BBB-1669-4C46-BC21-42BF6808B2B9";
paths = (
{
closed = 1;
nodes = (
"245 -1 LINE SMOOTH",
"249 -1 OFFCURVE",
"251 0 OFFCURVE",
"255 5 CURVE SMOOTH",
"306 70 OFFCURVE",
"344 129 OFFCURVE",
"376 186 CURVE SMOOTH",
"430 281 OFFCURVE",
"472 373 OFFCURVE",
"505 464 CURVE SMOOTH",
"507 470 OFFCURVE",
"505 471 OFFCURVE",
"501 471 CURVE SMOOTH",
"369 471 LINE SMOOTH",
"367 471 OFFCURVE",
"365 470 OFFCURVE",
"363 466 CURVE",
"352 429 OFFCURVE",
"329 366 OFFCURVE",
"306 308 CURVE SMOOTH",
"283 254 OFFCURVE",
"273 228 OFFCURVE",
"261 206 CURVE SMOOTH",
"255 194 OFFCURVE",
"246 192 OFFCURVE",
"245 206 CURVE SMOOTH",
"243 241 OFFCURVE",
"241 272 OFFCURVE",
"242 332 CURVE SMOOTH",
"242 385 OFFCURVE",
"242 420 OFFCURVE",
"247 457 CURVE SMOOTH",
"248 464 OFFCURVE",
"244 472 OFFCURVE",
"233 472 CURVE SMOOTH",
"110 472 LINE SMOOTH",
"95 472 OFFCURVE",
"93 454 OFFCURVE",
"92 432 CURVE SMOOTH",
"90 370 OFFCURVE",
"92 296 OFFCURVE",
"110 190 CURVE SMOOTH",
"120 127 OFFCURVE",
"130 61 OFFCURVE",
"155 6 CURVE SMOOTH",
"158 0 OFFCURVE",
"160 0 OFFCURVE",
"166 0 CURVE SMOOTH"
);
}
);
width = 424;
}
);
note = v;
unicode = 0076;
},
{
glyphname = w;
lastChange = "2021-03-18 02:18:18 +0000";
layers = (
{
background = {
paths = (
{
closed = 1;
nodes = (
"171 0 OFFCURVE",
"173 0 OFFCURVE",
"178 0 CURVE SMOOTH",
"212 0 LINE SMOOTH",
"215 0 OFFCURVE",
"218 1 OFFCURVE",
"221 6 CURVE SMOOTH",
"234 25 OFFCURVE",
"249 45 OFFCURVE",
"262 65 CURVE SMOOTH",
"290 110 OFFCURVE",
"318 157 OFFCURVE",
"342 204 CURVE",
"348 212 OFFCURVE",
"353 214 OFFCURVE",
"354 204 CURVE SMOOTH",
"358 154 OFFCURVE",
"372 67 OFFCURVE",
"391 6 CURVE",
"392 0 OFFCURVE",
"395 0 OFFCURVE",
"399 0 CURVE SMOOTH",
"434 0 LINE SMOOTH",
"437 0 OFFCURVE",
"440 1 OFFCURVE",
"443 6 CURVE SMOOTH",
"553 158 OFFCURVE",
"648 362 OFFCURVE",
"684 465 CURVE SMOOTH",
"686 471 OFFCURVE",
"684 472 OFFCURVE",
"680 472 CURVE SMOOTH",
"656 472 LINE SMOOTH",
"653 472 OFFCURVE",
"649 471 OFFCURVE",
"647 465 CURVE SMOOTH",
"612 360 OFFCURVE",
"490 111 OFFCURVE",
"431 44 CURVE SMOOTH",
"428 40 OFFCURVE",
"423 39 OFFCURVE",
"421 44 CURVE SMOOTH",
"406 81 OFFCURVE",
"374 270 OFFCURVE",
"384 317 CURVE SMOOTH",
"401 395 OFFCURVE",
"409 439 OFFCURVE",
"415 465 CURVE SMOOTH",
"416 471 OFFCURVE",
"411 472 OFFCURVE",
"408 472 CURVE SMOOTH",
"386 472 LINE SMOOTH",
"382 472 OFFCURVE",
"381 471 OFFCURVE",
"380 465 CURVE SMOOTH",
"374 439 OFFCURVE",
"355 342 OFFCURVE",
"350 318 CURVE SMOOTH",
"339 269 OFFCURVE",
"265 107 OFFCURVE",
"209 44 CURVE SMOOTH",
"207 40 OFFCURVE",
"201 39 OFFCURVE",
"200 44 CURVE",
"172 111 OFFCURVE",
"152 360 OFFCURVE",
"161 465 CURVE SMOOTH",
"161 471 OFFCURVE",
"157 472 OFFCURVE",
"154 472 CURVE SMOOTH",
"130 472 LINE SMOOTH",
"127 472 OFFCURVE",
"124 471 OFFCURVE",
"124 465 CURVE SMOOTH",
"117 362 OFFCURVE",
"125 158 OFFCURVE",
"169 6 CURVE SMOOTH"
);
},
{
closed = 1;
nodes = (
"150 277 OFFCURVE",
"157 284 OFFCURVE",
"157 293 CURVE SMOOTH",
"157 302 OFFCURVE",
"150 309 OFFCURVE",
"141 309 CURVE SMOOTH",
"131 309 OFFCURVE",
"125 302 OFFCURVE",
"125 293 CURVE SMOOTH",
"125 284 OFFCURVE",
"131 277 OFFCURVE",
"141 277 CURVE SMOOTH"
);
},
{
closed = 1;
nodes = (
"387 351 OFFCURVE",
"394 358 OFFCURVE",
"394 367 CURVE SMOOTH",
"394 376 OFFCURVE",
"387 383 OFFCURVE",
"378 383 CURVE SMOOTH",
"368 383 OFFCURVE",
"362 376 OFFCURVE",
"362 367 CURVE SMOOTH",
"362 358 OFFCURVE",
"368 351 OFFCURVE",
"378 351 CURVE SMOOTH"
);
},
{
closed = 1;
nodes = (
"606 287 OFFCURVE",
"613 294 OFFCURVE",
"613 303 CURVE SMOOTH",
"613 312 OFFCURVE",
"606 319 OFFCURVE",
"597 319 CURVE SMOOTH",
"587 319 OFFCURVE",
"581 312 OFFCURVE",
"581 303 CURVE SMOOTH",
"581 294 OFFCURVE",
"587 287 OFFCURVE",
"597 287 CURVE SMOOTH"
);
},
{
closed = 1;
nodes = (
"398 84 OFFCURVE",
"405 91 OFFCURVE",
"405 100 CURVE SMOOTH",
"405 109 OFFCURVE",
"398 116 OFFCURVE",
"389 116 CURVE SMOOTH",
"379 116 OFFCURVE",
"373 109 OFFCURVE",
"373 100 CURVE SMOOTH",
"373 91 OFFCURVE",
"379 84 OFFCURVE",
"389 84 CURVE SMOOTH"
);
}
);
};
hints = (
{
horizontal = 1;
place = "{0, 37}";
type = Stem;
},
{
horizontal = 1;
place = "{472, -20}";
target = down;
type = TopGhost;
},
{
place = "{38, 549}";
type = Stem;
}
);
layerId = "707362F1-A677-446A-8636-E10BE3A7FAFF";
paths = (
{
closed = 1;
nodes = (
"212 0 LINE SMOOTH",
"215 0 OFFCURVE",
"218 1 OFFCURVE",
"221 6 CURVE SMOOTH",
"234 25 OFFCURVE",
"249 45 OFFCURVE",
"262 65 CURVE SMOOTH",
"290 110 OFFCURVE",
"318 160 OFFCURVE",
"342 205 CURVE SMOOTH",
"346 213 OFFCURVE",
"353 214 OFFCURVE",
"354 204 CURVE SMOOTH",
"359 154 OFFCURVE",
"376 65 OFFCURVE",
"395 6 CURVE SMOOTH",
"396 2 OFFCURVE",
"399 0 OFFCURVE",
"403 0 CURVE SMOOTH",
"434 0 LINE SMOOTH",
"437 0 OFFCURVE",
"440 1 OFFCURVE",
"443 6 CURVE SMOOTH",
"553 158 OFFCURVE",
"648 362 OFFCURVE",
"684 465 CURVE SMOOTH",
"686 471 OFFCURVE",
"684 472 OFFCURVE",
"680 472 CURVE SMOOTH",
"656 472 LINE SMOOTH",
"653 472 OFFCURVE",
"649 471 OFFCURVE",
"647 465 CURVE SMOOTH",
"612 360 OFFCURVE",
"489 111 OFFCURVE",
"433 47 CURVE SMOOTH",
"425 37 OFFCURVE",
"421 39 OFFCURVE",
"419 48 CURVE SMOOTH",
"407 81 OFFCURVE",
"371 259 OFFCURVE",
"384 317 CURVE SMOOTH",
"402 395 OFFCURVE",
"409 439 OFFCURVE",
"415 465 CURVE SMOOTH",
"416 471 OFFCURVE",
"411 472 OFFCURVE",
"408 472 CURVE SMOOTH",
"386 472 LINE SMOOTH",
"382 472 OFFCURVE",
"381 471 OFFCURVE",
"380 465 CURVE SMOOTH",
"374 439 OFFCURVE",
"355 344 OFFCURVE",
"347 306 CURVE SMOOTH",
"337 259 OFFCURVE",
"264 108 OFFCURVE",
"215 51 CURVE SMOOTH",
"206 40 OFFCURVE",
"199 41 OFFCURVE",
"193 57 CURVE SMOOTH",
"173 111 OFFCURVE",
"147 355 OFFCURVE",
"157 465 CURVE SMOOTH",
"158 471 OFFCURVE",
"155 472 OFFCURVE",
"150 472 CURVE SMOOTH",
"132 472 LINE SMOOTH",
"126 472 OFFCURVE",
"124 470 OFFCURVE",
"124 465 CURVE SMOOTH",
"117 362 OFFCURVE",
"125 159 OFFCURVE",
"172 6 CURVE SMOOTH",
"174 0 OFFCURVE",
"176 0 OFFCURVE",
"181 0 CURVE SMOOTH"
);
}
);
width = 623;
},
{
background = {
paths = (
{
closed = 1;
nodes = (
"147 1 OFFCURVE",
"146 0 OFFCURVE",
"161 0 CURVE SMOOTH",
"231 0 LINE SMOOTH",
"242 0 OFFCURVE",
"249 6 OFFCURVE",
"255 12 CURVE SMOOTH",
"260 18 OFFCURVE",
"279 43 OFFCURVE",
"292 61 CURVE SMOOTH",
"301 73 OFFCURVE",
"325 108 OFFCURVE",
"327 112 CURVE SMOOTH",
"337 130 OFFCURVE",
"343 127 OFFCURVE",
"346 112 CURVE SMOOTH",
"351 80 OFFCURVE",
"367 26 OFFCURVE",
"374 12 CURVE SMOOTH",
"378 2 OFFCURVE",
"380 0 OFFCURVE",
"390 0 CURVE SMOOTH",
"465 0 LINE SMOOTH",
"473 0 OFFCURVE",
"478 6 OFFCURVE",
"489 18 CURVE SMOOTH",
"556 90 OFFCURVE",
"676 315 OFFCURVE",
"720 437 CURVE SMOOTH",
"727 457 OFFCURVE",
"731 472 OFFCURVE",
"716 472 CURVE SMOOTH",
"611 472 LINE SMOOTH",
"597 472 OFFCURVE",
"588 467 OFFCURVE",
"583 453 CURVE SMOOTH",
"545 350 OFFCURVE",
"496 243 OFFCURVE",
"473 194 CURVE SMOOTH",
"469 185 OFFCURVE",
"466 185 OFFCURVE",
"464 194 CURVE SMOOTH",
"459 219 OFFCURVE",
"459 264 OFFCURVE",
"464 315 CURVE SMOOTH",
"468 363 OFFCURVE",
"480 417 OFFCURVE",
"488 456 CURVE SMOOTH",
"490 466 OFFCURVE",
"485 471 OFFCURVE",
"477 471 CURVE SMOOTH",
"349 471 LINE SMOOTH",
"340 471 OFFCURVE",
"333 467 OFFCURVE",
"331 455 CURVE SMOOTH",
"325 428 OFFCURVE",
"317 380 OFFCURVE",
"306 329 CURVE SMOOTH",
"298 293 OFFCURVE",
"273 225 OFFCURVE",
"252 195 CURVE SMOOTH",
"251 192 OFFCURVE",
"246 187 OFFCURVE",
"245 198 CURVE SMOOTH",
"242 235 OFFCURVE",
"241 358 OFFCURVE",
"242 457 CURVE SMOOTH",
"242 467 OFFCURVE",
"238 472 OFFCURVE",
"227 472 CURVE SMOOTH",
"104 472 LINE SMOOTH",
"89 472 OFFCURVE",
"88 454 OFFCURVE",
"87 432 CURVE SMOOTH",
"83 331 OFFCURVE",
"100 158 OFFCURVE",
"142 18 CURVE SMOOTH"
);
}
);
};
layerId = "D1BC8BBB-1669-4C46-BC21-42BF6808B2B9";
paths = (
{
closed = 1;
nodes = (
"231 0 LINE SMOOTH",
"242 0 OFFCURVE",
"249 6 OFFCURVE",
"255 12 CURVE SMOOTH",
"260 18 OFFCURVE",
"279 43 OFFCURVE",
"292 61 CURVE SMOOTH",
"301 73 OFFCURVE",
"324 108 OFFCURVE",
"328 114 CURVE SMOOTH",
"335 126 OFFCURVE",
"343 127 OFFCURVE",
"346 112 CURVE SMOOTH",
"352 77 OFFCURVE",
"368 26 OFFCURVE",
"374 12 CURVE SMOOTH",
"378 3 OFFCURVE",
"381 0 OFFCURVE",
"394 0 CURVE SMOOTH",
"460 0 LINE SMOOTH",
"473 0 OFFCURVE",
"478 6 OFFCURVE",
"489 18 CURVE SMOOTH",
"556 90 OFFCURVE",
"676 315 OFFCURVE",
"720 437 CURVE SMOOTH",
"727 457 OFFCURVE",
"731 472 OFFCURVE",
"716 472 CURVE SMOOTH",
"611 472 LINE SMOOTH",
"597 472 OFFCURVE",
"588 467 OFFCURVE",
"583 453 CURVE SMOOTH",
"545 350 OFFCURVE",
"497 243 OFFCURVE",
"474 194 CURVE SMOOTH",
"470 185 OFFCURVE",
"466 185 OFFCURVE",
"464 194 CURVE SMOOTH",
"459 219 OFFCURVE",
"459 264 OFFCURVE",
"464 315 CURVE SMOOTH",
"468 363 OFFCURVE",
"480 417 OFFCURVE",
"488 456 CURVE SMOOTH",
"490 466 OFFCURVE",
"485 471 OFFCURVE",
"477 471 CURVE SMOOTH",
"349 471 LINE SMOOTH",
"340 471 OFFCURVE",
"333 467 OFFCURVE",
"331 455 CURVE SMOOTH",
"325 428 OFFCURVE",
"317 380 OFFCURVE",
"306 329 CURVE SMOOTH",
"298 293 OFFCURVE",
"272 225 OFFCURVE",
"256 201 CURVE SMOOTH",
"250 192 OFFCURVE",
"246 191 OFFCURVE",
"245 204 CURVE SMOOTH",
"243 235 OFFCURVE",
"241 358 OFFCURVE",
"242 457 CURVE SMOOTH",
"242 467 OFFCURVE",
"238 472 OFFCURVE",
"227 472 CURVE SMOOTH",
"104 472 LINE SMOOTH",
"89 472 OFFCURVE",
"88 454 OFFCURVE",
"87 432 CURVE SMOOTH",
"83 331 OFFCURVE",
"100 154 OFFCURVE",
"143 17 CURVE SMOOTH",
"147 6 OFFCURVE",
"151 0 OFFCURVE",
"163 0 CURVE SMOOTH"
);
}
);
width = 645;
}
);
note = w;
unicode = 0077;
},
{
glyphname = x;
lastChange = "2021-03-18 02:14:36 +0000";
layers = (
{
background = {
paths = (
{
closed = 1;
nodes = (
"50 0 LINE SMOOTH",
"52 0 OFFCURVE",
"55 0 OFFCURVE",
"58 7 CURVE",
"58 7 OFFCURVE",
"147 165 OFFCURVE",
"224 234 CURVE",
"236 234 OFFCURVE",
"247 234 OFFCURVE",
"259 234 CURVE",
"306 165 OFFCURVE",
"326 21 OFFCURVE",
"328 7 CURVE",
"330 0 OFFCURVE",
"332 0 OFFCURVE",
"334 0 CURVE SMOOTH",
"360 0 LINE SMOOTH",
"364 0 OFFCURVE",
"365 2 OFFCURVE",
"365 6 CURVE",
"364 18 OFFCURVE",
"344 144 OFFCURVE",
"297 238 CURVE SMOOTH",
"293 245 OFFCURVE",
"292 250 OFFCURVE",
"299 256 CURVE",
"379 341 OFFCURVE",
"444 466 OFFCURVE",
"444 466 CURVE",
"446 471 OFFCURVE",
"445 472 OFFCURVE",
"441 472 CURVE SMOOTH",
"418 472 LINE SMOOTH",
"415 472 OFFCURVE",
"413 472 OFFCURVE",
"410 465 CURVE",
"410 465 OFFCURVE",
"334 324 OFFCURVE",
"265 263 CURVE",
"253 263 OFFCURVE",
"242 263 OFFCURVE",
"230 263 CURVE",
"187 324 OFFCURVE",
"171 465 OFFCURVE",
"171 465 CURVE",
"170 472 OFFCURVE",
"168 472 OFFCURVE",
"165 472 CURVE SMOOTH",
"142 472 LINE SMOOTH",
"138 472 OFFCURVE",
"137 471 OFFCURVE",
"137 466 CURVE",
"137 466 OFFCURVE",
"149 342 OFFCURVE",
"192 257 CURVE SMOOTH",
"195 250 OFFCURVE",
"194 244 OFFCURVE",
"187 237 CURVE SMOOTH",
"99 142 OFFCURVE",
"21 6 OFFCURVE",
"21 6 CURVE",
"19 1 OFFCURVE",
"20 0 OFFCURVE",
"24 0 CURVE SMOOTH"
);
}
);
};
guideLines = (
{
position = "{243, 708}";
}
);
hints = (
{
horizontal = 1;
place = "{4, 21}";
target = up;
type = BottomGhost;
},
{
horizontal = 1;
place = "{234, 29}";
type = Stem;
},
{
horizontal = 1;
place = "{472, -20}";
target = down;
type = TopGhost;
},
{
place = "{40, 336}";
type = Stem;
}
);
layerId = "707362F1-A677-446A-8636-E10BE3A7FAFF";
paths = (
{
closed = 1;
nodes = (
"50 0 LINE SMOOTH",
"52 0 OFFCURVE",
"55 0 OFFCURVE",
"58 7 CURVE",
"58 7 OFFCURVE",
"147 165 OFFCURVE",
"224 234 CURVE",
"236 234 OFFCURVE",
"247 234 OFFCURVE",
"259 234 CURVE",
"306 165 OFFCURVE",
"326 21 OFFCURVE",
"328 7 CURVE",
"330 0 OFFCURVE",
"332 0 OFFCURVE",
"334 0 CURVE SMOOTH",
"360 0 LINE SMOOTH",
"364 0 OFFCURVE",
"365 2 OFFCURVE",
"365 6 CURVE",
"364 18 OFFCURVE",
"344 144 OFFCURVE",
"297 238 CURVE SMOOTH",
"293 245 OFFCURVE",
"292 250 OFFCURVE",
"299 256 CURVE",
"379 341 OFFCURVE",
"444 466 OFFCURVE",
"444 466 CURVE",
"446 471 OFFCURVE",
"445 472 OFFCURVE",
"441 472 CURVE SMOOTH",
"418 472 LINE SMOOTH",
"415 472 OFFCURVE",
"413 472 OFFCURVE",
"410 465 CURVE",
"410 465 OFFCURVE",
"334 324 OFFCURVE",
"265 263 CURVE",
"253 263 OFFCURVE",
"242 263 OFFCURVE",
"230 263 CURVE",
"187 324 OFFCURVE",
"171 465 OFFCURVE",
"171 465 CURVE",
"170 472 OFFCURVE",
"168 472 OFFCURVE",
"165 472 CURVE SMOOTH",
"142 472 LINE SMOOTH",
"138 472 OFFCURVE",
"137 471 OFFCURVE",
"137 466 CURVE",
"137 466 OFFCURVE",
"149 342 OFFCURVE",
"192 257 CURVE SMOOTH",
"195 250 OFFCURVE",
"194 244 OFFCURVE",
"187 237 CURVE SMOOTH",
"99 142 OFFCURVE",
"21 6 OFFCURVE",
"21 6 CURVE",
"19 1 OFFCURVE",
"20 0 OFFCURVE",
"24 0 CURVE SMOOTH"
);
}
);
width = 389;
},
{
background = {
paths = (
{
closed = 1;
nodes = (
"146 0 LINE SMOOTH",
"159 0 OFFCURVE",
"162 1 OFFCURVE",
"169 15 CURVE",
"169 15 OFFCURVE",
"210 110 OFFCURVE",
"257 168 CURVE",
"269 168 OFFCURVE",
"248 168 OFFCURVE",
"260 168 CURVE",
"279 159 OFFCURVE",
"282 62 OFFCURVE",
"283 19 CURVE",
"282 6 OFFCURVE",
"285 0 OFFCURVE",
"306 0 CURVE SMOOTH",
"408 0 LINE SMOOTH",
"423 0 OFFCURVE",
"426 15 OFFCURVE",
"426 35 CURVE",
"425 47 OFFCURVE",
"436 143 OFFCURVE",
"389 237 CURVE SMOOTH",
"386 244 OFFCURVE",
"385 249 OFFCURVE",
"392 255 CURVE",
"472 340 OFFCURVE",
"505 421 OFFCURVE",
"520 457 CURVE",
"524 471 OFFCURVE",
"512 472 OFFCURVE",
"508 472 CURVE SMOOTH",
"406 472 LINE SMOOTH",
"385 472 OFFCURVE",
"380 466 OFFCURVE",
"375 453 CURVE",
"358 413 OFFCURVE",
"311 310 OFFCURVE",
"289 306 CURVE",
"288 306 OFFCURVE",
"289 306 OFFCURVE",
"288 306 CURVE",
"273 311 OFFCURVE",
"264 419 OFFCURVE",
"263 457 CURVE",
"262 471 OFFCURVE",
"259 472 OFFCURVE",
"248 472 CURVE SMOOTH",
"108 472 LINE SMOOTH",
"104 472 OFFCURVE",
"103 471 OFFCURVE",
"103 466 CURVE",
"103 466 OFFCURVE",
"108 340 OFFCURVE",
"151 255 CURVE SMOOTH",
"155 248 OFFCURVE",
"156 245 OFFCURVE",
"151 238 CURVE SMOOTH",
"82 147 OFFCURVE",
"40 77 OFFCURVE",
"25 40 CURVE",
"22 35 OFFCURVE",
"4 0 OFFCURVE",
"25 0 CURVE SMOOTH"
);
}
);
};
layerId = "D1BC8BBB-1669-4C46-BC21-42BF6808B2B9";
paths = (
{
closed = 1;
nodes = (
"146 0 LINE SMOOTH",
"159 0 OFFCURVE",
"162 1 OFFCURVE",
"169 15 CURVE",
"169 15 OFFCURVE",
"210 110 OFFCURVE",
"257 168 CURVE",
"269 168 OFFCURVE",
"248 168 OFFCURVE",
"260 168 CURVE",
"279 159 OFFCURVE",
"282 62 OFFCURVE",
"283 19 CURVE",
"282 6 OFFCURVE",
"285 0 OFFCURVE",
"306 0 CURVE SMOOTH",
"408 0 LINE SMOOTH",
"423 0 OFFCURVE",
"426 15 OFFCURVE",
"426 35 CURVE",
"425 47 OFFCURVE",
"436 143 OFFCURVE",
"389 237 CURVE SMOOTH",
"386 244 OFFCURVE",
"385 249 OFFCURVE",
"392 255 CURVE",
"472 340 OFFCURVE",
"505 421 OFFCURVE",
"520 457 CURVE",
"524 471 OFFCURVE",
"512 472 OFFCURVE",
"508 472 CURVE SMOOTH",
"406 472 LINE SMOOTH",
"385 472 OFFCURVE",
"380 466 OFFCURVE",
"375 453 CURVE",
"358 413 OFFCURVE",
"311 310 OFFCURVE",
"289 306 CURVE",
"288 306 OFFCURVE",
"289 306 OFFCURVE",
"288 306 CURVE",
"273 311 OFFCURVE",
"264 419 OFFCURVE",
"263 457 CURVE",
"262 471 OFFCURVE",
"259 472 OFFCURVE",
"248 472 CURVE SMOOTH",
"108 472 LINE SMOOTH",
"104 472 OFFCURVE",
"103 471 OFFCURVE",
"103 466 CURVE",
"103 466 OFFCURVE",
"108 340 OFFCURVE",
"151 255 CURVE SMOOTH",
"155 248 OFFCURVE",
"156 245 OFFCURVE",
"151 238 CURVE SMOOTH",
"82 147 OFFCURVE",
"40 77 OFFCURVE",
"25 40 CURVE",
"22 35 OFFCURVE",
"4 0 OFFCURVE",
"25 0 CURVE SMOOTH"
);
}
);
width = 438;
}
);
note = x;
unicode = 0078;
},
{
glyphname = y;
lastChange = "2021-03-18 02:19:35 +0000";
layers = (
{
background = {
paths = (
{
closed = 1;
nodes = (
"183 33 OFFCURVE",
"176 19 OFFCURVE",
"169 11 CURVE SMOOTH",
"146 -17 OFFCURVE",
"133 -30 OFFCURVE",
"102 -53 CURVE SMOOTH",
"62 -84 OFFCURVE",
"7 -103 OFFCURVE",
"-32 -97 CURVE SMOOTH",
"-36 -96 OFFCURVE",
"-41 -97 OFFCURVE",
"-42 -99 CURVE SMOOTH",
"-53 -119 LINE SMOOTH",
"-55 -123 OFFCURVE",
"-51 -124 OFFCURVE",
"-49 -125 CURVE SMOOTH",
"-37 -127 OFFCURVE",
"-25 -127 OFFCURVE",
"-14 -127 CURVE SMOOTH",
"165 -127 OFFCURVE",
"304 146 OFFCURVE",
"370 269 CURVE SMOOTH",
"404 333 OFFCURVE",
"434 399 OFFCURVE",
"457 465 CURVE SMOOTH",
"459 471 OFFCURVE",
"457 472 OFFCURVE",
"453 472 CURVE SMOOTH",
"429 472 LINE SMOOTH",
"425 472 OFFCURVE",
"420 471 OFFCURVE",
"419 465 CURVE SMOOTH",
"386 354 OFFCURVE",
"270 140 OFFCURVE",
"215 78 CURVE",
"212 76 OFFCURVE",
"206 73 OFFCURVE",
"203 83 CURVE",
"167 133 OFFCURVE",
"143 358 OFFCURVE",
"156 465 CURVE SMOOTH",
"157 471 OFFCURVE",
"152 472 OFFCURVE",
"149 472 CURVE SMOOTH",
"124 472 LINE SMOOTH",
"121 472 OFFCURVE",
"118 471 OFFCURVE",
"118 465 CURVE SMOOTH",
"109 353 OFFCURVE",
"125 130 OFFCURVE",
"177 45 CURVE SMOOTH"
);
},
{
closed = 1;
nodes = (
"148 277 OFFCURVE",
"155 284 OFFCURVE",
"155 293 CURVE SMOOTH",
"155 302 OFFCURVE",
"148 309 OFFCURVE",
"139 309 CURVE SMOOTH",
"129 309 OFFCURVE",
"123 302 OFFCURVE",
"123 293 CURVE SMOOTH",
"123 284 OFFCURVE",
"129 277 OFFCURVE",
"139 277 CURVE SMOOTH"
);
}
);
};
hints = (
{
horizontal = 1;
place = "{-43, 60}";
type = Stem;
},
{
horizontal = 1;
place = "{499, -20}";
target = down;
type = TopGhost;
},
{
place = "{77, 364}";
type = Stem;
}
);
layerId = "707362F1-A677-446A-8636-E10BE3A7FAFF";
paths = (
{
closed = 1;
nodes = (
"160 -127 OFFCURVE",
"304 145 OFFCURVE",
"355 239 CURVE SMOOTH",
"406 332 OFFCURVE",
"434 399 OFFCURVE",
"457 465 CURVE SMOOTH",
"459 470 OFFCURVE",
"457 472 OFFCURVE",
"453 472 CURVE SMOOTH",
"429 472 LINE SMOOTH",
"423 472 OFFCURVE",
"421 470 OFFCURVE",
"419 465 CURVE SMOOTH",
"378 336 OFFCURVE",
"291 184 OFFCURVE",
"227 88 CURVE SMOOTH",
"217 73 OFFCURVE",
"202 78 OFFCURVE",
"196 94 CURVE SMOOTH",
"169 163 OFFCURVE",
"141 358 OFFCURVE",
"154 465 CURVE SMOOTH",
"155 471 OFFCURVE",
"150 472 OFFCURVE",
"147 472 CURVE SMOOTH",
"127 472 LINE SMOOTH",
"123 472 OFFCURVE",
"120 471 OFFCURVE",
"120 465 CURVE SMOOTH",
"107 303 OFFCURVE",
"139 140 OFFCURVE",
"157 93 CURVE SMOOTH",
"171 57 OFFCURVE",
"181 47 OFFCURVE",
"181 33 CURVE SMOOTH",
"181 16 OFFCURVE",
"139 -25 OFFCURVE",
"102 -53 CURVE SMOOTH",
"67 -80 OFFCURVE",
"20 -98 OFFCURVE",
"-18 -98 CURVE SMOOTH",
"-23 -98 OFFCURVE",
"-28 -98 OFFCURVE",
"-32 -97 CURVE SMOOTH",
"-38 -96 OFFCURVE",
"-41 -97 OFFCURVE",
"-43 -101 CURVE SMOOTH",
"-52 -117 LINE SMOOTH",
"-55 -122 OFFCURVE",
"-53 -124 OFFCURVE",
"-49 -125 CURVE SMOOTH",
"-37 -127 OFFCURVE",
"-25 -127 OFFCURVE",
"-11 -127 CURVE SMOOTH"
);
}
);
width = 381;
},
{
background = {
paths = (
{
closed = 1;
nodes = (
"129 92 OFFCURVE",
"131 64 OFFCURVE",
"116 39 CURVE SMOOTH",
"107 24 OFFCURVE",
"91 10 OFFCURVE",
"64 -1 CURVE SMOOTH",
"44 -10 OFFCURVE",
"19 -12 OFFCURVE",
"2 -7 CURVE SMOOTH",
"-8 -4 OFFCURVE",
"-12 -2 OFFCURVE",
"-22 -15 CURVE SMOOTH",
"-61 -68 LINE SMOOTH",
"-72 -83 OFFCURVE",
"-71 -92 OFFCURVE",
"-56 -101 CURVE SMOOTH",
"-40 -111 OFFCURVE",
"-14 -116 OFFCURVE",
"26 -116 CURVE SMOOTH",
"208 -116 OFFCURVE",
"329 112 OFFCURVE",
"381 206 CURVE SMOOTH",
"435 304 OFFCURVE",
"466 365 OFFCURVE",
"499 448 CURVE SMOOTH",
"507 469 OFFCURVE",
"498 472 OFFCURVE",
"484 472 CURVE SMOOTH",
"386 472 LINE SMOOTH",
"370 472 OFFCURVE",
"366 467 OFFCURVE",
"360 452 CURVE SMOOTH",
"327 373 OFFCURVE",
"293 293 OFFCURVE",
"256 217 CURVE",
"251 206 OFFCURVE",
"245 206 OFFCURVE",
"243 216 CURVE",
"238 291 OFFCURVE",
"241 405 OFFCURVE",
"244 442 CURVE SMOOTH",
"245 465 OFFCURVE",
"242 472 OFFCURVE",
"226 472 CURVE SMOOTH",
"111 472 LINE SMOOTH",
"100 472 OFFCURVE",
"93 465 OFFCURVE",
"93 450 CURVE SMOOTH",
"89 336 OFFCURVE",
"98 222 OFFCURVE",
"123 118 CURVE SMOOTH"
);
}
);
};
layerId = "D1BC8BBB-1669-4C46-BC21-42BF6808B2B9";
paths = (
{
closed = 1;
nodes = (
"201 -126 OFFCURVE",
"327 109 OFFCURVE",
"381 206 CURVE SMOOTH",
"435 304 OFFCURVE",
"466 365 OFFCURVE",
"499 448 CURVE SMOOTH",
"506 465 OFFCURVE",
"502 472 OFFCURVE",
"484 472 CURVE SMOOTH",
"386 472 LINE SMOOTH",
"370 472 OFFCURVE",
"366 467 OFFCURVE",
"360 452 CURVE SMOOTH",
"327 373 OFFCURVE",
"293 293 OFFCURVE",
"258 221 CURVE SMOOTH",
"249 203 OFFCURVE",
"242 207 OFFCURVE",
"242 222 CURVE SMOOTH",
"240 269 OFFCURVE",
"240 391 OFFCURVE",
"244 442 CURVE SMOOTH",
"245 465 OFFCURVE",
"242 472 OFFCURVE",
"226 472 CURVE SMOOTH",
"111 472 LINE SMOOTH",
"100 472 OFFCURVE",
"93 465 OFFCURVE",
"93 450 CURVE SMOOTH",
"89 340 OFFCURVE",
"99 219 OFFCURVE",
"118 142 CURVE SMOOTH",
"126 106 OFFCURVE",
"129 95 OFFCURVE",
"127 71 CURVE SMOOTH",
"125 46 OFFCURVE",
"112 24 OFFCURVE",
"94 8 CURVE SMOOTH",
"75 -10 OFFCURVE",
"48 -20 OFFCURVE",
"24 -20 CURVE SMOOTH",
"8 -20 OFFCURVE",
"-1 -18 OFFCURVE",
"-10 -15 CURVE SMOOTH",
"-18 -12 OFFCURVE",
"-22 -15 OFFCURVE",
"-29 -25 CURVE SMOOTH",
"-68 -78 LINE SMOOTH",
"-79 -93 OFFCURVE",
"-77 -102 OFFCURVE",
"-63 -111 CURVE SMOOTH",
"-47 -121 OFFCURVE",
"-21 -126 OFFCURVE",
"19 -126 CURVE SMOOTH"
);
}
);
width = 422;
}
);
note = y;
unicode = 0079;
},
{
glyphname = z;
lastChange = "2021-03-18 02:15:17 +0000";
layers = (
{
background = {
paths = (
{
closed = 1;
nodes = (
"30 2 OFFCURVE",
"33 0 OFFCURVE",
"36 0 CURVE SMOOTH",
"311 0 LINE SMOOTH",
"313 0 OFFCURVE",
"315 1 OFFCURVE",
"316 4 CURVE SMOOTH",
"321 26 LINE SMOOTH",
"321 28 OFFCURVE",
"319 29 OFFCURVE",
"317 29 CURVE SMOOTH",
"82 29 LINE SMOOTH",
"72 29 OFFCURVE",
"76 39 OFFCURVE",
"78 44 CURVE SMOOTH",
"98 86 OFFCURVE",
"147 150 OFFCURVE",
"203 225 CURVE SMOOTH",
"254 291 OFFCURVE",
"333 379 OFFCURVE",
"396 430 CURVE SMOOTH",
"402 434 OFFCURVE",
"412 445 OFFCURVE",
"413 451 CURVE SMOOTH",
"416 466 LINE SMOOTH",
"417 471 OFFCURVE",
"417 472 OFFCURVE",
"412 472 CURVE SMOOTH",
"155 472 LINE SMOOTH",
"153 472 OFFCURVE",
"151 471 OFFCURVE",
"150 468 CURVE SMOOTH",
"146 446 LINE SMOOTH",
"145 444 OFFCURVE",
"147 442 OFFCURVE",
"149 442 CURVE SMOOTH",
"351 442 LINE SMOOTH",
"359 442 OFFCURVE",
"358 439 OFFCURVE",
"350 432 CURVE SMOOTH",
"310 396 OFFCURVE",
"258 339 OFFCURVE",
"204 274 CURVE SMOOTH",
"129 182 OFFCURVE",
"62 94 OFFCURVE",
"31 6 CURVE"
);
}
);
};
hints = (
{
horizontal = 1;
place = "{0, 29}";
type = Stem;
},
{
horizontal = 1;
place = "{442, 30}";
type = Stem;
},
{
place = "{45, 287}";
type = Stem;
}
);
layerId = "707362F1-A677-446A-8636-E10BE3A7FAFF";
paths = (
{
closed = 1;
nodes = (
"30 2 OFFCURVE",
"33 0 OFFCURVE",
"36 0 CURVE SMOOTH",
"311 0 LINE SMOOTH",
"313 0 OFFCURVE",
"315 1 OFFCURVE",
"316 4 CURVE SMOOTH",
"321 26 LINE SMOOTH",
"321 28 OFFCURVE",
"319 29 OFFCURVE",
"317 29 CURVE SMOOTH",
"82 29 LINE SMOOTH",
"72 29 OFFCURVE",
"76 39 OFFCURVE",
"78 44 CURVE SMOOTH",
"98 86 OFFCURVE",
"147 150 OFFCURVE",
"203 225 CURVE SMOOTH",
"254 291 OFFCURVE",
"333 379 OFFCURVE",
"396 430 CURVE SMOOTH",
"402 434 OFFCURVE",
"412 445 OFFCURVE",
"413 451 CURVE SMOOTH",
"416 466 LINE SMOOTH",
"417 471 OFFCURVE",
"417 472 OFFCURVE",
"412 472 CURVE SMOOTH",
"155 472 LINE SMOOTH",
"153 472 OFFCURVE",
"151 471 OFFCURVE",
"150 468 CURVE SMOOTH",
"146 446 LINE SMOOTH",
"145 444 OFFCURVE",
"147 442 OFFCURVE",
"149 442 CURVE SMOOTH",
"351 442 LINE SMOOTH",
"359 442 OFFCURVE",
"358 439 OFFCURVE",
"350 432 CURVE SMOOTH",
"310 396 OFFCURVE",
"258 339 OFFCURVE",
"204 274 CURVE SMOOTH",
"129 182 OFFCURVE",
"62 94 OFFCURVE",
"31 6 CURVE"
);
}
);
width = 347;
},
{
background = {
paths = (
{
closed = 1;
nodes = (
"23 2 OFFCURVE",
"28 0 OFFCURVE",
"44 0 CURVE SMOOTH",
"346 0 LINE SMOOTH",
"363 0 OFFCURVE",
"368 0 OFFCURVE",
"371 14 CURVE SMOOTH",
"388 93 LINE SMOOTH",
"391 109 OFFCURVE",
"392 112 OFFCURVE",
"379 112 CURVE SMOOTH",
"217 112 LINE SMOOTH",
"203 112 OFFCURVE",
"205 120 OFFCURVE",
"208 125 CURVE SMOOTH",
"232 162 OFFCURVE",
"268 205 OFFCURVE",
"304 244 CURVE SMOOTH",
"347 290 OFFCURVE",
"391 331 OFFCURVE",
"421 348 CURVE SMOOTH",
"443 361 OFFCURVE",
"447 373 OFFCURVE",
"449 382 CURVE SMOOTH",
"464 452 LINE SMOOTH",
"467 467 OFFCURVE",
"469 472 OFFCURVE",
"452 472 CURVE SMOOTH",
"165 472 LINE SMOOTH",
"149 472 OFFCURVE",
"148 473 OFFCURVE",
"144 455 CURVE SMOOTH",
"127 375 LINE SMOOTH",
"124 360 OFFCURVE",
"127 360 OFFCURVE",
"139 360 CURVE SMOOTH",
"258 360 LINE",
"268 356 OFFCURVE",
"263 352 OFFCURVE",
"259 348 CURVE SMOOTH",
"222 312 OFFCURVE",
"185 273 OFFCURVE",
"152 233 CURVE SMOOTH",
"100 172 OFFCURVE",
"56 107 OFFCURVE",
"35 41 CURVE SMOOTH"
);
}
);
};
layerId = "D1BC8BBB-1669-4C46-BC21-42BF6808B2B9";
paths = (
{
closed = 1;
nodes = (
"23 2 OFFCURVE",
"28 0 OFFCURVE",
"44 0 CURVE SMOOTH",
"346 0 LINE SMOOTH",
"363 0 OFFCURVE",
"368 0 OFFCURVE",
"371 14 CURVE SMOOTH",
"388 93 LINE SMOOTH",
"391 109 OFFCURVE",
"392 112 OFFCURVE",
"379 112 CURVE SMOOTH",
"217 112 LINE SMOOTH",
"203 112 OFFCURVE",
"205 120 OFFCURVE",
"208 125 CURVE SMOOTH",
"232 162 OFFCURVE",
"268 205 OFFCURVE",
"304 244 CURVE SMOOTH",
"347 290 OFFCURVE",
"391 331 OFFCURVE",
"421 348 CURVE SMOOTH",
"443 361 OFFCURVE",
"447 373 OFFCURVE",
"449 382 CURVE SMOOTH",
"464 452 LINE SMOOTH",
"467 467 OFFCURVE",
"469 472 OFFCURVE",
"452 472 CURVE SMOOTH",
"165 472 LINE SMOOTH",
"149 472 OFFCURVE",
"148 473 OFFCURVE",
"144 455 CURVE SMOOTH",
"127 375 LINE SMOOTH",
"124 360 OFFCURVE",
"127 360 OFFCURVE",
"139 360 CURVE SMOOTH",
"258 360 LINE",
"268 356 OFFCURVE",
"263 352 OFFCURVE",
"259 348 CURVE SMOOTH",
"222 312 OFFCURVE",
"185 273 OFFCURVE",
"152 233 CURVE SMOOTH",
"100 172 OFFCURVE",
"56 107 OFFCURVE",
"35 41 CURVE SMOOTH"
);
}
);
width = 393;
}
);
note = z;
unicode = 007A;
},
{
glyphname = A;
lastChange = "2021-03-17 00:36:13 +0000";
layers = (
{
background = {
paths = (
{
closed = 1;
nodes = (
"69 0 LINE SMOOTH",
"73 0 OFFCURVE",
"73 1 OFFCURVE",
"74 4 CURVE SMOOTH",
"88 44 OFFCURVE",
"111 98 OFFCURVE",
"137 160 CURVE SMOOTH",
"141 168 OFFCURVE",
"144 170 OFFCURVE",
"151 171 CURVE",
"454 171 LINE SMOOTH",
"462 171 OFFCURVE",
"466 168 OFFCURVE",
"465 162 CURVE SMOOTH",
"465 98 OFFCURVE",
"464 44 OFFCURVE",
"461 5 CURVE",
"462 1 OFFCURVE",
"462 0 OFFCURVE",
"465 0 CURVE SMOOTH",
"491 0 LINE SMOOTH",
"495 0 OFFCURVE",
"495 1 OFFCURVE",
"495 6 CURVE SMOOTH",
"507 151 OFFCURVE",
"490 533 OFFCURVE",
"455 668 CURVE SMOOTH",
"454 673 OFFCURVE",
"451 673 OFFCURVE",
"447 673 CURVE SMOOTH",
"373 673 LINE SMOOTH",
"370 673 OFFCURVE",
"367 671 OFFCURVE",
"365 669 CURVE SMOOTH",
"263 524 OFFCURVE",
"99 168 OFFCURVE",
"41 5 CURVE",
"40 1 OFFCURVE",
"40 0 OFFCURVE",
"44 0 CURVE SMOOTH"
);
},
{
closed = 1;
nodes = (
"157 201 OFFCURVE",
"158 208 OFFCURVE",
"160 211 CURVE SMOOTH",
"227 362 OFFCURVE",
"317 540 OFFCURVE",
"380 637 CURVE SMOOTH",
"383 642 OFFCURVE",
"386 643 OFFCURVE",
"392 643 CURVE SMOOTH",
"401 643 OFFCURVE",
"409 643 OFFCURVE",
"418 643 CURVE SMOOTH",
"422 643 OFFCURVE",
"425 642 OFFCURVE",
"427 638 CURVE SMOOTH",
"455 505 OFFCURVE",
"457 361 OFFCURVE",
"464 218 CURVE",
"463 204 OFFCURVE",
"457 201 OFFCURVE",
"453 201 CURVE SMOOTH",
"165 201 LINE SMOOTH"
);
}
);
};
hints = (
{
horizontal = 1;
place = "{0, 201}";
type = Stem;
},
{
horizontal = 1;
place = "{643, 30}";
type = Stem;
},
{
place = "{37, 447}";
type = Stem;
},
{
horizontal = 1;
place = "{171, 30}";
type = Stem;
}
);
layerId = "707362F1-A677-446A-8636-E10BE3A7FAFF";
paths = (
{
closed = 1;
nodes = (
"69 0 LINE SMOOTH",
"73 0 OFFCURVE",
"73 1 OFFCURVE",
"74 4 CURVE SMOOTH",
"88 44 OFFCURVE",
"111 98 OFFCURVE",
"137 160 CURVE SMOOTH",
"141 168 OFFCURVE",
"144 170 OFFCURVE",
"151 171 CURVE",
"454 171 LINE SMOOTH",
"462 171 OFFCURVE",
"466 168 OFFCURVE",
"465 162 CURVE SMOOTH",
"465 98 OFFCURVE",
"464 44 OFFCURVE",
"461 5 CURVE",
"462 1 OFFCURVE",
"462 0 OFFCURVE",
"465 0 CURVE SMOOTH",
"491 0 LINE SMOOTH",
"495 0 OFFCURVE",
"495 1 OFFCURVE",
"495 6 CURVE SMOOTH",
"507 151 OFFCURVE",
"490 533 OFFCURVE",
"455 668 CURVE SMOOTH",
"454 673 OFFCURVE",
"451 673 OFFCURVE",
"447 673 CURVE SMOOTH",
"373 673 LINE SMOOTH",
"370 673 OFFCURVE",
"367 671 OFFCURVE",
"365 669 CURVE SMOOTH",
"263 524 OFFCURVE",
"99 168 OFFCURVE",
"41 5 CURVE",
"40 1 OFFCURVE",
"40 0 OFFCURVE",
"44 0 CURVE SMOOTH"
);
},
{
closed = 1;
nodes = (
"157 201 OFFCURVE",
"158 208 OFFCURVE",
"160 211 CURVE SMOOTH",
"227 362 OFFCURVE",
"317 540 OFFCURVE",
"380 637 CURVE SMOOTH",
"383 642 OFFCURVE",
"386 643 OFFCURVE",
"392 643 CURVE SMOOTH",
"401 643 OFFCURVE",
"409 643 OFFCURVE",
"418 643 CURVE SMOOTH",
"422 643 OFFCURVE",
"425 642 OFFCURVE",
"427 638 CURVE SMOOTH",
"455 505 OFFCURVE",
"457 361 OFFCURVE",
"464 218 CURVE",
"463 204 OFFCURVE",
"457 201 OFFCURVE",
"453 201 CURVE SMOOTH",
"165 201 LINE SMOOTH"
);
}
);
width = 535;
},
{
background = {
paths = (
{
closed = 1;
nodes = (
"152 0 LINE SMOOTH",
"164 0 OFFCURVE",
"167 2 OFFCURVE",
"179 32 CURVE SMOOTH",
"190 61 OFFCURVE",
"211 107 OFFCURVE",
"221 133 CURVE SMOOTH",
"225 143 OFFCURVE",
"225 143 OFFCURVE",
"234 143 CURVE SMOOTH",
"388 143 LINE SMOOTH",
"397 143 OFFCURVE",
"397 143 OFFCURVE",
"397 133 CURVE SMOOTH",
"397 107 OFFCURVE",
"398 61 OFFCURVE",
"397 32 CURVE SMOOTH",
"395 2 OFFCURVE",
"398 0 OFFCURVE",
"410 0 CURVE SMOOTH",
"528 0 LINE SMOOTH",
"542 0 OFFCURVE",
"546 8 OFFCURVE",
"548 40 CURVE SMOOTH",
"559 188 OFFCURVE",
"536 513 OFFCURVE",
"493 651 CURVE SMOOTH",
"489 664 OFFCURVE",
"483 669 OFFCURVE",
"473 673 CURVE",
"374 673 LINE SMOOTH",
"363 673 OFFCURVE",
"355 664 OFFCURVE",
"344 651 CURVE",
"244 513 OFFCURVE",
"83 188 OFFCURVE",
"32 40 CURVE SMOOTH",
"20 8 OFFCURVE",
"20 0 OFFCURVE",
"33 0 CURVE SMOOTH"
);
},
{
closed = 1;
nodes = (
"282 258 OFFCURVE",
"281 261 OFFCURVE",
"285 270 CURVE SMOOTH",
"314 328 OFFCURVE",
"342 385 OFFCURVE",
"369 438 CURVE SMOOTH",
"371 443 OFFCURVE",
"374 447 OFFCURVE",
"376 452 CURVE",
"376 448 OFFCURVE",
"376 444 OFFCURVE",
"378 440 CURVE SMOOTH",
"377 439 OFFCURVE",
"378 437 OFFCURVE",
"378 436 CURVE SMOOTH",
"383 384 OFFCURVE",
"387 328 OFFCURVE",
"390 270 CURVE SMOOTH",
"391 261 OFFCURVE",
"390 258 OFFCURVE",
"381 258 CURVE SMOOTH",
"291 258 LINE SMOOTH"
);
}
);
};
layerId = "D1BC8BBB-1669-4C46-BC21-42BF6808B2B9";
paths = (
{
closed = 1;
nodes = (
"152 0 LINE SMOOTH",
"164 0 OFFCURVE",
"167 2 OFFCURVE",
"179 32 CURVE SMOOTH",
"190 61 OFFCURVE",
"211 107 OFFCURVE",
"221 133 CURVE SMOOTH",
"225 143 OFFCURVE",
"225 143 OFFCURVE",
"234 143 CURVE SMOOTH",
"388 143 LINE SMOOTH",
"397 143 OFFCURVE",
"397 143 OFFCURVE",
"397 133 CURVE SMOOTH",
"397 107 OFFCURVE",
"398 61 OFFCURVE",
"397 32 CURVE SMOOTH",
"395 2 OFFCURVE",
"398 0 OFFCURVE",
"410 0 CURVE SMOOTH",
"528 0 LINE SMOOTH",
"542 0 OFFCURVE",
"546 8 OFFCURVE",
"548 40 CURVE SMOOTH",
"559 188 OFFCURVE",
"536 513 OFFCURVE",
"493 651 CURVE SMOOTH",
"489 664 OFFCURVE",
"483 669 OFFCURVE",
"473 673 CURVE",
"374 673 LINE SMOOTH",
"363 673 OFFCURVE",
"355 664 OFFCURVE",
"344 651 CURVE",
"244 513 OFFCURVE",
"83 188 OFFCURVE",
"32 40 CURVE SMOOTH",
"20 8 OFFCURVE",
"20 0 OFFCURVE",
"33 0 CURVE SMOOTH"
);
},
{
closed = 1;
nodes = (
"282 258 OFFCURVE",
"281 261 OFFCURVE",
"285 270 CURVE SMOOTH",
"314 328 OFFCURVE",
"342 385 OFFCURVE",
"369 438 CURVE SMOOTH",
"371 443 OFFCURVE",
"374 447 OFFCURVE",
"376 452 CURVE",
"376 448 OFFCURVE",
"376 444 OFFCURVE",
"378 440 CURVE SMOOTH",
"377 439 OFFCURVE",
"378 437 OFFCURVE",
"378 436 CURVE SMOOTH",
"383 384 OFFCURVE",
"387 328 OFFCURVE",
"390 270 CURVE SMOOTH",
"391 261 OFFCURVE",
"390 258 OFFCURVE",
"381 258 CURVE SMOOTH",
"291 258 LINE SMOOTH"
);
}
);
width = 561;
}
);
note = A;
unicode = 0041;
},
{
glyphname = B;
lastChange = "2021-03-17 00:36:13 +0000";
layers = (
{
background = {
paths = (
{
closed = 1;
nodes = (
"507 263 OFFCURVE",
"477 323 OFFCURVE",
"424 345 CURVE SMOOTH",
"415 348 OFFCURVE",
"420 356 OFFCURVE",
"426 359 CURVE SMOOTH",
"473 380 OFFCURVE",
"516 431 OFFCURVE",
"534 517 CURVE SMOOTH",
"565 662 OFFCURVE",
"475 673 OFFCURVE",
"353 673 CURVE SMOOTH",
"227 673 LINE SMOOTH",
"224 673 OFFCURVE",
"223 671 OFFCURVE",
"222 669 CURVE SMOOTH",
"81 4 LINE SMOOTH",
"80 1 OFFCURVE",
"81 0 OFFCURVE",
"84 0 CURVE SMOOTH",
"271 0 LINE SMOOTH",
"371 0 OFFCURVE",
"461 48 OFFCURVE",
"489 179 CURVE SMOOTH"
);
},
{
closed = 1;
nodes = (
"429 53 OFFCURVE",
"339 29 OFFCURVE",
"282 29 CURVE",
"124 29 LINE SMOOTH",
"120 29 OFFCURVE",
"120 31 OFFCURVE",
"120 34 CURVE SMOOTH",
"183 327 LINE SMOOTH",
"183 330 OFFCURVE",
"185 332 OFFCURVE",
"190 332 CURVE SMOOTH",
"318 332 LINE SMOOTH",
"422 332 OFFCURVE",
"482 301 OFFCURVE",
"457 182 CURVE SMOOTH"
);
},
{
closed = 1;
nodes = (
"483 433 OFFCURVE",
"425 361 OFFCURVE",
"332 361 CURVE SMOOTH",
"195 361 LINE SMOOTH",
"191 361 OFFCURVE",
"190 362 OFFCURVE",
"191 366 CURVE SMOOTH",
"249 638 LINE SMOOTH",
"249 641 OFFCURVE",
"251 643 OFFCURVE",
"255 643 CURVE SMOOTH",
"358 643 LINE SMOOTH",
"455 643 OFFCURVE",
"526 634 OFFCURVE",
"501 517 CURVE SMOOTH"
);
}
);
};
hints = (
{
horizontal = 1;
place = "{0, 29}";
type = Stem;
},
{
horizontal = 1;
place = "{332, 29}";
type = Stem;
},
{
horizontal = 1;
place = "{643, 30}";
type = Stem;
},
{
place = "{60, 33}";
type = Stem;
},
{
place = "{386, 33}";
type = Stem;
},
{
place = "{381, 33}";
type = Stem;
}
);
layerId = "707362F1-A677-446A-8636-E10BE3A7FAFF";
paths = (
{
closed = 1;
nodes = (
"507 263 OFFCURVE",
"477 323 OFFCURVE",
"424 345 CURVE SMOOTH",
"415 348 OFFCURVE",
"420 356 OFFCURVE",
"426 359 CURVE SMOOTH",
"473 380 OFFCURVE",
"516 431 OFFCURVE",
"534 517 CURVE SMOOTH",
"565 662 OFFCURVE",
"475 673 OFFCURVE",
"353 673 CURVE SMOOTH",
"227 673 LINE SMOOTH",
"224 673 OFFCURVE",
"223 671 OFFCURVE",
"222 669 CURVE SMOOTH",
"81 4 LINE SMOOTH",
"80 1 OFFCURVE",
"81 0 OFFCURVE",
"84 0 CURVE SMOOTH",
"271 0 LINE SMOOTH",
"371 0 OFFCURVE",
"461 48 OFFCURVE",
"489 179 CURVE SMOOTH"
);
},
{
closed = 1;
nodes = (
"429 53 OFFCURVE",
"339 29 OFFCURVE",
"282 29 CURVE",
"124 29 LINE SMOOTH",
"120 29 OFFCURVE",
"120 31 OFFCURVE",
"120 34 CURVE SMOOTH",
"183 327 LINE SMOOTH",
"183 330 OFFCURVE",
"185 332 OFFCURVE",
"190 332 CURVE SMOOTH",
"318 332 LINE SMOOTH",
"422 332 OFFCURVE",
"482 301 OFFCURVE",
"457 182 CURVE SMOOTH"
);
},
{
closed = 1;
nodes = (
"483 433 OFFCURVE",
"425 361 OFFCURVE",
"332 361 CURVE SMOOTH",
"195 361 LINE SMOOTH",
"191 361 OFFCURVE",
"190 362 OFFCURVE",
"191 366 CURVE SMOOTH",
"249 638 LINE SMOOTH",
"249 641 OFFCURVE",
"251 643 OFFCURVE",
"255 643 CURVE SMOOTH",
"358 643 LINE SMOOTH",
"455 643 OFFCURVE",
"526 634 OFFCURVE",
"501 517 CURVE SMOOTH"
);
}
);
width = 501;
},
{
background = {
paths = (
{
closed = 1;
nodes = (
"539 258 OFFCURVE",
"516 320 OFFCURVE",
"477 342 CURVE",
"473 345 OFFCURVE",
"471 352 OFFCURVE",
"479 355 CURVE",
"537 381 OFFCURVE",
"574 460 OFFCURVE",
"582 499 CURVE SMOOTH",
"617 662 OFFCURVE",
"508 673 OFFCURVE",
"375 673 CURVE SMOOTH",
"198 673 LINE SMOOTH",
"190 673 OFFCURVE",
"182 667 OFFCURVE",
"180 658 CURVE SMOOTH",
"43 14 LINE SMOOTH",
"41 6 OFFCURVE",
"47 0 OFFCURVE",
"55 0 CURVE SMOOTH",
"272 0 LINE SMOOTH",
"388 0 OFFCURVE",
"495 53 OFFCURVE",
"525 195 CURVE SMOOTH"
);
},
{
closed = 1;
nodes = (
"345 109 OFFCURVE",
"295 104 OFFCURVE",
"262 104 CURVE SMOOTH",
"222 104 LINE SMOOTH",
"214 104 OFFCURVE",
"214 105 OFFCURVE",
"216 111 CURVE SMOOTH",
"252 281 LINE SMOOTH",
"253 287 OFFCURVE",
"254 287 OFFCURVE",
"260 287 CURVE SMOOTH",
"288 287 LINE SMOOTH",
"349 287 OFFCURVE",
"381 278 OFFCURVE",
"364 196 CURVE SMOOTH"
);
},
{
closed = 1;
nodes = (
"406 422 OFFCURVE",
"377 404 OFFCURVE",
"324 404 CURVE SMOOTH",
"286 404 LINE SMOOTH",
"279 404 OFFCURVE",
"278 405 OFFCURVE",
"279 411 CURVE SMOOTH",
"311 560 LINE SMOOTH",
"313 568 OFFCURVE",
"314 569 OFFCURVE",
"320 569 CURVE SMOOTH",
"322 569 LINE SMOOTH",
"397 569 OFFCURVE",
"435 560 OFFCURVE",
"421 492 CURVE SMOOTH"
);
}
);
};
layerId = "D1BC8BBB-1669-4C46-BC21-42BF6808B2B9";
paths = (
{
closed = 1;
nodes = (
"539 258 OFFCURVE",
"516 320 OFFCURVE",
"477 342 CURVE",
"473 345 OFFCURVE",
"471 352 OFFCURVE",
"479 355 CURVE",
"537 381 OFFCURVE",
"574 460 OFFCURVE",
"582 499 CURVE SMOOTH",
"617 662 OFFCURVE",
"508 673 OFFCURVE",
"375 673 CURVE SMOOTH",
"198 673 LINE SMOOTH",
"190 673 OFFCURVE",
"182 667 OFFCURVE",
"180 658 CURVE SMOOTH",
"43 14 LINE SMOOTH",
"41 6 OFFCURVE",
"47 0 OFFCURVE",
"55 0 CURVE SMOOTH",
"272 0 LINE SMOOTH",
"388 0 OFFCURVE",
"495 53 OFFCURVE",
"525 195 CURVE SMOOTH"
);
},
{
closed = 1;
nodes = (
"345 109 OFFCURVE",
"295 104 OFFCURVE",
"262 104 CURVE SMOOTH",
"222 104 LINE SMOOTH",
"214 104 OFFCURVE",
"214 105 OFFCURVE",
"216 111 CURVE SMOOTH",
"252 281 LINE SMOOTH",
"253 287 OFFCURVE",
"254 287 OFFCURVE",
"260 287 CURVE SMOOTH",
"288 287 LINE SMOOTH",
"349 287 OFFCURVE",
"381 278 OFFCURVE",
"364 196 CURVE SMOOTH"
);
},
{
closed = 1;
nodes = (
"406 422 OFFCURVE",
"377 404 OFFCURVE",
"324 404 CURVE SMOOTH",
"286 404 LINE SMOOTH",
"279 404 OFFCURVE",
"278 405 OFFCURVE",
"279 411 CURVE SMOOTH",
"311 560 LINE SMOOTH",
"313 568 OFFCURVE",
"314 569 OFFCURVE",
"320 569 CURVE SMOOTH",
"322 569 LINE SMOOTH",
"397 569 OFFCURVE",
"435 560 OFFCURVE",
"421 492 CURVE SMOOTH"
);
}
);
width = 524;
}
);
note = B;
unicode = 0042;
},
{
glyphname = C;
lastChange = "2021-03-17 00:36:13 +0000";
layers = (
{
background = {
paths = (
{
closed = 1;
nodes = (
"420 34 LINE SMOOTH",
"421 39 OFFCURVE",
"421 42 OFFCURVE",
"416 40 CURVE SMOOTH",
"401 32 OFFCURVE",
"365 20 OFFCURVE",
"318 20 CURVE SMOOTH",
"137 20 OFFCURVE",
"154 224 OFFCURVE",
"180 349 CURVE SMOOTH",
"212 498 OFFCURVE",
"289 650 OFFCURVE",
"452 650 CURVE SMOOTH",
"499 650 OFFCURVE",
"530 638 OFFCURVE",
"542 630 CURVE SMOOTH",
"545 628 OFFCURVE",
"547 631 OFFCURVE",
"548 636 CURVE SMOOTH",
"553 658 LINE SMOOTH",
"554 662 OFFCURVE",
"552 666 OFFCURVE",
"547 668 CURVE SMOOTH",
"523 676 OFFCURVE",
"472 680 OFFCURVE",
"453 680 CURVE SMOOTH",
"304 680 OFFCURVE",
"192 566 OFFCURVE",
"143 335 CURVE SMOOTH",
"94 106 OFFCURVE",
"164 -9 OFFCURVE",
"307 -9 CURVE SMOOTH",
"326 -9 OFFCURVE",
"378 -6 OFFCURVE",
"405 2 CURVE",
"412 5 OFFCURVE",
"415 8 OFFCURVE",
"415 12 CURVE SMOOTH"
);
}
);
};
hints = (
{
horizontal = 1;
place = "{-7, 31}";
type = Stem;
},
{
horizontal = 1;
place = "{652, 32}";
type = Stem;
},
{
place = "{47, 36}";
type = Stem;
}
);
layerId = "707362F1-A677-446A-8636-E10BE3A7FAFF";
paths = (
{
closed = 1;
nodes = (
"420 34 LINE SMOOTH",
"421 39 OFFCURVE",
"421 42 OFFCURVE",
"416 40 CURVE SMOOTH",
"401 32 OFFCURVE",
"365 20 OFFCURVE",
"318 20 CURVE SMOOTH",
"137 20 OFFCURVE",
"154 224 OFFCURVE",
"180 349 CURVE SMOOTH",
"212 498 OFFCURVE",
"289 650 OFFCURVE",
"452 650 CURVE SMOOTH",
"499 650 OFFCURVE",
"530 638 OFFCURVE",
"542 630 CURVE SMOOTH",
"545 628 OFFCURVE",
"547 631 OFFCURVE",
"548 636 CURVE SMOOTH",
"553 658 LINE SMOOTH",
"554 662 OFFCURVE",
"552 666 OFFCURVE",
"547 668 CURVE SMOOTH",
"523 676 OFFCURVE",
"472 680 OFFCURVE",
"453 680 CURVE SMOOTH",
"304 680 OFFCURVE",
"192 566 OFFCURVE",
"143 335 CURVE SMOOTH",
"94 106 OFFCURVE",
"164 -9 OFFCURVE",
"307 -9 CURVE SMOOTH",
"326 -9 OFFCURVE",
"378 -6 OFFCURVE",
"405 2 CURVE",
"412 5 OFFCURVE",
"415 8 OFFCURVE",
"415 12 CURVE SMOOTH"
);
}
);
width = 471;
},
{
background = {
paths = (
{
closed = 1;
nodes = (
"471 124 LINE SMOOTH",
"476 146 OFFCURVE",
"468 147 OFFCURVE",
"434 129 CURVE SMOOTH",
"413 117 OFFCURVE",
"375 107 OFFCURVE",
"343 107 CURVE SMOOTH",
"233 107 OFFCURVE",
"243 242 OFFCURVE",
"266 348 CURVE SMOOTH",
"292 472 OFFCURVE",
"340 563 OFFCURVE",
"440 563 CURVE SMOOTH",
"466 563 OFFCURVE",
"500 555 OFFCURVE",
"525 536 CURVE SMOOTH",
"544 520 OFFCURVE",
"556 523 OFFCURVE",
"560 543 CURVE SMOOTH",
"581 642 LINE SMOOTH",
"584 656 OFFCURVE",
"573 661 OFFCURVE",
"554 667 CURVE SMOOTH",
"527 676 OFFCURVE",
"472 680 OFFCURVE",
"453 680 CURVE SMOOTH",
"282 680 OFFCURVE",
"156 562 OFFCURVE",
"108 335 CURVE SMOOTH",
"60 111 OFFCURVE",
"143 -8 OFFCURVE",
"307 -8 CURVE SMOOTH",
"326 -8 OFFCURVE",
"382 -6 OFFCURVE",
"414 4 CURVE SMOOTH",
"435 9 OFFCURVE",
"449 20 OFFCURVE",
"453 39 CURVE SMOOTH"
);
}
);
};
layerId = "D1BC8BBB-1669-4C46-BC21-42BF6808B2B9";
paths = (
{
closed = 1;
nodes = (
"471 124 LINE SMOOTH",
"476 146 OFFCURVE",
"468 147 OFFCURVE",
"434 129 CURVE SMOOTH",
"413 117 OFFCURVE",
"375 107 OFFCURVE",
"343 107 CURVE SMOOTH",
"233 107 OFFCURVE",
"243 242 OFFCURVE",
"266 348 CURVE SMOOTH",
"292 472 OFFCURVE",
"340 563 OFFCURVE",
"440 563 CURVE SMOOTH",
"466 563 OFFCURVE",
"500 555 OFFCURVE",
"525 536 CURVE SMOOTH",
"544 520 OFFCURVE",
"556 523 OFFCURVE",
"560 543 CURVE SMOOTH",
"581 642 LINE SMOOTH",
"584 656 OFFCURVE",
"573 661 OFFCURVE",
"554 667 CURVE SMOOTH",
"527 676 OFFCURVE",
"472 680 OFFCURVE",
"453 680 CURVE SMOOTH",
"282 680 OFFCURVE",
"156 562 OFFCURVE",
"108 335 CURVE SMOOTH",
"60 111 OFFCURVE",
"143 -8 OFFCURVE",
"307 -8 CURVE SMOOTH",
"326 -8 OFFCURVE",
"382 -6 OFFCURVE",
"414 4 CURVE SMOOTH",
"435 9 OFFCURVE",
"449 20 OFFCURVE",
"453 39 CURVE SMOOTH"
);
}
);
width = 473;
}
);
note = C;
unicode = 0043;
},
{
glyphname = D;
lastChange = "2021-03-17 00:36:13 +0000";
layers = (
{
background = {
paths = (
{
closed = 1;
nodes = (
"643 641 OFFCURVE",
"526 673 OFFCURVE",
"433 673 CURVE SMOOTH",
"227 673 LINE SMOOTH",
"224 673 OFFCURVE",
"223 671 OFFCURVE",
"222 669 CURVE SMOOTH",
"81 4 LINE SMOOTH",
"80 1 OFFCURVE",
"81 0 OFFCURVE",
"84 0 CURVE SMOOTH",
"290 0 LINE SMOOTH",
"366 0 OFFCURVE",
"518 54 OFFCURVE",
"581 347 CURVE SMOOTH"
);
},
{
closed = 1;
nodes = (
"491 81 OFFCURVE",
"359 29 OFFCURVE",
"283 29 CURVE SMOOTH",
"124 29 LINE SMOOTH",
"120 29 OFFCURVE",
"120 31 OFFCURVE",
"120 34 CURVE SMOOTH",
"249 638 LINE SMOOTH",
"249 641 OFFCURVE",
"251 643 OFFCURVE",
"255 643 CURVE SMOOTH",
"432 643 LINE SMOOTH",
"505 643 OFFCURVE",
"605 614 OFFCURVE",
"548 347 CURVE SMOOTH"
);
}
);
};
hints = (
{
horizontal = 1;
place = "{0, 29}";
type = Stem;
},
{
horizontal = 1;
place = "{643, 30}";
type = Stem;
},
{
place = "{60, 33}";
type = Stem;
},
{
place = "{454, 33}";
type = Stem;
}
);
layerId = "707362F1-A677-446A-8636-E10BE3A7FAFF";
paths = (
{
closed = 1;
nodes = (
"643 641 OFFCURVE",
"526 673 OFFCURVE",
"433 673 CURVE SMOOTH",
"227 673 LINE SMOOTH",
"224 673 OFFCURVE",
"223 671 OFFCURVE",
"222 669 CURVE SMOOTH",
"81 4 LINE SMOOTH",
"80 1 OFFCURVE",
"81 0 OFFCURVE",
"84 0 CURVE SMOOTH",
"290 0 LINE SMOOTH",
"366 0 OFFCURVE",
"518 54 OFFCURVE",
"581 347 CURVE SMOOTH"
);
},
{
closed = 1;
nodes = (
"491 81 OFFCURVE",
"359 29 OFFCURVE",
"283 29 CURVE SMOOTH",
"124 29 LINE SMOOTH",
"120 29 OFFCURVE",
"120 31 OFFCURVE",
"120 34 CURVE SMOOTH",
"249 638 LINE SMOOTH",
"249 641 OFFCURVE",
"251 643 OFFCURVE",
"255 643 CURVE SMOOTH",
"432 643 LINE SMOOTH",
"505 643 OFFCURVE",
"605 614 OFFCURVE",
"548 347 CURVE SMOOTH"
);
}
);
width = 552;
},
{
background = {
paths = (
{
closed = 1;
nodes = (
"664 638 OFFCURVE",
"509 673 OFFCURVE",
"384 673 CURVE SMOOTH",
"198 673 LINE SMOOTH",
"190 673 OFFCURVE",
"182 667 OFFCURVE",
"180 658 CURVE SMOOTH",
"43 14 LINE SMOOTH",
"41 6 OFFCURVE",
"47 0 OFFCURVE",
"55 0 CURVE SMOOTH",
"241 0 LINE SMOOTH",
"344 0 OFFCURVE",
"540 57 OFFCURVE",
"602 346 CURVE SMOOTH"
);
},
{
closed = 1;
nodes = (
"406 131 OFFCURVE",
"303 116 OFFCURVE",
"243 116 CURVE SMOOTH",
"226 116 LINE SMOOTH",
"218 116 OFFCURVE",
"217 116 OFFCURVE",
"219 126 CURVE SMOOTH",
"308 548 LINE SMOOTH",
"310 557 OFFCURVE",
"310 557 OFFCURVE",
"322 557 CURVE SMOOTH",
"352 557 LINE SMOOTH",
"409 557 OFFCURVE",
"497 560 OFFCURVE",
"452 346 CURVE SMOOTH"
);
}
);
};
layerId = "D1BC8BBB-1669-4C46-BC21-42BF6808B2B9";
paths = (
{
closed = 1;
nodes = (
"664 638 OFFCURVE",
"509 673 OFFCURVE",
"384 673 CURVE SMOOTH",
"198 673 LINE SMOOTH",
"190 673 OFFCURVE",
"182 667 OFFCURVE",
"180 658 CURVE SMOOTH",
"43 14 LINE SMOOTH",
"41 6 OFFCURVE",
"47 0 OFFCURVE",
"55 0 CURVE SMOOTH",
"241 0 LINE SMOOTH",
"344 0 OFFCURVE",
"540 57 OFFCURVE",
"602 346 CURVE SMOOTH"
);
},
{
closed = 1;
nodes = (
"406 131 OFFCURVE",
"303 116 OFFCURVE",
"243 116 CURVE SMOOTH",
"226 116 LINE SMOOTH",
"218 116 OFFCURVE",
"217 116 OFFCURVE",
"219 126 CURVE SMOOTH",
"308 548 LINE SMOOTH",
"310 557 OFFCURVE",
"310 557 OFFCURVE",
"322 557 CURVE SMOOTH",
"352 557 LINE SMOOTH",
"409 557 OFFCURVE",
"497 560 OFFCURVE",
"452 346 CURVE SMOOTH"
);
}
);
width = 563;
}
);
note = D;
unicode = 0044;
},
{
glyphname = E;
lastChange = "2021-03-17 00:36:13 +0000";
layers = (
{
background = {
paths = (
{
closed = 1;
nodes = (
"377 0 LINE SMOOTH",
"379 0 OFFCURVE",
"380 1 OFFCURVE",
"381 4 CURVE SMOOTH",
"386 26 LINE SMOOTH",
"386 28 OFFCURVE",
"385 29 OFFCURVE",
"383 29 CURVE SMOOTH",
"116 29 LINE SMOOTH",
"109 29 OFFCURVE",
"110 32 OFFCURVE",
"111 38 CURVE SMOOTH",
"170 317 LINE SMOOTH",
"171 322 OFFCURVE",
"173 324 OFFCURVE",
"178 324 CURVE SMOOTH",
"401 324 LINE SMOOTH",
"403 324 OFFCURVE",
"404 326 OFFCURVE",
"405 328 CURVE SMOOTH",
"409 350 LINE SMOOTH",
"410 353 OFFCURVE",
"409 354 OFFCURVE",
"407 354 CURVE SMOOTH",
"185 354 LINE SMOOTH",
"182 354 OFFCURVE",
"179 358 OFFCURVE",
"180 361 CURVE SMOOTH",
"238 636 LINE SMOOTH",
"239 640 OFFCURVE",
"240 643 OFFCURVE",
"246 643 CURVE SMOOTH",
"514 643 LINE SMOOTH",
"516 643 OFFCURVE",
"517 644 OFFCURVE",
"518 647 CURVE SMOOTH",
"522 669 LINE SMOOTH",
"523 671 OFFCURVE",
"522 673 OFFCURVE",
"520 673 CURVE SMOOTH",
"217 673 LINE SMOOTH",
"214 673 OFFCURVE",
"213 671 OFFCURVE",
"212 669 CURVE SMOOTH",
"71 4 LINE SMOOTH",
"70 1 OFFCURVE",
"71 0 OFFCURVE",
"74 0 CURVE SMOOTH"
);
}
);
};
hints = (
{
horizontal = 1;
place = "{0, 29}";
type = Stem;
},
{
horizontal = 1;
place = "{324, 30}";
type = Stem;
},
{
horizontal = 1;
place = "{643, 30}";
type = Stem;
},
{
place = "{60, 33}";
type = Stem;
}
);
layerId = "707362F1-A677-446A-8636-E10BE3A7FAFF";
paths = (
{
closed = 1;
nodes = (
"377 0 LINE SMOOTH",
"379 0 OFFCURVE",
"380 1 OFFCURVE",
"381 4 CURVE SMOOTH",
"386 26 LINE SMOOTH",
"386 28 OFFCURVE",
"385 29 OFFCURVE",
"383 29 CURVE SMOOTH",
"116 29 LINE SMOOTH",
"109 29 OFFCURVE",
"110 32 OFFCURVE",
"111 38 CURVE SMOOTH",
"170 317 LINE SMOOTH",
"171 322 OFFCURVE",
"173 324 OFFCURVE",
"178 324 CURVE SMOOTH",
"401 324 LINE SMOOTH",
"403 324 OFFCURVE",
"404 326 OFFCURVE",
"405 328 CURVE SMOOTH",
"409 350 LINE SMOOTH",
"410 353 OFFCURVE",
"409 354 OFFCURVE",
"407 354 CURVE SMOOTH",
"185 354 LINE SMOOTH",
"182 354 OFFCURVE",
"179 358 OFFCURVE",
"180 361 CURVE SMOOTH",
"238 636 LINE SMOOTH",
"239 640 OFFCURVE",
"240 643 OFFCURVE",
"246 643 CURVE SMOOTH",
"514 643 LINE SMOOTH",
"516 643 OFFCURVE",
"517 644 OFFCURVE",
"518 647 CURVE SMOOTH",
"522 669 LINE SMOOTH",
"523 671 OFFCURVE",
"522 673 OFFCURVE",
"520 673 CURVE SMOOTH",
"217 673 LINE SMOOTH",
"214 673 OFFCURVE",
"213 671 OFFCURVE",
"212 669 CURVE SMOOTH",
"71 4 LINE SMOOTH",
"70 1 OFFCURVE",
"71 0 OFFCURVE",
"74 0 CURVE SMOOTH"
);
}
);
width = 440;
},
{
background = {
paths = (
{
closed = 1;
nodes = (
"391 0 LINE SMOOTH",
"411 0 OFFCURVE",
"414 0 OFFCURVE",
"419 22 CURVE SMOOTH",
"434 94 LINE SMOOTH",
"438 114 OFFCURVE",
"439 116 OFFCURVE",
"417 116 CURVE SMOOTH",
"225 116 LINE SMOOTH",
"217 116 OFFCURVE",
"217 117 OFFCURVE",
"219 125 CURVE SMOOTH",
"250 275 LINE SMOOTH",
"252 282 OFFCURVE",
"253 282 OFFCURVE",
"260 282 CURVE SMOOTH",
"410 282 LINE SMOOTH",
"429 282 OFFCURVE",
"430 283 OFFCURVE",
"434 303 CURVE SMOOTH",
"449 374 LINE SMOOTH",
"454 395 OFFCURVE",
"454 396 OFFCURVE",
"434 396 CURVE SMOOTH",
"284 396 LINE SMOOTH",
"276 396 OFFCURVE",
"276 396 OFFCURVE",
"278 405 CURVE SMOOTH",
"309 549 LINE SMOOTH",
"310 557 OFFCURVE",
"310 557 OFFCURVE",
"319 557 CURVE SMOOTH",
"513 557 LINE SMOOTH",
"529 557 OFFCURVE",
"532 557 OFFCURVE",
"536 576 CURVE SMOOTH",
"553 656 LINE SMOOTH",
"557 673 OFFCURVE",
"557 673 OFFCURVE",
"538 673 CURVE SMOOTH",
"198 673 LINE SMOOTH",
"190 673 OFFCURVE",
"182 667 OFFCURVE",
"180 658 CURVE SMOOTH",
"43 14 LINE SMOOTH",
"41 6 OFFCURVE",
"47 0 OFFCURVE",
"55 0 CURVE SMOOTH"
);
}
);
};
layerId = "D1BC8BBB-1669-4C46-BC21-42BF6808B2B9";
paths = (
{
closed = 1;
nodes = (
"391 0 LINE SMOOTH",
"411 0 OFFCURVE",
"414 0 OFFCURVE",
"419 22 CURVE SMOOTH",
"434 94 LINE SMOOTH",
"438 114 OFFCURVE",
"439 116 OFFCURVE",
"417 116 CURVE SMOOTH",
"225 116 LINE SMOOTH",
"217 116 OFFCURVE",
"217 117 OFFCURVE",
"219 125 CURVE SMOOTH",
"250 275 LINE SMOOTH",
"252 282 OFFCURVE",
"253 282 OFFCURVE",
"260 282 CURVE SMOOTH",
"410 282 LINE SMOOTH",
"429 282 OFFCURVE",
"430 283 OFFCURVE",
"434 303 CURVE SMOOTH",
"449 374 LINE SMOOTH",
"454 395 OFFCURVE",
"454 396 OFFCURVE",
"434 396 CURVE SMOOTH",
"284 396 LINE SMOOTH",
"276 396 OFFCURVE",
"276 396 OFFCURVE",
"278 405 CURVE SMOOTH",
"309 549 LINE SMOOTH",
"310 557 OFFCURVE",
"310 557 OFFCURVE",
"319 557 CURVE SMOOTH",
"513 557 LINE SMOOTH",
"529 557 OFFCURVE",
"532 557 OFFCURVE",
"536 576 CURVE SMOOTH",
"553 656 LINE SMOOTH",
"557 673 OFFCURVE",
"557 673 OFFCURVE",
"538 673 CURVE SMOOTH",
"198 673 LINE SMOOTH",
"190 673 OFFCURVE",
"182 667 OFFCURVE",
"180 658 CURVE SMOOTH",
"43 14 LINE SMOOTH",
"41 6 OFFCURVE",
"47 0 OFFCURVE",
"55 0 CURVE SMOOTH"
);
}
);
width = 444;
}
);
note = E;
unicode = 0045;
},
{
glyphname = F;
lastChange = "2021-03-17 00:36:13 +0000";
layers = (
{
background = {
paths = (
{
closed = 1;
nodes = (
"109 0 LINE SMOOTH",
"112 0 OFFCURVE",
"113 1 OFFCURVE",
"114 4 CURVE SMOOTH",
"180 317 LINE SMOOTH",
"181 322 OFFCURVE",
"183 324 OFFCURVE",
"188 324 CURVE SMOOTH",
"399 324 LINE SMOOTH",
"402 324 OFFCURVE",
"403 326 OFFCURVE",
"404 328 CURVE SMOOTH",
"408 350 LINE SMOOTH",
"409 353 OFFCURVE",
"408 354 OFFCURVE",
"405 354 CURVE SMOOTH",
"195 354 LINE SMOOTH",
"192 354 OFFCURVE",
"189 358 OFFCURVE",
"190 361 CURVE SMOOTH",
"248 636 LINE SMOOTH",
"249 640 OFFCURVE",
"250 643 OFFCURVE",
"256 643 CURVE SMOOTH",
"524 643 LINE SMOOTH",
"526 643 OFFCURVE",
"527 644 OFFCURVE",
"528 647 CURVE SMOOTH",
"532 669 LINE SMOOTH",
"533 671 OFFCURVE",
"532 673 OFFCURVE",
"530 673 CURVE SMOOTH",
"227 673 LINE SMOOTH",
"224 673 OFFCURVE",
"223 671 OFFCURVE",
"222 669 CURVE SMOOTH",
"81 4 LINE SMOOTH",
"80 1 OFFCURVE",
"81 0 OFFCURVE",
"84 0 CURVE SMOOTH"
);
}
);
};
hints = (
{
horizontal = 1;
place = "{4, 21}";
target = up;
type = BottomGhost;
},
{
horizontal = 1;
place = "{324, 30}";
type = Stem;
},
{
horizontal = 1;
place = "{643, 30}";
type = Stem;
},
{
place = "{36, 33}";
type = Stem;
}
);
layerId = "707362F1-A677-446A-8636-E10BE3A7FAFF";
paths = (
{
closed = 1;
nodes = (
"109 0 LINE SMOOTH",
"112 0 OFFCURVE",
"113 1 OFFCURVE",
"114 4 CURVE SMOOTH",
"180 317 LINE SMOOTH",
"181 322 OFFCURVE",
"183 324 OFFCURVE",
"188 324 CURVE SMOOTH",
"399 324 LINE SMOOTH",
"402 324 OFFCURVE",
"403 326 OFFCURVE",
"404 328 CURVE SMOOTH",
"408 350 LINE SMOOTH",
"409 353 OFFCURVE",
"408 354 OFFCURVE",
"405 354 CURVE SMOOTH",
"195 354 LINE SMOOTH",
"192 354 OFFCURVE",
"189 358 OFFCURVE",
"190 361 CURVE SMOOTH",
"248 636 LINE SMOOTH",
"249 640 OFFCURVE",
"250 643 OFFCURVE",
"256 643 CURVE SMOOTH",
"524 643 LINE SMOOTH",
"526 643 OFFCURVE",
"527 644 OFFCURVE",
"528 647 CURVE SMOOTH",
"532 669 LINE SMOOTH",
"533 671 OFFCURVE",
"532 673 OFFCURVE",
"530 673 CURVE SMOOTH",
"227 673 LINE SMOOTH",
"224 673 OFFCURVE",
"223 671 OFFCURVE",
"222 669 CURVE SMOOTH",
"81 4 LINE SMOOTH",
"80 1 OFFCURVE",
"81 0 OFFCURVE",
"84 0 CURVE SMOOTH"
);
}
);
width = 410;
},
{
background = {
paths = (
{
closed = 1;
nodes = (
"169 0 LINE SMOOTH",
"191 0 OFFCURVE",
"192 0 OFFCURVE",
"197 22 CURVE SMOOTH",
"250 275 LINE SMOOTH",
"252 282 OFFCURVE",
"253 282 OFFCURVE",
"260 282 CURVE SMOOTH",
"410 282 LINE SMOOTH",
"429 282 OFFCURVE",
"430 283 OFFCURVE",
"434 303 CURVE SMOOTH",
"449 374 LINE SMOOTH",
"454 395 OFFCURVE",
"454 396 OFFCURVE",
"434 396 CURVE SMOOTH",
"284 396 LINE SMOOTH",
"276 396 OFFCURVE",
"276 396 OFFCURVE",
"278 405 CURVE SMOOTH",
"309 549 LINE SMOOTH",
"310 557 OFFCURVE",
"310 557 OFFCURVE",
"319 557 CURVE SMOOTH",
"513 557 LINE SMOOTH",
"529 557 OFFCURVE",
"532 557 OFFCURVE",
"536 576 CURVE SMOOTH",
"553 656 LINE SMOOTH",
"557 673 OFFCURVE",
"557 673 OFFCURVE",
"538 673 CURVE SMOOTH",
"198 673 LINE SMOOTH",
"190 673 OFFCURVE",
"182 667 OFFCURVE",
"180 658 CURVE SMOOTH",
"43 14 LINE SMOOTH",
"41 6 OFFCURVE",
"47 0 OFFCURVE",
"55 0 CURVE SMOOTH"
);
}
);
};
layerId = "D1BC8BBB-1669-4C46-BC21-42BF6808B2B9";
paths = (
{
closed = 1;
nodes = (
"169 0 LINE SMOOTH",
"191 0 OFFCURVE",
"192 0 OFFCURVE",
"197 22 CURVE SMOOTH",
"250 275 LINE SMOOTH",
"252 282 OFFCURVE",
"253 282 OFFCURVE",
"260 282 CURVE SMOOTH",
"410 282 LINE SMOOTH",
"429 282 OFFCURVE",
"430 283 OFFCURVE",
"434 303 CURVE SMOOTH",
"449 374 LINE SMOOTH",
"454 395 OFFCURVE",
"454 396 OFFCURVE",
"434 396 CURVE SMOOTH",
"284 396 LINE SMOOTH",
"276 396 OFFCURVE",
"276 396 OFFCURVE",
"278 405 CURVE SMOOTH",
"309 549 LINE SMOOTH",
"310 557 OFFCURVE",
"310 557 OFFCURVE",
"319 557 CURVE SMOOTH",
"513 557 LINE SMOOTH",
"529 557 OFFCURVE",
"532 557 OFFCURVE",
"536 576 CURVE SMOOTH",
"553 656 LINE SMOOTH",
"557 673 OFFCURVE",
"557 673 OFFCURVE",
"538 673 CURVE SMOOTH",
"198 673 LINE SMOOTH",
"190 673 OFFCURVE",
"182 667 OFFCURVE",
"180 658 CURVE SMOOTH",
"43 14 LINE SMOOTH",
"41 6 OFFCURVE",
"47 0 OFFCURVE",
"55 0 CURVE SMOOTH"
);
}
);
width = 424;
}
);
note = F;
unicode = 0046;
},
{
glyphname = G;
lastChange = "2021-03-17 00:36:13 +0000";
layers = (
{
background = {
paths = (
{
closed = 1;
nodes = (
"556 347 LINE SMOOTH",
"558 354 OFFCURVE",
"557 356 OFFCURVE",
"549 356 CURVE SMOOTH",
"346 356 LINE SMOOTH",
"345 356 OFFCURVE",
"342 353 OFFCURVE",
"342 353 CURVE",
"337 330 LINE",
"337 330 OFFCURVE",
"339 327 OFFCURVE",
"340 327 CURVE SMOOTH",
"508 327 LINE SMOOTH",
"515 327 OFFCURVE",
"518 324 OFFCURVE",
"516 315 CURVE SMOOTH",
"456 32 LINE",
"448 26 OFFCURVE",
"425 22 OFFCURVE",
"393 22 CURVE SMOOTH",
"266 22 OFFCURVE",
"102 81 OFFCURVE",
"156 332 CURVE SMOOTH",
"207 572 OFFCURVE",
"397 649 OFFCURVE",
"499 649 CURVE SMOOTH",
"537 649 OFFCURVE",
"577 648 OFFCURVE",
"606 629 CURVE SMOOTH",
"610 627 OFFCURVE",
"611 630 OFFCURVE",
"612 635 CURVE SMOOTH",
"617 657 LINE SMOOTH",
"618 661 OFFCURVE",
"616 664 OFFCURVE",
"611 667 CURVE",
"584 676 OFFCURVE",
"536 678 OFFCURVE",
"505 678 CURVE SMOOTH",
"330 678 OFFCURVE",
"167 545 OFFCURVE",
"120 324 CURVE SMOOTH",
"74 107 OFFCURVE",
"179 -6 OFFCURVE",
"403 -6 CURVE SMOOTH",
"436 -6 OFFCURVE",
"481 -4 OFFCURVE",
"486 18 CURVE SMOOTH"
);
}
);
};
hints = (
{
horizontal = 1;
place = "{-5, 29}";
type = Stem;
},
{
horizontal = 1;
place = "{328, 30}";
type = Stem;
},
{
horizontal = 1;
place = "{650, 30}";
type = Stem;
},
{
place = "{36, 35}";
type = Stem;
},
{
place = "{434, 34}";
type = Stem;
}
);
layerId = "707362F1-A677-446A-8636-E10BE3A7FAFF";
paths = (
{
closed = 1;
nodes = (
"556 347 LINE SMOOTH",
"558 354 OFFCURVE",
"557 356 OFFCURVE",
"549 356 CURVE SMOOTH",
"346 356 LINE SMOOTH",
"345 356 OFFCURVE",
"342 353 OFFCURVE",
"342 353 CURVE",
"337 330 LINE",
"337 330 OFFCURVE",
"339 327 OFFCURVE",
"340 327 CURVE SMOOTH",
"508 327 LINE SMOOTH",
"515 327 OFFCURVE",
"518 324 OFFCURVE",
"516 315 CURVE SMOOTH",
"456 32 LINE",
"448 26 OFFCURVE",
"425 22 OFFCURVE",
"393 22 CURVE SMOOTH",
"266 22 OFFCURVE",
"102 81 OFFCURVE",
"156 332 CURVE SMOOTH",
"207 572 OFFCURVE",
"397 649 OFFCURVE",
"499 649 CURVE SMOOTH",
"537 649 OFFCURVE",
"577 648 OFFCURVE",
"606 629 CURVE SMOOTH",
"610 627 OFFCURVE",
"611 630 OFFCURVE",
"612 635 CURVE SMOOTH",
"617 657 LINE SMOOTH",
"618 661 OFFCURVE",
"616 664 OFFCURVE",
"611 667 CURVE",
"584 676 OFFCURVE",
"536 678 OFFCURVE",
"505 678 CURVE SMOOTH",
"330 678 OFFCURVE",
"167 545 OFFCURVE",
"120 324 CURVE SMOOTH",
"74 107 OFFCURVE",
"179 -6 OFFCURVE",
"403 -6 CURVE SMOOTH",
"436 -6 OFFCURVE",
"481 -4 OFFCURVE",
"486 18 CURVE SMOOTH"
);
}
);
width = 541;
},
{
background = {
paths = (
{
closed = 1;
nodes = (
"618 375 LINE SMOOTH",
"623 398 OFFCURVE",
"623 399 OFFCURVE",
"601 399 CURVE SMOOTH",
"362 399 LINE SMOOTH",
"346 399 OFFCURVE",
"343 396 OFFCURVE",
"340 380 CURVE SMOOTH",
"323 299 LINE SMOOTH",
"319 283 OFFCURVE",
"322 283 OFFCURVE",
"337 283 CURVE SMOOTH",
"440 283 LINE SMOOTH",
"447 283 OFFCURVE",
"447 282 OFFCURVE",
"446 276 CURVE SMOOTH",
"414 124 LINE SMOOTH",
"412 114 OFFCURVE",
"405 110 OFFCURVE",
"390 110 CURVE SMOOTH",
"336 110 OFFCURVE",
"225 132 OFFCURVE",
"268 332 CURVE SMOOTH",
"309 526 OFFCURVE",
"440 562 OFFCURVE",
"513 562 CURVE SMOOTH",
"558 562 OFFCURVE",
"588 552 OFFCURVE",
"617 533 CURVE SMOOTH",
"630 523 OFFCURVE",
"647 529 OFFCURVE",
"653 558 CURVE SMOOTH",
"670 638 LINE SMOOTH",
"674 658 OFFCURVE",
"666 657 OFFCURVE",
"646 664 CURVE SMOOTH",
"619 674 OFFCURVE",
"561 678 OFFCURVE",
"504 678 CURVE SMOOTH",
"315 678 OFFCURVE",
"152 544 OFFCURVE",
"106 326 CURVE SMOOTH",
"59 109 OFFCURVE",
"155 -6 OFFCURVE",
"399 -6 CURVE SMOOTH",
"476 -6 OFFCURVE",
"539 5 OFFCURVE",
"546 34 CURVE SMOOTH"
);
}
);
};
layerId = "D1BC8BBB-1669-4C46-BC21-42BF6808B2B9";
paths = (
{
closed = 1;
nodes = (
"618 375 LINE SMOOTH",
"623 398 OFFCURVE",
"623 399 OFFCURVE",
"601 399 CURVE SMOOTH",
"362 399 LINE SMOOTH",
"346 399 OFFCURVE",
"343 396 OFFCURVE",
"340 380 CURVE SMOOTH",
"323 299 LINE SMOOTH",
"319 283 OFFCURVE",
"322 283 OFFCURVE",
"337 283 CURVE SMOOTH",
"440 283 LINE SMOOTH",
"447 283 OFFCURVE",
"447 282 OFFCURVE",
"446 276 CURVE SMOOTH",
"414 124 LINE SMOOTH",
"412 114 OFFCURVE",
"405 110 OFFCURVE",
"390 110 CURVE SMOOTH",
"336 110 OFFCURVE",
"225 132 OFFCURVE",
"268 332 CURVE SMOOTH",
"309 526 OFFCURVE",
"440 562 OFFCURVE",
"513 562 CURVE SMOOTH",
"558 562 OFFCURVE",
"588 552 OFFCURVE",
"617 533 CURVE SMOOTH",
"630 523 OFFCURVE",
"647 529 OFFCURVE",
"653 558 CURVE SMOOTH",
"670 638 LINE SMOOTH",
"674 658 OFFCURVE",
"666 657 OFFCURVE",
"646 664 CURVE SMOOTH",
"619 674 OFFCURVE",
"561 678 OFFCURVE",
"504 678 CURVE SMOOTH",
"315 678 OFFCURVE",
"152 544 OFFCURVE",
"106 326 CURVE SMOOTH",
"59 109 OFFCURVE",
"155 -6 OFFCURVE",
"399 -6 CURVE SMOOTH",
"476 -6 OFFCURVE",
"539 5 OFFCURVE",
"546 34 CURVE SMOOTH"
);
}
);
width = 587;
}
);
note = G;
unicode = 0047;
},
{
glyphname = H;
lastChange = "2021-03-17 01:12:36 +0000";
layers = (
{
background = {
paths = (
{
closed = 1;
nodes = (
"102 0 OFFCURVE",
"110 0 OFFCURVE",
"119 0 CURVE SMOOTH",
"121 0 OFFCURVE",
"122 1 OFFCURVE",
"123 4 CURVE SMOOTH",
"132 131 OFFCURVE",
"167 282 OFFCURVE",
"175 316 CURVE SMOOTH",
"176 322 OFFCURVE",
"181 324 OFFCURVE",
"185 324 CURVE SMOOTH",
"304 324 OFFCURVE",
"424 324 OFFCURVE",
"543 324 CURVE SMOOTH",
"546 324 OFFCURVE",
"549 322 OFFCURVE",
"548 316 CURVE SMOOTH",
"543 288 OFFCURVE",
"514 132 OFFCURVE",
"469 4 CURVE SMOOTH",
"468 1 OFFCURVE",
"469 0 OFFCURVE",
"471 0 CURVE SMOOTH",
"480 0 OFFCURVE",
"488 0 OFFCURVE",
"497 0 CURVE SMOOTH",
"499 0 OFFCURVE",
"501 1 OFFCURVE",
"502 4 CURVE SMOOTH",
"524 70 OFFCURVE",
"558 202 OFFCURVE",
"586 334 CURVE SMOOTH",
"614 468 OFFCURVE",
"636 604 OFFCURVE",
"642 669 CURVE SMOOTH",
"643 671 OFFCURVE",
"640 673 OFFCURVE",
"639 673 CURVE SMOOTH",
"631 673 OFFCURVE",
"622 673 OFFCURVE",
"614 673 CURVE SMOOTH",
"612 673 OFFCURVE",
"611 671 OFFCURVE",
"609 670 CURVE SMOOTH",
"589 507 OFFCURVE",
"560 372 OFFCURVE",
"558 362 CURVE SMOOTH",
"556 354 OFFCURVE",
"552 354 OFFCURVE",
"549 354 CURVE SMOOTH",
"429 354 OFFCURVE",
"310 354 OFFCURVE",
"190 354 CURVE SMOOTH",
"187 354 OFFCURVE",
"184 355 OFFCURVE",
"186 362 CURVE SMOOTH",
"190 381 OFFCURVE",
"217 509 OFFCURVE",
"265 670 CURVE",
"265 671 OFFCURVE",
"264 673 OFFCURVE",
"262 673 CURVE SMOOTH",
"254 673 OFFCURVE",
"245 673 OFFCURVE",
"237 673 CURVE SMOOTH",
"236 673 OFFCURVE",
"233 671 OFFCURVE",
"232 669 CURVE SMOOTH",
"210 604 OFFCURVE",
"174 468 OFFCURVE",
"146 334 CURVE SMOOTH",
"118 202 OFFCURVE",
"96 70 OFFCURVE",
"90 4 CURVE SMOOTH",
"89 1 OFFCURVE",
"92 0 OFFCURVE",
"93 0 CURVE SMOOTH"
);
}
);
};
hints = (
{
horizontal = 1;
place = "{4, 21}";
target = up;
type = BottomGhost;
},
{
horizontal = 1;
place = "{324, 30}";
type = Stem;
},
{
horizontal = 1;
place = "{673, -20}";
target = down;
type = TopGhost;
},
{
place = "{89, 33}";
type = Stem;
},
{
place = "{448, 33}";
type = Stem;
}
);
layerId = "707362F1-A677-446A-8636-E10BE3A7FAFF";
paths = (
{
closed = 1;
nodes = (
"102 0 OFFCURVE",
"110 0 OFFCURVE",
"119 0 CURVE SMOOTH",
"121 0 OFFCURVE",
"122 1 OFFCURVE",
"123 4 CURVE SMOOTH",
"132 131 OFFCURVE",
"167 282 OFFCURVE",
"175 316 CURVE SMOOTH",
"176 322 OFFCURVE",
"181 324 OFFCURVE",
"185 324 CURVE SMOOTH",
"304 324 OFFCURVE",
"424 324 OFFCURVE",
"543 324 CURVE SMOOTH",
"546 324 OFFCURVE",
"549 322 OFFCURVE",
"548 316 CURVE SMOOTH",
"543 288 OFFCURVE",
"514 132 OFFCURVE",
"469 4 CURVE SMOOTH",
"468 1 OFFCURVE",
"469 0 OFFCURVE",
"471 0 CURVE SMOOTH",
"480 0 OFFCURVE",
"488 0 OFFCURVE",
"497 0 CURVE SMOOTH",
"499 0 OFFCURVE",
"501 1 OFFCURVE",
"502 4 CURVE SMOOTH",
"524 70 OFFCURVE",
"558 202 OFFCURVE",
"586 334 CURVE SMOOTH",
"614 468 OFFCURVE",
"636 604 OFFCURVE",
"642 669 CURVE SMOOTH",
"643 671 OFFCURVE",
"640 673 OFFCURVE",
"639 673 CURVE SMOOTH",
"631 673 OFFCURVE",
"622 673 OFFCURVE",
"614 673 CURVE SMOOTH",
"612 673 OFFCURVE",
"611 671 OFFCURVE",
"609 670 CURVE SMOOTH",
"589 507 OFFCURVE",
"560 372 OFFCURVE",
"558 362 CURVE SMOOTH",
"556 354 OFFCURVE",
"552 354 OFFCURVE",
"549 354 CURVE SMOOTH",
"429 354 OFFCURVE",
"310 354 OFFCURVE",
"190 354 CURVE SMOOTH",
"187 354 OFFCURVE",
"184 355 OFFCURVE",
"186 362 CURVE SMOOTH",
"190 381 OFFCURVE",
"220 521 OFFCURVE",
"265 669 CURVE SMOOTH",
"266 671 OFFCURVE",
"264 673 OFFCURVE",
"262 673 CURVE SMOOTH",
"254 673 OFFCURVE",
"245 673 OFFCURVE",
"237 673 CURVE SMOOTH",
"236 673 OFFCURVE",
"233 671 OFFCURVE",
"232 669 CURVE SMOOTH",
"210 604 OFFCURVE",
"174 468 OFFCURVE",
"146 334 CURVE SMOOTH",
"118 202 OFFCURVE",
"96 70 OFFCURVE",
"90 4 CURVE SMOOTH",
"89 1 OFFCURVE",
"92 0 OFFCURVE",
"93 0 CURVE SMOOTH"
);
}
);
width = 590;
},
{
background = {
paths = (
{
closed = 1;
nodes = (
"119 0 OFFCURVE",
"160 0 OFFCURVE",
"200 0 CURVE SMOOTH",
"207 0 OFFCURVE",
"209 4 OFFCURVE",
"210 14 CURVE SMOOTH",
"215 77 OFFCURVE",
"230 173 OFFCURVE",
"249 270 CURVE SMOOTH",
"252 281 OFFCURVE",
"253 282 OFFCURVE",
"265 282 CURVE SMOOTH",
"322 282 OFFCURVE",
"379 282 OFFCURVE",
"436 282 CURVE SMOOTH",
"448 282 OFFCURVE",
"450 281 OFFCURVE",
"447 270 CURVE SMOOTH",
"426 173 OFFCURVE",
"398 77 OFFCURVE",
"377 14 CURVE SMOOTH",
"374 4 OFFCURVE",
"374 0 OFFCURVE",
"381 0 CURVE SMOOTH",
"421 0 OFFCURVE",
"462 0 OFFCURVE",
"502 0 CURVE SMOOTH",
"513 0 OFFCURVE",
"524 1 OFFCURVE",
"528 14 CURVE SMOOTH",
"551 85 OFFCURVE",
"587 217 OFFCURVE",
"615 348 CURVE SMOOTH",
"641 468 OFFCURVE",
"662 587 OFFCURVE",
"662 658 CURVE",
"663 667 OFFCURVE",
"652 673 OFFCURVE",
"644 673 CURVE SMOOTH",
"604 673 OFFCURVE",
"563 673 OFFCURVE",
"523 673 CURVE SMOOTH",
"516 673 OFFCURVE",
"512 668 OFFCURVE",
"511 658 CURVE SMOOTH",
"507 612 OFFCURVE",
"493 511 OFFCURVE",
"477 412 CURVE SMOOTH",
"474 398 OFFCURVE",
"468 396 OFFCURVE",
"458 396 CURVE SMOOTH",
"403 396 OFFCURVE",
"347 396 OFFCURVE",
"292 396 CURVE SMOOTH",
"276 396 OFFCURVE",
"278 398 OFFCURVE",
"281 412 CURVE SMOOTH",
"306 511 OFFCURVE",
"334 612 OFFCURVE",
"350 658 CURVE SMOOTH",
"353 668 OFFCURVE",
"351 673 OFFCURVE",
"344 673 CURVE SMOOTH",
"304 673 OFFCURVE",
"263 673 OFFCURVE",
"223 673 CURVE SMOOTH",
"215 673 OFFCURVE",
"202 667 OFFCURVE",
"199 658 CURVE SMOOTH",
"169 587 OFFCURVE",
"140 470 OFFCURVE",
"115 351 CURVE SMOOTH",
"88 219 OFFCURVE",
"66 86 OFFCURVE",
"59 14 CURVE SMOOTH",
"57 1 OFFCURVE",
"69 0 OFFCURVE",
"79 0 CURVE SMOOTH"
);
}
);
};
guideLines = (
{
position = "{364, 673}";
}
);
layerId = "D1BC8BBB-1669-4C46-BC21-42BF6808B2B9";
paths = (
{
closed = 1;
nodes = (
"119 0 OFFCURVE",
"160 0 OFFCURVE",
"200 0 CURVE SMOOTH",
"207 0 OFFCURVE",
"209 4 OFFCURVE",
"210 14 CURVE SMOOTH",
"215 77 OFFCURVE",
"230 173 OFFCURVE",
"249 270 CURVE SMOOTH",
"252 281 OFFCURVE",
"253 282 OFFCURVE",
"265 282 CURVE SMOOTH",
"322 282 OFFCURVE",
"379 282 OFFCURVE",
"436 282 CURVE SMOOTH",
"448 282 OFFCURVE",
"450 281 OFFCURVE",
"447 270 CURVE SMOOTH",
"426 173 OFFCURVE",
"398 77 OFFCURVE",
"377 14 CURVE SMOOTH",
"374 4 OFFCURVE",
"374 0 OFFCURVE",
"381 0 CURVE SMOOTH",
"421 0 OFFCURVE",
"462 0 OFFCURVE",
"502 0 CURVE SMOOTH",
"513 0 OFFCURVE",
"524 1 OFFCURVE",
"528 14 CURVE SMOOTH",
"551 85 OFFCURVE",
"587 217 OFFCURVE",
"615 348 CURVE SMOOTH",
"641 468 OFFCURVE",
"662 587 OFFCURVE",
"662 658 CURVE",
"663 667 OFFCURVE",
"652 673 OFFCURVE",
"644 673 CURVE SMOOTH",
"604 673 OFFCURVE",
"563 673 OFFCURVE",
"523 673 CURVE SMOOTH",
"516 673 OFFCURVE",
"512 668 OFFCURVE",
"511 658 CURVE SMOOTH",
"507 612 OFFCURVE",
"493 511 OFFCURVE",
"477 412 CURVE SMOOTH",
"474 398 OFFCURVE",
"468 396 OFFCURVE",
"458 396 CURVE SMOOTH",
"403 396 OFFCURVE",
"347 396 OFFCURVE",
"292 396 CURVE SMOOTH",
"276 396 OFFCURVE",
"278 398 OFFCURVE",
"281 412 CURVE SMOOTH",
"306 511 OFFCURVE",
"334 612 OFFCURVE",
"350 658 CURVE SMOOTH",
"353 668 OFFCURVE",
"351 673 OFFCURVE",
"344 673 CURVE SMOOTH",
"304 673 OFFCURVE",
"263 673 OFFCURVE",
"223 673 CURVE SMOOTH",
"215 673 OFFCURVE",
"202 667 OFFCURVE",
"199 658 CURVE SMOOTH",
"169 587 OFFCURVE",
"140 470 OFFCURVE",
"115 351 CURVE SMOOTH",
"88 219 OFFCURVE",
"66 86 OFFCURVE",
"59 14 CURVE SMOOTH",
"57 1 OFFCURVE",
"69 0 OFFCURVE",
"79 0 CURVE SMOOTH"
);
}
);
width = 581;
}
);
note = H;
unicode = 0048;
},
{
glyphname = I;
lastChange = "2021-03-17 00:36:13 +0000";
layers = (
{
background = {
paths = (
{
closed = 1;
nodes = (
"255 669 LINE SMOOTH",
"256 671 OFFCURVE",
"254 673 OFFCURVE",
"252 673 CURVE SMOOTH",
"226 673 LINE SMOOTH",
"224 673 OFFCURVE",
"223 671 OFFCURVE",
"222 669 CURVE SMOOTH",
"81 4 LINE SMOOTH",
"80 1 OFFCURVE",
"81 0 OFFCURVE",
"83 0 CURVE SMOOTH",
"109 0 LINE SMOOTH",
"111 0 OFFCURVE",
"113 1 OFFCURVE",
"114 4 CURVE SMOOTH"
);
}
);
};
hints = (
{
horizontal = 1;
place = "{4, 21}";
target = up;
type = BottomGhost;
},
{
horizontal = 1;
place = "{673, -20}";
target = down;
type = TopGhost;
},
{
place = "{80, 33}";
type = Stem;
}
);
layerId = "707362F1-A677-446A-8636-E10BE3A7FAFF";
paths = (
{
closed = 1;
nodes = (
"255 669 LINE SMOOTH",
"256 671 OFFCURVE",
"254 673 OFFCURVE",
"252 673 CURVE SMOOTH",
"226 673 LINE SMOOTH",
"224 673 OFFCURVE",
"223 671 OFFCURVE",
"222 669 CURVE SMOOTH",
"81 4 LINE SMOOTH",
"80 1 OFFCURVE",
"81 0 OFFCURVE",
"83 0 CURVE SMOOTH",
"109 0 LINE SMOOTH",
"111 0 OFFCURVE",
"113 1 OFFCURVE",
"114 4 CURVE SMOOTH"
);
}
);
width = 193;
},
{
background = {
paths = (
{
closed = 1;
nodes = (
"341 658 LINE SMOOTH",
"343 667 OFFCURVE",
"337 673 OFFCURVE",
"329 673 CURVE SMOOTH",
"209 673 LINE SMOOTH",
"199 673 OFFCURVE",
"192 667 OFFCURVE",
"190 658 CURVE SMOOTH",
"53 14 LINE SMOOTH",
"51 6 OFFCURVE",
"56 0 OFFCURVE",
"66 0 CURVE SMOOTH",
"186 0 LINE SMOOTH",
"194 0 OFFCURVE",
"202 6 OFFCURVE",
"204 14 CURVE SMOOTH"
);
}
);
};
layerId = "D1BC8BBB-1669-4C46-BC21-42BF6808B2B9";
paths = (
{
closed = 1;
nodes = (
"341 658 LINE SMOOTH",
"343 667 OFFCURVE",
"337 673 OFFCURVE",
"329 673 CURVE SMOOTH",
"209 673 LINE SMOOTH",
"199 673 OFFCURVE",
"192 667 OFFCURVE",
"190 658 CURVE SMOOTH",
"53 14 LINE SMOOTH",
"51 6 OFFCURVE",
"56 0 OFFCURVE",
"66 0 CURVE SMOOTH",
"186 0 LINE SMOOTH",
"194 0 OFFCURVE",
"202 6 OFFCURVE",
"204 14 CURVE SMOOTH"
);
}
);
width = 251;
}
);
note = I;
unicode = 0049;
},
{
glyphname = J;
lastChange = "2021-03-17 00:36:13 +0000";
layers = (
{
background = {
paths = (
{
closed = 1;
nodes = (
"367 669 LINE SMOOTH",
"368 671 OFFCURVE",
"367 673 OFFCURVE",
"365 673 CURVE SMOOTH",
"339 673 LINE SMOOTH",
"336 673 OFFCURVE",
"335 671 OFFCURVE",
"334 669 CURVE SMOOTH",
"222 138 LINE SMOOTH",
"203 52 OFFCURVE",
"166 27 OFFCURVE",
"107 27 CURVE SMOOTH",
"83 27 OFFCURVE",
"58 27 OFFCURVE",
"34 27 CURVE SMOOTH",
"28 27 OFFCURVE",
"26 26 OFFCURVE",
"25 22 CURVE SMOOTH",
"21 4 LINE SMOOTH",
"20 1 OFFCURVE",
"21 0 OFFCURVE",
"26 0 CURVE SMOOTH",
"103 -1 LINE SMOOTH",
"192 -2 OFFCURVE",
"232 34 OFFCURVE",
"261 168 CURVE SMOOTH"
);
}
);
};
hints = (
{
horizontal = 1;
place = "{0, 27}";
type = Stem;
},
{
horizontal = 1;
place = "{673, -20}";
target = down;
type = TopGhost;
},
{
place = "{192, 33}";
type = Stem;
}
);
layerId = "707362F1-A677-446A-8636-E10BE3A7FAFF";
paths = (
{
closed = 1;
nodes = (
"367 669 LINE SMOOTH",
"368 671 OFFCURVE",
"367 673 OFFCURVE",
"365 673 CURVE SMOOTH",
"339 673 LINE SMOOTH",
"336 673 OFFCURVE",
"335 671 OFFCURVE",
"334 669 CURVE SMOOTH",
"222 138 LINE SMOOTH",
"203 52 OFFCURVE",
"166 27 OFFCURVE",
"107 27 CURVE SMOOTH",
"83 27 OFFCURVE",
"58 27 OFFCURVE",
"34 27 CURVE SMOOTH",
"28 27 OFFCURVE",
"26 26 OFFCURVE",
"25 22 CURVE SMOOTH",
"21 4 LINE SMOOTH",
"20 1 OFFCURVE",
"21 0 OFFCURVE",
"26 0 CURVE SMOOTH",
"103 -1 LINE SMOOTH",
"192 -2 OFFCURVE",
"232 34 OFFCURVE",
"261 168 CURVE SMOOTH"
);
}
);
width = 295;
},
{
background = {
paths = (
{
closed = 1;
nodes = (
"421 658 LINE SMOOTH",
"423 667 OFFCURVE",
"416 673 OFFCURVE",
"409 673 CURVE SMOOTH",
"287 673 LINE SMOOTH",
"279 673 OFFCURVE",
"272 667 OFFCURVE",
"270 658 CURVE SMOOTH",
"168 178 LINE SMOOTH",
"156 126 OFFCURVE",
"146 113 OFFCURVE",
"109 113 CURVE SMOOTH",
"95 113 OFFCURVE",
"60 116 OFFCURVE",
"45 117 CURVE SMOOTH",
"38 118 OFFCURVE",
"34 114 OFFCURVE",
"32 104 CURVE SMOOTH",
"14 19 LINE SMOOTH",
"11 4 OFFCURVE",
"36 0 OFFCURVE",
"50 0 CURVE SMOOTH",
"124 0 LINE SMOOTH",
"240 0 OFFCURVE",
"290 44 OFFCURVE",
"320 184 CURVE SMOOTH"
);
}
);
};
layerId = "D1BC8BBB-1669-4C46-BC21-42BF6808B2B9";
paths = (
{
closed = 1;
nodes = (
"421 658 LINE SMOOTH",
"423 667 OFFCURVE",
"416 673 OFFCURVE",
"409 673 CURVE SMOOTH",
"287 673 LINE SMOOTH",
"279 673 OFFCURVE",
"272 667 OFFCURVE",
"270 658 CURVE SMOOTH",
"168 178 LINE SMOOTH",
"156 126 OFFCURVE",
"146 113 OFFCURVE",
"109 113 CURVE SMOOTH",
"95 113 OFFCURVE",
"60 116 OFFCURVE",
"45 117 CURVE SMOOTH",
"38 118 OFFCURVE",
"34 114 OFFCURVE",
"32 104 CURVE SMOOTH",
"14 19 LINE SMOOTH",
"11 4 OFFCURVE",
"36 0 OFFCURVE",
"50 0 CURVE SMOOTH",
"124 0 LINE SMOOTH",
"240 0 OFFCURVE",
"290 44 OFFCURVE",
"320 184 CURVE SMOOTH"
);
}
);
width = 321;
}
);
note = J;
unicode = 004A;
},
{
glyphname = K;
lastChange = "2021-03-17 00:36:13 +0000";
layers = (
{
background = {
paths = (
{
closed = 1;
nodes = (
"82 0 OFFCURVE",
"91 0 OFFCURVE",
"99 0 CURVE SMOOTH",
"102 0 OFFCURVE",
"103 1 OFFCURVE",
"104 4 CURVE SMOOTH",
"126 108 OFFCURVE",
"148 213 OFFCURVE",
"170 317 CURVE SMOOTH",
"172 324 OFFCURVE",
"179 324 OFFCURVE",
"179 324 CURVE",
"215 324 OFFCURVE",
"252 324 OFFCURVE",
"288 324 CURVE SMOOTH",
"292 324 OFFCURVE",
"298 323 OFFCURVE",
"297 313 CURVE SMOOTH",
"289 234 OFFCURVE",
"323 99 OFFCURVE",
"374 46 CURVE SMOOTH",
"401 18 OFFCURVE",
"438 0 OFFCURVE",
"487 0 CURVE SMOOTH",
"490 0 OFFCURVE",
"490 1 OFFCURVE",
"491 5 CURVE SMOOTH",
"495 24 LINE SMOOTH",
"496 26 OFFCURVE",
"491 28 OFFCURVE",
"488 28 CURVE SMOOTH",
"454 28 OFFCURVE",
"425 44 OFFCURVE",
"401 68 CURVE SMOOTH",
"356 119 OFFCURVE",
"320 247 OFFCURVE",
"331 327 CURVE SMOOTH",
"332 333 OFFCURVE",
"333 340 OFFCURVE",
"342 352 CURVE SMOOTH",
"418 458 OFFCURVE",
"495 563 OFFCURVE",
"571 669 CURVE",
"572 670 OFFCURVE",
"571 673 OFFCURVE",
"568 673 CURVE SMOOTH",
"559 673 OFFCURVE",
"551 673 OFFCURVE",
"542 673 CURVE SMOOTH",
"540 673 OFFCURVE",
"539 670 OFFCURVE",
"538 669 CURVE",
"464 567 OFFCURVE",
"390 465 OFFCURVE",
"315 363 CURVE",
"310 358 OFFCURVE",
"305 354 OFFCURVE",
"295 354 CURVE SMOOTH",
"185 354 LINE SMOOTH",
"178 354 OFFCURVE",
"179 358 OFFCURVE",
"180 362 CURVE SMOOTH",
"202 464 OFFCURVE",
"224 567 OFFCURVE",
"245 669 CURVE SMOOTH",
"246 671 OFFCURVE",
"245 673 OFFCURVE",
"242 673 CURVE SMOOTH",
"234 673 OFFCURVE",
"225 673 OFFCURVE",
"217 673 CURVE SMOOTH",
"214 673 OFFCURVE",
"213 671 OFFCURVE",
"212 669 CURVE SMOOTH",
"165 447 OFFCURVE",
"118 226 OFFCURVE",
"71 4 CURVE SMOOTH",
"70 1 OFFCURVE",
"71 0 OFFCURVE",
"74 0 CURVE SMOOTH"
);
}
);
};
hints = (
{
horizontal = 1;
place = "{0, 28}";
type = Stem;
},
{
horizontal = 1;
place = "{324, 30}";
type = Stem;
},
{
horizontal = 1;
place = "{673, -20}";
target = down;
type = TopGhost;
},
{
place = "{60, 33}";
type = Stem;
},
{
place = "{219, 32}";
type = Stem;
}
);
layerId = "707362F1-A677-446A-8636-E10BE3A7FAFF";
paths = (
{
closed = 1;
nodes = (
"82 0 OFFCURVE",
"91 0 OFFCURVE",
"99 0 CURVE SMOOTH",
"102 0 OFFCURVE",
"103 1 OFFCURVE",
"104 4 CURVE SMOOTH",
"126 108 OFFCURVE",
"148 213 OFFCURVE",
"170 317 CURVE SMOOTH",
"172 324 OFFCURVE",
"179 324 OFFCURVE",
"179 324 CURVE",
"215 324 OFFCURVE",
"252 324 OFFCURVE",
"288 324 CURVE SMOOTH",
"292 324 OFFCURVE",
"298 323 OFFCURVE",
"297 313 CURVE SMOOTH",
"289 234 OFFCURVE",
"323 99 OFFCURVE",
"374 46 CURVE SMOOTH",
"401 18 OFFCURVE",
"438 0 OFFCURVE",
"487 0 CURVE SMOOTH",
"490 0 OFFCURVE",
"490 1 OFFCURVE",
"491 5 CURVE SMOOTH",
"495 24 LINE SMOOTH",
"496 26 OFFCURVE",
"491 28 OFFCURVE",
"488 28 CURVE SMOOTH",
"454 28 OFFCURVE",
"425 44 OFFCURVE",
"401 68 CURVE SMOOTH",
"356 119 OFFCURVE",
"320 247 OFFCURVE",
"331 327 CURVE SMOOTH",
"332 333 OFFCURVE",
"333 340 OFFCURVE",
"342 352 CURVE SMOOTH",
"418 458 OFFCURVE",
"495 563 OFFCURVE",
"571 669 CURVE",
"572 670 OFFCURVE",
"571 673 OFFCURVE",
"568 673 CURVE SMOOTH",
"559 673 OFFCURVE",
"551 673 OFFCURVE",
"542 673 CURVE SMOOTH",
"540 673 OFFCURVE",
"539 670 OFFCURVE",
"538 669 CURVE",
"464 567 OFFCURVE",
"390 465 OFFCURVE",
"315 363 CURVE",
"310 358 OFFCURVE",
"305 354 OFFCURVE",
"295 354 CURVE SMOOTH",
"185 354 LINE SMOOTH",
"178 354 OFFCURVE",
"179 358 OFFCURVE",
"180 362 CURVE SMOOTH",
"202 464 OFFCURVE",
"224 567 OFFCURVE",
"245 669 CURVE SMOOTH",
"246 671 OFFCURVE",
"245 673 OFFCURVE",
"242 673 CURVE SMOOTH",
"234 673 OFFCURVE",
"225 673 OFFCURVE",
"217 673 CURVE SMOOTH",
"214 673 OFFCURVE",
"213 671 OFFCURVE",
"212 669 CURVE SMOOTH",
"165 447 OFFCURVE",
"118 226 OFFCURVE",
"71 4 CURVE SMOOTH",
"70 1 OFFCURVE",
"71 0 OFFCURVE",
"74 0 CURVE SMOOTH"
);
}
);
width = 510;
},
{
background = {
paths = (
{
closed = 1;
nodes = (
"52 0 OFFCURVE",
"180 0 OFFCURVE",
"188 0 CURVE SMOOTH",
"191 0 OFFCURVE",
"192 1 OFFCURVE",
"193 4 CURVE SMOOTH",
"215 108 OFFCURVE",
"219 127 OFFCURVE",
"241 231 CURVE SMOOTH",
"243 238 OFFCURVE",
"246 238 OFFCURVE",
"246 238 CURVE",
"247 238 OFFCURVE",
"246 238 OFFCURVE",
"248 238 CURVE SMOOTH",
"249 238 OFFCURVE",
"255 233 OFFCURVE",
"256 223 CURVE SMOOTH",
"268 149 OFFCURVE",
"294 92 OFFCURVE",
"333 55 CURVE SMOOTH",
"382 9 OFFCURVE",
"435 0 OFFCURVE",
"527 0 CURVE SMOOTH",
"530 0 OFFCURVE",
"530 1 OFFCURVE",
"531 5 CURVE SMOOTH",
"558 133 LINE SMOOTH",
"559 135 OFFCURVE",
"554 137 OFFCURVE",
"551 137 CURVE SMOOTH",
"502 137 OFFCURVE",
"473 155 OFFCURVE",
"452 182 CURVE SMOOTH",
"418 223 OFFCURVE",
"397 285 OFFCURVE",
"408 337 CURVE SMOOTH",
"410 346 OFFCURVE",
"412 355 OFFCURVE",
"420 367 CURVE SMOOTH",
"488 473 OFFCURVE",
"543 542 OFFCURVE",
"621 634 CURVE",
"641 665 OFFCURVE",
"648 673 OFFCURVE",
"632 673 CURVE SMOOTH",
"623 673 OFFCURVE",
"502 673 OFFCURVE",
"493 673 CURVE SMOOTH",
"485 673 OFFCURVE",
"479 671 OFFCURVE",
"469 659 CURVE",
"394 557 OFFCURVE",
"374 535 OFFCURVE",
"299 433 CURVE",
"295 428 OFFCURVE",
"290 422 OFFCURVE",
"287 422 CURVE SMOOTH",
"285 422 LINE SMOOTH",
"282 422 OFFCURVE",
"283 426 OFFCURVE",
"283 430 CURVE SMOOTH",
"305 532 OFFCURVE",
"313 567 OFFCURVE",
"334 669 CURVE SMOOTH",
"335 671 OFFCURVE",
"334 673 OFFCURVE",
"331 673 CURVE SMOOTH",
"323 673 OFFCURVE",
"195 673 OFFCURVE",
"187 673 CURVE SMOOTH",
"184 673 OFFCURVE",
"183 671 OFFCURVE",
"182 669 CURVE SMOOTH",
"135 447 OFFCURVE",
"88 226 OFFCURVE",
"41 4 CURVE SMOOTH",
"40 1 OFFCURVE",
"41 0 OFFCURVE",
"44 0 CURVE SMOOTH"
);
}
);
};
layerId = "D1BC8BBB-1669-4C46-BC21-42BF6808B2B9";
paths = (
{
closed = 1;
nodes = (
"52 0 OFFCURVE",
"180 0 OFFCURVE",
"188 0 CURVE SMOOTH",
"191 0 OFFCURVE",
"192 1 OFFCURVE",
"193 4 CURVE SMOOTH",
"215 108 OFFCURVE",
"219 127 OFFCURVE",
"241 231 CURVE SMOOTH",
"243 238 OFFCURVE",
"246 238 OFFCURVE",
"246 238 CURVE",
"247 238 OFFCURVE",
"246 238 OFFCURVE",
"248 238 CURVE SMOOTH",
"249 238 OFFCURVE",
"255 233 OFFCURVE",
"256 223 CURVE SMOOTH",
"268 149 OFFCURVE",
"294 92 OFFCURVE",
"333 55 CURVE SMOOTH",
"382 9 OFFCURVE",
"435 0 OFFCURVE",
"527 0 CURVE SMOOTH",
"530 0 OFFCURVE",
"530 1 OFFCURVE",
"531 5 CURVE SMOOTH",
"558 133 LINE SMOOTH",
"559 135 OFFCURVE",
"554 137 OFFCURVE",
"551 137 CURVE SMOOTH",
"502 137 OFFCURVE",
"473 155 OFFCURVE",
"452 182 CURVE SMOOTH",
"418 223 OFFCURVE",
"397 285 OFFCURVE",
"408 337 CURVE SMOOTH",
"410 346 OFFCURVE",
"412 355 OFFCURVE",
"420 367 CURVE SMOOTH",
"488 473 OFFCURVE",
"543 542 OFFCURVE",
"621 634 CURVE",
"641 665 OFFCURVE",
"648 673 OFFCURVE",
"632 673 CURVE SMOOTH",
"623 673 OFFCURVE",
"502 673 OFFCURVE",
"493 673 CURVE SMOOTH",
"485 673 OFFCURVE",
"479 671 OFFCURVE",
"469 659 CURVE",
"394 557 OFFCURVE",
"374 535 OFFCURVE",
"299 433 CURVE",
"295 428 OFFCURVE",
"290 422 OFFCURVE",
"287 422 CURVE SMOOTH",
"285 422 LINE SMOOTH",
"282 422 OFFCURVE",
"283 426 OFFCURVE",
"283 430 CURVE SMOOTH",
"305 532 OFFCURVE",
"313 567 OFFCURVE",
"334 669 CURVE SMOOTH",
"335 671 OFFCURVE",
"334 673 OFFCURVE",
"331 673 CURVE SMOOTH",
"323 673 OFFCURVE",
"195 673 OFFCURVE",
"187 673 CURVE SMOOTH",
"184 673 OFFCURVE",
"183 671 OFFCURVE",
"182 669 CURVE SMOOTH",
"135 447 OFFCURVE",
"88 226 OFFCURVE",
"41 4 CURVE SMOOTH",
"40 1 OFFCURVE",
"41 0 OFFCURVE",
"44 0 CURVE SMOOTH"
);
}
);
width = 555;
}
);
note = K;
unicode = 004B;
},
{
glyphname = L;
lastChange = "2021-03-17 00:36:13 +0000";
layers = (
{
background = {
paths = (
{
closed = 1;
nodes = (
"386 0 LINE SMOOTH",
"389 0 OFFCURVE",
"390 1 OFFCURVE",
"391 4 CURVE SMOOTH",
"396 26 LINE SMOOTH",
"396 28 OFFCURVE",
"395 29 OFFCURVE",
"392 29 CURVE SMOOTH",
"126 29 LINE SMOOTH",
"119 29 OFFCURVE",
"120 32 OFFCURVE",
"121 38 CURVE SMOOTH",
"255 669 LINE SMOOTH",
"256 671 OFFCURVE",
"254 673 OFFCURVE",
"252 673 CURVE SMOOTH",
"226 673 LINE SMOOTH",
"224 673 OFFCURVE",
"223 671 OFFCURVE",
"222 669 CURVE SMOOTH",
"81 4 LINE SMOOTH",
"80 1 OFFCURVE",
"81 0 OFFCURVE",
"83 0 CURVE SMOOTH"
);
}
);
};
hints = (
{
horizontal = 1;
place = "{0, 29}";
type = Stem;
},
{
horizontal = 1;
place = "{673, -20}";
target = down;
type = TopGhost;
},
{
place = "{80, 33}";
type = Stem;
}
);
layerId = "707362F1-A677-446A-8636-E10BE3A7FAFF";
paths = (
{
closed = 1;
nodes = (
"386 0 LINE SMOOTH",
"389 0 OFFCURVE",
"390 1 OFFCURVE",
"391 4 CURVE SMOOTH",
"396 26 LINE SMOOTH",
"396 28 OFFCURVE",
"395 29 OFFCURVE",
"392 29 CURVE SMOOTH",
"126 29 LINE SMOOTH",
"119 29 OFFCURVE",
"120 32 OFFCURVE",
"121 38 CURVE SMOOTH",
"255 669 LINE SMOOTH",
"256 671 OFFCURVE",
"254 673 OFFCURVE",
"252 673 CURVE SMOOTH",
"226 673 LINE SMOOTH",
"224 673 OFFCURVE",
"223 671 OFFCURVE",
"222 669 CURVE SMOOTH",
"81 4 LINE SMOOTH",
"80 1 OFFCURVE",
"81 0 OFFCURVE",
"83 0 CURVE SMOOTH"
);
}
);
width = 425;
},
{
background = {
paths = (
{
closed = 1;
nodes = (
"391 0 LINE SMOOTH",
"412 0 OFFCURVE",
"413 0 OFFCURVE",
"418 22 CURVE SMOOTH",
"433 94 LINE SMOOTH",
"437 114 OFFCURVE",
"438 116 OFFCURVE",
"417 116 CURVE SMOOTH",
"225 116 LINE SMOOTH",
"216 116 OFFCURVE",
"216 117 OFFCURVE",
"218 125 CURVE SMOOTH",
"330 654 LINE SMOOTH",
"333 669 OFFCURVE",
"331 673 OFFCURVE",
"315 673 CURVE SMOOTH",
"199 673 LINE SMOOTH",
"189 673 OFFCURVE",
"182 667 OFFCURVE",
"180 658 CURVE SMOOTH",
"43 14 LINE SMOOTH",
"41 6 OFFCURVE",
"46 0 OFFCURVE",
"56 0 CURVE SMOOTH"
);
}
);
};
layerId = "D1BC8BBB-1669-4C46-BC21-42BF6808B2B9";
paths = (
{
closed = 1;
nodes = (
"391 0 LINE SMOOTH",
"412 0 OFFCURVE",
"413 0 OFFCURVE",
"418 22 CURVE SMOOTH",
"433 94 LINE SMOOTH",
"437 114 OFFCURVE",
"438 116 OFFCURVE",
"417 116 CURVE SMOOTH",
"225 116 LINE SMOOTH",
"216 116 OFFCURVE",
"216 117 OFFCURVE",
"218 125 CURVE SMOOTH",
"330 654 LINE SMOOTH",
"333 669 OFFCURVE",
"331 673 OFFCURVE",
"315 673 CURVE SMOOTH",
"199 673 LINE SMOOTH",
"189 673 OFFCURVE",
"182 667 OFFCURVE",
"180 658 CURVE SMOOTH",
"43 14 LINE SMOOTH",
"41 6 OFFCURVE",
"46 0 OFFCURVE",
"56 0 CURVE SMOOTH"
);
}
);
width = 433;
}
);
note = L;
unicode = 004C;
},
{
glyphname = M;
lastChange = "2021-03-17 00:36:13 +0000";
layers = (
{
background = {
paths = (
{
closed = 1;
nodes = (
"243 673 LINE SMOOTH",
"241 673 OFFCURVE",
"240 671 OFFCURVE",
"239 669 CURVE SMOOTH",
"195 533 OFFCURVE",
"115 257 OFFCURVE",
"61 4 CURVE SMOOTH",
"60 1 OFFCURVE",
"61 0 OFFCURVE",
"64 0 CURVE SMOOTH",
"89 0 LINE SMOOTH",
"91 0 OFFCURVE",
"93 1 OFFCURVE",
"94 4 CURVE SMOOTH",
"133 186 OFFCURVE",
"207 458 OFFCURVE",
"246 588 CURVE",
"249 595 OFFCURVE",
"258 595 OFFCURVE",
"261 588 CURVE SMOOTH",
"373 278 LINE SMOOTH",
"374 275 OFFCURVE",
"376 274 OFFCURVE",
"379 274 CURVE SMOOTH",
"401 274 LINE SMOOTH",
"405 274 OFFCURVE",
"408 276 OFFCURVE",
"411 280 CURVE SMOOTH",
"653 589 LINE SMOOTH",
"659 596 OFFCURVE",
"668 599 OFFCURVE",
"668 590 CURVE",
"655 464 OFFCURVE",
"605 160 OFFCURVE",
"573 8 CURVE SMOOTH",
"571 1 OFFCURVE",
"573 0 OFFCURVE",
"574 0 CURVE SMOOTH",
"600 0 LINE SMOOTH",
"603 0 OFFCURVE",
"604 1 OFFCURVE",
"605 4 CURVE SMOOTH",
"661 267 OFFCURVE",
"696 536 OFFCURVE",
"709 669 CURVE SMOOTH",
"710 671 OFFCURVE",
"709 673 OFFCURVE",
"707 673 CURVE SMOOTH",
"683 673 LINE SMOOTH",
"681 673 OFFCURVE",
"678 670 OFFCURVE",
"675 667 CURVE",
"406 321 LINE",
"402 314 OFFCURVE",
"397 315 OFFCURVE",
"395 321 CURVE SMOOTH",
"272 669 LINE",
"270 670 OFFCURVE",
"271 673 OFFCURVE",
"269 673 CURVE SMOOTH"
);
}
);
};
hints = (
{
horizontal = 1;
place = "{4, 21}";
target = up;
type = BottomGhost;
},
{
horizontal = 1;
place = "{274, 36}";
type = Stem;
},
{
horizontal = 1;
place = "{604, 69}";
type = Stem;
},
{
horizontal = 1;
place = "{673, -20}";
target = down;
type = TopGhost;
},
{
place = "{99, 33}";
type = Stem;
},
{
place = "{537, 33}";
type = Stem;
}
);
layerId = "707362F1-A677-446A-8636-E10BE3A7FAFF";
paths = (
{
closed = 1;
nodes = (
"243 673 LINE SMOOTH",
"241 673 OFFCURVE",
"240 671 OFFCURVE",
"239 669 CURVE SMOOTH",
"195 533 OFFCURVE",
"115 257 OFFCURVE",
"61 4 CURVE SMOOTH",
"60 1 OFFCURVE",
"61 0 OFFCURVE",
"64 0 CURVE SMOOTH",
"89 0 LINE SMOOTH",
"91 0 OFFCURVE",
"93 1 OFFCURVE",
"94 4 CURVE SMOOTH",
"133 186 OFFCURVE",
"207 458 OFFCURVE",
"246 588 CURVE",
"249 595 OFFCURVE",
"258 595 OFFCURVE",
"261 588 CURVE SMOOTH",
"373 278 LINE SMOOTH",
"374 275 OFFCURVE",
"376 274 OFFCURVE",
"379 274 CURVE SMOOTH",
"401 274 LINE SMOOTH",
"405 274 OFFCURVE",
"408 276 OFFCURVE",
"411 280 CURVE SMOOTH",
"653 589 LINE SMOOTH",
"659 596 OFFCURVE",
"668 599 OFFCURVE",
"668 590 CURVE",
"655 464 OFFCURVE",
"605 160 OFFCURVE",
"573 8 CURVE SMOOTH",
"571 1 OFFCURVE",
"573 0 OFFCURVE",
"574 0 CURVE SMOOTH",
"600 0 LINE SMOOTH",
"603 0 OFFCURVE",
"604 1 OFFCURVE",
"605 4 CURVE SMOOTH",
"661 267 OFFCURVE",
"696 536 OFFCURVE",
"709 669 CURVE SMOOTH",
"710 671 OFFCURVE",
"709 673 OFFCURVE",
"707 673 CURVE SMOOTH",
"683 673 LINE SMOOTH",
"681 673 OFFCURVE",
"678 670 OFFCURVE",
"675 667 CURVE",
"406 321 LINE",
"402 314 OFFCURVE",
"397 315 OFFCURVE",
"395 321 CURVE SMOOTH",
"272 669 LINE",
"270 670 OFFCURVE",
"271 673 OFFCURVE",
"269 673 CURVE SMOOTH"
);
}
);
width = 664;
},
{
background = {
paths = (
{
closed = 1;
nodes = (
"233 673 LINE SMOOTH",
"222 673 OFFCURVE",
"219 668 OFFCURVE",
"215 658 CURVE SMOOTH",
"154 493 OFFCURVE",
"78 200 OFFCURVE",
"38 14 CURVE SMOOTH",
"35 1 OFFCURVE",
"46 0 OFFCURVE",
"54 0 CURVE SMOOTH",
"182 0 LINE SMOOTH",
"184 0 OFFCURVE",
"186 1 OFFCURVE",
"187 4 CURVE SMOOTH",
"226 186 OFFCURVE",
"242 247 OFFCURVE",
"276 362 CURVE",
"277 367 OFFCURVE",
"282 372 OFFCURVE",
"285 366 CURVE SMOOTH",
"349 215 LINE SMOOTH",
"350 212 OFFCURVE",
"352 211 OFFCURVE",
"355 211 CURVE SMOOTH",
"402 211 LINE SMOOTH",
"406 211 OFFCURVE",
"407 213 OFFCURVE",
"411 217 CURVE SMOOTH",
"541 367 LINE SMOOTH",
"546 373 OFFCURVE",
"551 376 OFFCURVE",
"551 367 CURVE",
"534 250 OFFCURVE",
"512 123 OFFCURVE",
"489 13 CURVE SMOOTH",
"487 6 OFFCURVE",
"492 0 OFFCURVE",
"493 0 CURVE SMOOTH",
"615 0 LINE SMOOTH",
"624 0 OFFCURVE",
"636 0 OFFCURVE",
"639 14 CURVE SMOOTH",
"678 197 OFFCURVE",
"724 493 OFFCURVE",
"734 658 CURVE SMOOTH",
"735 667 OFFCURVE",
"731 673 OFFCURVE",
"723 673 CURVE SMOOTH",
"653 673 LINE SMOOTH",
"639 673 OFFCURVE",
"636 673 OFFCURVE",
"628 662 CURVE",
"434 426 LINE",
"429 419 OFFCURVE",
"419 421 OFFCURVE",
"418 426 CURVE SMOOTH",
"326 662 LINE",
"323 671 OFFCURVE",
"318 673 OFFCURVE",
"304 673 CURVE SMOOTH"
);
}
);
};
layerId = "D1BC8BBB-1669-4C46-BC21-42BF6808B2B9";
paths = (
{
closed = 1;
nodes = (
"233 673 LINE SMOOTH",
"222 673 OFFCURVE",
"219 668 OFFCURVE",
"215 658 CURVE SMOOTH",
"154 493 OFFCURVE",
"78 200 OFFCURVE",
"38 14 CURVE SMOOTH",
"35 1 OFFCURVE",
"46 0 OFFCURVE",
"54 0 CURVE SMOOTH",
"182 0 LINE SMOOTH",
"184 0 OFFCURVE",
"186 1 OFFCURVE",
"187 4 CURVE SMOOTH",
"226 186 OFFCURVE",
"242 247 OFFCURVE",
"276 362 CURVE",
"277 367 OFFCURVE",
"282 372 OFFCURVE",
"285 366 CURVE SMOOTH",
"349 215 LINE SMOOTH",
"350 212 OFFCURVE",
"352 211 OFFCURVE",
"355 211 CURVE SMOOTH",
"402 211 LINE SMOOTH",
"406 211 OFFCURVE",
"407 213 OFFCURVE",
"411 217 CURVE SMOOTH",
"541 367 LINE SMOOTH",
"546 373 OFFCURVE",
"551 376 OFFCURVE",
"551 367 CURVE",
"534 250 OFFCURVE",
"512 123 OFFCURVE",
"489 13 CURVE SMOOTH",
"487 6 OFFCURVE",
"492 0 OFFCURVE",
"493 0 CURVE SMOOTH",
"615 0 LINE SMOOTH",
"624 0 OFFCURVE",
"636 0 OFFCURVE",
"639 14 CURVE SMOOTH",
"678 197 OFFCURVE",
"724 493 OFFCURVE",
"734 658 CURVE SMOOTH",
"735 667 OFFCURVE",
"731 673 OFFCURVE",
"723 673 CURVE SMOOTH",
"653 673 LINE SMOOTH",
"639 673 OFFCURVE",
"636 673 OFFCURVE",
"628 662 CURVE",
"434 426 LINE",
"429 419 OFFCURVE",
"419 421 OFFCURVE",
"418 426 CURVE SMOOTH",
"326 662 LINE",
"323 671 OFFCURVE",
"318 673 OFFCURVE",
"304 673 CURVE SMOOTH"
);
}
);
width = 671;
}
);
note = M;
unicode = 004D;
},
